<svg width="115" height="115" viewBox="0 0 115 115" fill="none" xmlns="http://www.w3.org/2000/svg">
<circle cx="57.5" cy="57.5" r="56.1145" fill="#E5C441" stroke="#2A3596" stroke-width="2.77108"/>
<circle cx="78.974" cy="47.1087" r="13.1627" fill="#E5C441" stroke="#2A3596" stroke-width="2.77108"/>
<mask id="path-3-inside-1_704_89" fill="white">
<path d="M72.0495 82.4388C72.0495 84.3493 71.6732 86.2411 70.9421 88.0062C70.211 89.7712 69.1394 91.375 67.7884 92.7259C66.4375 94.0769 64.8337 95.1485 63.0687 95.8796C61.3036 96.6107 59.4118 96.987 57.5013 96.987C55.5908 96.987 53.699 96.6107 51.934 95.8796C50.1689 95.1485 48.5651 94.0769 47.2142 92.7259C45.8633 91.375 44.7917 89.7712 44.0605 88.0062C43.3294 86.2411 42.9531 84.3493 42.9531 82.4388L57.5013 82.4388H72.0495Z"/>
</mask>
<path d="M72.0495 82.4388C72.0495 84.3493 71.6732 86.2411 70.9421 88.0062C70.211 89.7712 69.1394 91.375 67.7884 92.7259C66.4375 94.0769 64.8337 95.1485 63.0687 95.8796C61.3036 96.6107 59.4118 96.987 57.5013 96.987C55.5908 96.987 53.699 96.6107 51.934 95.8796C50.1689 95.1485 48.5651 94.0769 47.2142 92.7259C45.8633 91.375 44.7917 89.7712 44.0605 88.0062C43.3294 86.2411 42.9531 84.3493 42.9531 82.4388L57.5013 82.4388H72.0495Z" fill="#E5C441" stroke="#2A3596" stroke-width="5.54217" mask="url(#path-3-inside-1_704_89)"/>
<circle cx="35.3294" cy="47.1087" r="13.1627" fill="#E5C441" stroke="#2A3596" stroke-width="2.77108"/>
</svg>
