<svg width="166" height="166" viewBox="0 0 166 166" fill="none" xmlns="http://www.w3.org/2000/svg">
<circle cx="83" cy="83" r="81" fill="#2A3596" stroke="#E5C441" stroke-width="4"/>
<circle cx="114" cy="68" r="19" fill="#2A3596" stroke="#E5C441" stroke-width="4"/>
<mask id="path-3-inside-1_671_8" fill="white">
<path d="M104 119C104 121.758 103.457 124.489 102.401 127.036C101.346 129.584 99.7993 131.899 97.8492 133.849C95.8992 135.799 93.5842 137.346 91.0364 138.401C88.4885 139.457 85.7578 140 83 140C80.2422 140 77.5115 139.457 74.9636 138.401C72.4158 137.346 70.1008 135.799 68.1508 133.849C66.2007 131.899 64.6539 129.584 63.5985 127.036C62.5432 124.489 62 121.758 62 119L83 119H104Z"/>
</mask>
<path d="M104 119C104 121.758 103.457 124.489 102.401 127.036C101.346 129.584 99.7993 131.899 97.8492 133.849C95.8992 135.799 93.5842 137.346 91.0364 138.401C88.4885 139.457 85.7578 140 83 140C80.2422 140 77.5115 139.457 74.9636 138.401C72.4158 137.346 70.1008 135.799 68.1508 133.849C66.2007 131.899 64.6539 129.584 63.5985 127.036C62.5432 124.489 62 121.758 62 119L83 119H104Z" fill="#2A3596" stroke="#E5C441" stroke-width="8" mask="url(#path-3-inside-1_671_8)"/>
<circle cx="51" cy="68" r="19" fill="#2A3596" stroke="#E5C441" stroke-width="4"/>
</svg>
