<svg width="265" height="292" viewBox="0 0 265 292" fill="none" xmlns="http://www.w3.org/2000/svg">
<path d="M85.1943 103.75L61.7988 239.183L57.0645 266.589L80.25 251.229L130.742 217.782L181.587 251.249L204.209 266.14L200.042 239.379L178.921 103.75L232.206 103.75L207.212 82.5918L138.476 24.4014L130.574 17.7129L122.799 24.5479L56.6084 82.7383L32.7061 103.75H85.1943Z" fill="#FCEFD6" stroke="#E73928" stroke-width="24"/>
<path d="M69.4716 267.687C69.0844 269.974 67.8736 271.756 65.9502 273.053C64.0267 274.35 61.9213 274.805 59.5891 274.352C57.3232 273.854 55.5417 272.643 54.2444 270.719C52.9472 268.796 52.4922 266.69 52.9241 264.469C53.3775 262.137 54.5883 260.355 56.5118 259.058C58.4352 257.761 60.5407 257.306 62.8066 257.804C65.094 258.191 66.8756 259.402 68.1728 261.326C69.47 263.249 69.9251 265.354 69.4716 267.687ZM104.772 243.879C104.385 246.167 103.174 247.948 101.25 249.246C99.3269 250.543 97.2215 250.998 94.8893 250.544C92.6234 250.046 90.8419 248.835 89.5446 246.912C88.2474 244.988 87.7924 242.883 88.2243 240.662C88.6777 238.33 89.8885 236.548 91.812 235.251C93.7354 233.954 95.8409 233.499 98.1068 233.997C100.394 234.384 102.176 235.595 103.473 237.518C104.77 239.442 105.225 241.547 104.772 243.879ZM140.072 220.072C139.685 222.359 138.474 224.141 136.551 225.438C134.627 226.735 132.522 227.19 130.189 226.737C127.924 226.239 126.142 225.028 124.845 223.104C123.548 221.181 123.093 219.076 123.524 216.854C123.978 214.522 125.189 212.741 127.112 211.443C129.036 210.146 131.141 209.691 133.407 210.189C135.694 210.577 137.476 211.787 138.773 213.711C140.07 215.634 140.525 217.74 140.072 220.072Z" fill="#FCEFD6"/>
<path d="M171.336 249.832C169.07 250.33 166.965 249.875 165.041 248.577C163.118 247.28 161.907 245.499 161.454 243.166C161.067 240.879 161.522 238.773 162.819 236.85C164.117 234.927 165.898 233.716 168.119 233.284C170.452 232.831 172.557 233.286 174.48 234.583C176.404 235.881 177.614 237.662 178.001 239.95C178.5 242.216 178.044 244.321 176.747 246.244C175.45 248.168 173.668 249.379 171.336 249.832ZM206.635 273.641C204.369 274.139 202.263 273.684 200.34 272.387C198.417 271.09 197.206 269.308 196.753 266.976C196.366 264.688 196.821 262.583 198.118 260.659C199.415 258.736 201.197 257.525 203.418 257.094C205.75 256.64 207.856 257.095 209.779 258.393C211.703 259.69 212.913 261.472 213.3 263.759C213.798 266.025 213.343 268.13 212.046 270.054C210.749 271.977 208.967 273.188 206.635 273.641Z" fill="#FCEFD6"/>
<path d="M44.0614 108.642C42.4614 110.322 40.4614 111.122 38.1414 111.122C35.8214 111.122 33.8214 110.322 32.1414 108.642C30.5414 106.962 29.7414 104.962 29.7414 102.642C29.7414 100.322 30.5414 98.322 32.1414 96.722C33.8214 95.042 35.8214 94.242 38.1414 94.242C40.4614 94.242 42.4614 95.042 44.0614 96.722C45.7414 98.322 46.5414 100.322 46.5414 102.642C46.5414 104.962 45.7414 106.962 44.0614 108.642Z" fill="#FCEFD6"/>
<path d="M232.061 109.642C230.461 111.322 228.461 112.122 226.141 112.122C223.821 112.122 221.821 111.322 220.141 109.642C218.541 107.962 217.741 105.962 217.741 103.642C217.741 101.322 218.541 99.322 220.141 97.722C221.821 96.042 223.821 95.242 226.141 95.242C228.461 95.242 230.461 96.042 232.061 97.722C233.741 99.322 234.541 101.322 234.541 103.642C234.541 105.962 233.741 107.962 232.061 109.642Z" fill="#FCEFD6"/>
<path d="M203.318 223.968C205.228 225.286 206.331 227.136 206.694 229.428C207.057 231.719 206.579 233.82 205.183 235.742C203.774 237.585 201.923 238.688 199.632 239.051C197.341 239.414 195.24 238.936 193.409 237.606C191.487 236.21 190.384 234.36 190.021 232.068C189.658 229.777 190.136 227.676 191.545 225.833C192.862 223.924 194.713 222.821 197.004 222.458C199.295 222.095 201.396 222.572 203.318 223.968ZM196.657 181.915C198.567 183.232 199.67 185.082 200.033 187.374C200.396 189.665 199.919 191.766 198.522 193.688C197.113 195.531 195.263 196.634 192.971 196.997C190.68 197.36 188.579 196.883 186.749 195.552C184.827 194.156 183.724 192.306 183.361 190.014C182.998 187.723 183.475 185.622 184.884 183.779C186.202 181.87 188.052 180.767 190.343 180.404C192.635 180.041 194.735 180.518 196.657 181.915ZM189.997 139.861C191.906 141.178 193.009 143.028 193.372 145.32C193.735 147.611 193.258 149.712 191.861 151.634C190.452 153.477 188.602 154.58 186.311 154.943C184.019 155.306 181.919 154.829 180.088 153.499C178.166 152.102 177.063 150.252 176.7 147.96C176.337 145.669 176.814 143.568 178.223 141.725C179.541 139.816 181.391 138.713 183.683 138.35C185.974 137.987 188.075 138.464 189.997 139.861ZM183.336 97.8067C185.246 99.1242 186.349 100.974 186.712 103.266C187.074 105.557 186.597 107.658 185.201 109.58C183.792 111.423 181.941 112.526 179.65 112.889C177.359 113.252 175.258 112.775 173.427 111.445C171.505 110.048 170.402 108.198 170.039 105.906C169.676 103.615 170.154 101.515 171.563 99.6714C172.88 97.7618 174.73 96.6588 177.022 96.2959C179.313 95.9329 181.414 96.4102 183.336 97.8067Z" fill="#FCEFD6"/>
<path d="M77.3491 108.967C75.9401 107.123 75.4628 105.023 75.8257 102.732C76.1886 100.44 77.2916 98.5899 79.2138 97.1934C81.1234 95.8759 83.2239 95.3986 85.5153 95.7615C87.8068 96.1244 89.657 97.2275 90.987 99.0581C92.3835 100.98 92.8608 103.081 92.4979 105.372C92.135 107.664 91.0319 109.514 89.1223 110.831C87.2792 112.24 85.1787 112.718 82.8872 112.355C80.5958 111.992 78.7456 110.889 77.3491 108.967ZM70.6884 151.021C69.2794 149.177 68.8021 147.077 69.165 144.785C69.5279 142.494 70.631 140.644 72.5531 139.247C74.4627 137.93 76.5632 137.453 78.8547 137.815C81.1461 138.178 82.9963 139.281 84.3263 141.112C85.7228 143.034 86.2001 145.135 85.8372 147.426C85.4743 149.717 84.3712 151.568 82.4616 152.885C80.6185 154.294 78.518 154.772 76.2266 154.409C73.9351 154.046 72.0849 152.943 70.6884 151.021ZM64.0277 193.074C62.6187 191.231 62.1414 189.131 62.5043 186.839C62.8673 184.548 63.9703 182.698 65.8924 181.301C67.802 179.984 69.9025 179.506 72.194 179.869C74.4854 180.232 76.3356 181.335 77.6656 183.166C79.0622 185.088 79.5394 187.189 79.1765 189.48C78.8136 191.771 77.7106 193.622 75.8009 194.939C73.9578 196.348 71.8573 196.825 69.5659 196.463C67.2744 196.1 65.4242 194.997 64.0277 193.074ZM57.367 235.128C55.958 233.285 55.4807 231.185 55.8436 228.893C56.2066 226.602 57.3096 224.752 59.2317 223.355C61.1413 222.038 63.2419 221.56 65.5333 221.923C67.8247 222.286 69.675 223.389 71.005 225.22C72.4015 227.142 72.8788 229.242 72.5158 231.534C72.1529 233.825 71.0499 235.676 69.1403 236.993C67.2972 238.402 65.1966 238.879 62.9052 238.516C60.6138 238.153 58.7635 237.05 57.367 235.128Z" fill="#FCEFD6"/>
<path d="M120.793 18.4337C120.899 16.1161 121.883 14.2002 123.634 12.6782C125.385 11.1561 127.419 10.4478 129.789 10.6135C132.099 10.8317 134.015 11.8163 135.537 13.5672C137.059 15.3181 137.767 17.3524 137.61 19.6096C137.444 21.9797 136.459 23.8956 134.708 25.4177C132.957 26.9397 130.923 27.6481 128.613 27.4299C126.296 27.3245 124.38 26.3399 122.858 24.589C121.336 22.8381 120.627 20.8038 120.793 18.4337ZM88.6591 46.3675C88.7644 44.0499 89.749 42.134 91.4999 40.6119C93.2508 39.0899 95.2851 38.3815 97.6552 38.5472C99.9649 38.7655 101.881 39.75 103.403 41.501C104.925 43.2519 105.633 45.2862 105.475 47.5434C105.31 49.9135 104.325 51.8294 102.574 53.3514C100.823 54.8735 98.789 55.5818 96.4793 55.3636C94.1617 55.2583 92.2458 54.2737 90.7237 52.5228C89.2017 50.7718 88.4933 48.7376 88.6591 46.3675ZM56.5249 74.3012C56.6303 71.9836 57.6149 70.0677 59.3658 68.5457C61.1167 67.0236 63.151 66.3153 65.5211 66.481C67.8308 66.6992 69.7467 67.6838 71.2687 69.4347C72.7908 71.1857 73.4991 73.2199 73.3413 75.4771C73.1756 77.8472 72.191 79.7631 70.4401 81.2852C68.6891 82.8072 66.6549 83.5156 64.3452 83.2974C62.0276 83.192 60.1117 82.2074 58.5896 80.4565C57.0676 78.7056 56.3592 76.6713 56.5249 74.3012Z" fill="#FCEFD6"/>
<path d="M192.323 62.5562C194.632 62.338 196.667 63.0463 198.418 64.5684C200.168 66.0904 201.153 68.0063 201.319 70.3764C201.424 72.694 200.716 74.7283 199.194 76.4792C197.672 78.2301 195.756 79.2147 193.499 79.3726C191.128 79.5383 189.094 78.8299 187.343 77.3079C185.592 75.7858 184.608 73.8699 184.502 71.5523C184.284 69.2426 184.993 67.2083 186.515 65.4574C188.037 63.7065 189.953 62.7219 192.323 62.5562ZM160.188 34.6224C162.498 34.4042 164.532 35.1126 166.283 36.6346C168.034 38.1567 169.019 40.0726 169.185 42.4427C169.29 44.7603 168.582 46.7945 167.06 48.5455C165.538 50.2964 163.622 51.2809 161.364 51.4388C158.994 51.6045 156.96 50.8962 155.209 49.3741C153.458 47.8521 152.474 45.9362 152.368 43.6186C152.15 41.3089 152.858 39.2746 154.38 37.5237C155.903 35.7727 157.818 34.7882 160.188 34.6224Z" fill="#FCEFD6"/>
</svg>
