<svg width="345" height="358" viewBox="0 0 345 358" fill="none" xmlns="http://www.w3.org/2000/svg">
<path d="M299.035 234.375C241.337 316.768 212.488 358 172.691 358C130.755 358 102.619 316.126 46.3473 234.375C-11.6005 150.198 -0.331893 123.304 3.41243 116.171C13.0407 97.98 31.8336 98.7648 44.4573 76.9003C55.298 58.1032 53.8716 35.9177 49.2001 17.0137C47.0605 8.34633 53.6576 0 62.5727 0H282.846C291.761 0 298.287 8.27498 296.254 16.9423C291.903 35.347 290.548 57.3542 300.854 76.9003C313.406 100.727 332.806 101.19 341.899 120.986C346.82 131.686 352.954 157.296 298.964 234.375H299.035Z" fill="#FCEFD6"/>
<path d="M139.633 116.562H80.6507C76.6924 116.562 74.2676 112.282 76.2289 108.822C81.2213 100.012 94.5226 93.7344 110.142 93.7344C125.761 93.7344 139.062 100.012 144.055 108.822C146.016 112.282 143.591 116.562 139.633 116.562Z" fill="#761614"/>
<path d="M264.41 116.562H205.428C201.47 116.562 199.045 112.282 201.006 108.822C205.999 100.012 219.3 93.7344 234.919 93.7344C250.538 93.7344 263.84 100.012 268.832 108.822C270.793 112.282 268.368 116.562 264.41 116.562Z" fill="#761614"/>
<path d="M226.359 241.082H120.02C112.853 241.082 108.538 252.603 112.068 261.876C121.09 285.56 145.089 302.467 173.19 302.467C201.29 302.467 225.325 285.56 234.311 261.876C237.842 252.603 233.491 241.082 226.359 241.082Z" fill="#761614"/>
</svg>
