<svg width="267" height="358" viewBox="0 0 267 358" fill="none" xmlns="http://www.w3.org/2000/svg">
<path d="M264.631 229.907C263.077 300.643 204.377 358 133.5 358C62.6232 358 3.9232 300.643 2.36873 229.907C2.36873 116.079 0.296091 110.351 0 12.784C0 2.65775 11.2515 -3.47713 19.69 2.14035C42.6371 17.4406 82.4243 37.4344 133.5 37.4344C184.576 37.4344 224.363 17.4406 247.31 2.14035C255.748 -3.47713 267.037 2.62079 267 12.784C266.704 110.351 264.631 116.079 264.631 229.907Z" fill="#761614"/>
<path d="M99.3739 130.715H38.1571C34.0488 130.715 31.532 126.28 33.5677 122.695C38.7493 113.567 52.5545 107.062 68.7655 107.062C84.9764 107.062 98.7817 113.567 103.963 122.695C105.999 126.28 103.482 130.715 99.3739 130.715Z" fill="#FCEFD6"/>
<path d="M228.839 130.715H167.622C163.514 130.715 160.997 126.28 163.033 122.695C168.214 113.567 182.019 107.062 198.23 107.062C214.441 107.062 228.247 113.567 233.428 122.695C235.464 126.28 232.947 130.715 228.839 130.715Z" fill="#FCEFD6"/>
<path d="M189.464 242.68H79.0957C71.6564 242.68 67.178 254.617 70.8422 264.226C80.206 288.765 105.115 306.283 134.28 306.283C163.445 306.283 188.39 288.765 197.717 264.226C201.381 254.617 196.866 242.68 189.464 242.68Z" fill="#FCEFD6"/>
</svg>
