<svg width="480" height="452" viewBox="0 0 480 452" fill="none" xmlns="http://www.w3.org/2000/svg">
<g filter="url(#filter0_d_750_613)">
<rect x="4" width="472" height="444" rx="220" fill="#761614"/>
<path d="M366.035 289.375C308.337 371.768 279.488 413 239.691 413C197.755 413 169.619 371.126 113.347 289.375C55.3995 205.198 66.6681 178.304 70.4124 171.171C80.0407 152.98 98.8336 153.765 111.457 131.9C122.298 113.103 120.872 90.9177 116.2 72.0137C114.06 63.3463 120.658 55 129.573 55H349.846C358.761 55 365.287 63.275 363.254 71.9423C358.903 90.347 357.548 112.354 367.854 131.9C380.406 155.727 399.806 156.19 408.899 175.986C413.82 186.686 419.954 212.296 365.964 289.375H366.035Z" fill="#FCEFD6"/>
<path d="M206.633 171.562H147.651C143.692 171.562 141.268 167.282 143.229 163.822C148.221 155.012 161.523 148.734 177.142 148.734C192.761 148.734 206.062 155.012 211.055 163.822C213.016 167.282 210.591 171.562 206.633 171.562Z" fill="#761614"/>
<path d="M331.41 171.562H272.428C268.47 171.562 266.045 167.282 268.006 163.822C272.999 155.012 286.3 148.734 301.919 148.734C317.538 148.734 330.84 155.012 335.832 163.822C337.793 167.282 335.368 171.562 331.41 171.562Z" fill="#761614"/>
<path d="M293.359 296.082H187.02C179.853 296.082 175.538 307.603 179.068 316.876C188.09 340.56 212.089 357.467 240.19 357.467C268.29 357.467 292.325 340.56 301.311 316.876C304.842 307.603 300.491 296.082 293.359 296.082Z" fill="#761614"/>
</g>
<defs>
<filter id="filter0_d_750_613" x="0" y="0" width="480" height="452" filterUnits="userSpaceOnUse" color-interpolation-filters="sRGB">
<feFlood flood-opacity="0" result="BackgroundImageFix"/>
<feColorMatrix in="SourceAlpha" type="matrix" values="0 0 0 0 0 0 0 0 0 0 0 0 0 0 0 0 0 0 127 0" result="hardAlpha"/>
<feOffset dy="4"/>
<feGaussianBlur stdDeviation="2"/>
<feComposite in2="hardAlpha" operator="out"/>
<feColorMatrix type="matrix" values="0 0 0 0 0 0 0 0 0 0 0 0 0 0 0 0 0 0 0.25 0"/>
<feBlend mode="normal" in2="BackgroundImageFix" result="effect1_dropShadow_750_613"/>
<feBlend mode="normal" in="SourceGraphic" in2="effect1_dropShadow_750_613" result="shape"/>
</filter>
</defs>
</svg>
