<svg width="195" height="602" viewBox="0 0 195 602" fill="none" xmlns="http://www.w3.org/2000/svg">
<path d="M36.8228 87.9461C25.414 115.449 38.2841 147.502 65.58 159.534C92.8759 171.567 125.219 159.444 137.825 132.469C157.768 87.2271 151.529 104.431 169.1 64.8405C170.876 60.813 170.62 56.1792 168.39 52.3573C162.757 42.7358 150.711 26.4627 128.846 16.8242C106.981 7.18571 86.8419 9.27127 75.9336 11.6185C71.6281 12.542 68.0272 15.4589 66.2455 19.5006C48.8309 59.1606 56.7661 42.7041 36.8165 87.9604L36.8228 87.9461Z" fill="#761614"/>
<path d="M120.49 71.3886L144.065 81.7811C145.647 82.4785 147.369 81.198 147.194 79.4719C146.748 75.0771 142.536 70.2287 136.292 67.4766C130.049 64.7246 123.629 64.8857 120.083 67.5212C118.691 68.5561 118.907 70.6911 120.49 71.3886Z" fill="#E5C441"/>
<path d="M70.6302 49.41L94.2059 59.8025C95.788 60.5 97.5101 59.2194 97.3347 57.4934C96.8887 53.0986 92.6762 48.2502 86.433 45.4981C80.1899 42.746 73.7691 42.9071 70.2241 45.5427C68.8316 46.5776 69.048 48.7126 70.6302 49.41Z" fill="#E5C441"/>
<path d="M57.9907 119.616L100.495 138.352C103.36 139.615 107.111 135.779 107.331 131.456C107.891 120.417 101.272 109.443 90.0396 104.491C78.8077 99.5402 66.2271 102.051 58.4696 109.917C55.4273 112.996 55.14 118.359 57.9907 119.616Z" fill="#E5C441"/>
<path d="M61.5846 271.21C74.0742 295.678 104.348 305.788 129.208 293.781C154.068 281.775 164.972 251.777 153.573 226.783C134.352 186.986 134.112 184.632 117.741 150.47C116.031 146.929 111.048 146.69 109.037 150.084C103.572 159.32 92.9929 173.051 75.0782 181.703C57.1635 190.355 39.8321 190.105 29.1999 188.642C25.2915 188.108 22.3618 192.152 24.0909 195.699C40.6697 229.761 42.3639 231.413 61.5846 271.21Z" fill="#761614"/>
<path d="M102.797 208.535L124.268 198.165C125.709 197.469 125.843 195.492 124.524 194.584C121.165 192.27 115.225 192.334 109.539 195.081C103.853 197.827 100.109 202.439 99.8328 206.509C99.7241 208.107 101.356 209.231 102.797 208.535Z" fill="#E5C441"/>
<path d="M57.3904 230.467L78.8621 220.097C80.3031 219.401 80.437 217.424 79.1177 216.515C75.7588 214.202 69.8183 214.266 64.1324 217.012C58.4464 219.758 54.7025 224.371 54.4265 228.44C54.3179 230.039 55.9495 231.163 57.3904 230.467Z" fill="#E5C441"/>
<path d="M90.1047 262.942L128.816 244.246C131.425 242.986 135.012 246.401 135.349 250.381C136.208 260.547 130.43 270.891 120.2 275.831C109.971 280.772 98.263 278.873 90.848 271.873C87.9402 269.134 87.5083 264.196 90.1047 262.942Z" fill="#E5C441"/>
<path d="M34.8382 370.079C44.6128 409.092 49.495 428.611 64.3596 434.302C80.0234 440.298 96.5176 428.687 129.221 406.21C162.896 383.067 162.531 371.415 162.152 368.216C161.156 360.048 154.024 357.654 152.434 347.685C151.072 339.117 154.776 331.038 159.223 324.647C161.261 321.717 159.989 317.658 156.66 316.383L74.3846 284.887C71.0547 283.612 67.4345 285.768 66.9548 289.295C65.9492 296.789 63.3099 305.199 56.6668 311.024C48.5728 318.125 41.2607 315.524 35.0348 321.615C31.6673 324.906 25.7159 333.591 34.8649 370.089L34.8382 370.079Z" fill="#761614"/>
<path d="M111.214 348.885L133.244 357.319C134.723 357.885 136.24 356.634 136.002 355.061C135.397 351.058 131.326 346.812 125.492 344.579C119.658 342.346 113.793 342.788 110.669 345.363C109.441 346.374 109.735 348.319 111.214 348.885Z" fill="#E5C441"/>
<path d="M64.6123 331.043L86.6429 339.477C88.1214 340.043 89.6389 338.792 89.4008 337.22C88.7953 333.216 84.7243 328.971 78.8904 326.737C73.0564 324.504 67.191 324.946 64.067 327.521C62.8399 328.533 63.1339 330.477 64.6123 331.043Z" fill="#E5C441"/>
<path d="M61.0255 382.974L100.744 398.18C103.422 399.204 103.387 404.123 100.742 407.08C93.9875 414.633 82.607 417.514 72.1112 413.496C61.6154 409.478 55.0544 399.729 55.083 389.601C55.0899 385.634 58.3616 381.955 61.0255 382.974Z" fill="#E5C441"/>
<path d="M71.4525 552.708C84.7703 578.017 116.448 588.134 142.212 575.295C167.975 562.456 179.624 530.764 166.784 505.201C135.526 442.984 137.437 424.34 126.189 421.383C117.933 419.205 115.885 427.97 96.4986 430.554C83.1176 432.349 79.3848 428.801 71.2927 432.784C63.1468 436.793 63.664 442.01 53.9991 451.734C40.2836 465.529 32.3346 461.946 29.1358 469.749C24.7374 480.503 38.4713 490.032 71.4525 552.708Z" fill="#761614"/>
<path d="M111.266 482.395L133.518 471.306C135.011 470.561 135.127 468.501 133.74 467.573C130.211 465.209 124.02 465.357 118.128 468.293C112.235 471.23 108.39 476.084 108.152 480.325C108.058 481.991 109.773 483.139 111.266 482.395Z" fill="#E5C441"/>
<path d="M64.2073 505.848L86.4593 494.759C87.9526 494.015 88.0679 491.954 86.6817 491.026C83.1525 488.662 76.9617 488.81 71.069 491.747C65.1764 494.683 61.331 499.537 61.0932 503.778C60.9996 505.444 62.7139 506.592 64.2073 505.848Z" fill="#E5C441"/>
<path d="M109.049 559.269L149.167 539.276C151.871 537.928 151.347 532.799 148.283 529.986C140.455 522.805 128.242 520.98 117.641 526.263C107.04 531.546 101.13 542.402 102.164 552.969C102.565 557.109 106.358 560.61 109.049 559.269Z" fill="#E5C441"/>
</svg>
