<svg width="195" height="602" viewBox="0 0 195 602" fill="none" xmlns="http://www.w3.org/2000/svg">
<path d="M157.208 87.9461C168.617 115.449 155.747 147.502 128.451 159.534C101.155 171.567 68.8126 159.444 56.2065 132.469C36.2632 87.2271 42.5022 104.431 24.9308 64.8405C23.1554 60.813 23.411 56.1792 25.6416 52.3573C31.274 42.7358 43.3201 26.4627 65.1853 16.8242C87.0505 7.18571 107.189 9.27127 118.098 11.6185C122.403 12.542 126.004 15.4589 127.786 19.5006C145.2 59.1606 137.265 42.7041 157.215 87.9604L157.208 87.9461Z" fill="#761614"/>
<path d="M73.5417 71.3886L49.966 81.7811C48.3838 82.4785 46.6618 81.198 46.8372 79.4719C47.2832 75.0771 51.4957 70.2287 57.7388 67.4766C63.982 64.7246 70.4027 64.8857 73.9478 67.5212C75.3403 68.5561 75.1239 70.6911 73.5417 71.3886Z" fill="#E5C441"/>
<path d="M123.401 49.41L99.8254 59.8025C98.2432 60.5 96.5212 59.2194 96.6966 57.4934C97.1426 53.0986 101.355 48.2502 107.598 45.4981C113.841 42.746 120.262 42.9071 123.807 45.5427C125.2 46.5776 124.983 48.7126 123.401 49.41Z" fill="#E5C441"/>
<path d="M136.041 119.616L93.5359 138.352C90.6709 139.615 86.9199 135.779 86.6999 131.456C86.1405 120.417 92.7597 109.443 103.992 104.491C115.224 99.5402 127.804 102.051 135.562 109.917C138.604 112.996 138.891 118.359 136.041 119.616Z" fill="#E5C441"/>
<path d="M132.447 271.21C119.957 295.678 89.6829 305.788 64.823 293.781C39.9631 281.775 29.0594 251.777 40.4585 226.783C59.6792 186.986 59.9195 184.632 76.2905 150.47C78.0004 146.929 82.9828 146.69 84.9941 150.084C90.4591 159.32 101.038 173.051 118.953 181.703C136.868 190.355 154.199 190.105 164.831 188.642C168.74 188.108 171.669 192.152 169.94 195.699C153.362 229.761 151.667 231.413 132.447 271.21Z" fill="#761614"/>
<path d="M91.2346 208.535L69.7629 198.165C68.3219 197.469 68.188 195.492 69.5073 194.584C72.8662 192.27 78.8067 192.334 84.4926 195.081C90.1786 197.827 93.9225 202.439 94.1985 206.509C94.3071 208.107 92.6755 209.231 91.2346 208.535Z" fill="#E5C441"/>
<path d="M136.641 230.467L115.169 220.097C113.728 219.401 113.594 217.424 114.914 216.515C118.272 214.202 124.213 214.266 129.899 217.012C135.585 219.758 139.329 224.371 139.605 228.44C139.713 230.039 138.082 231.163 136.641 230.467Z" fill="#E5C441"/>
<path d="M103.927 262.942L65.2153 244.246C62.6059 242.986 59.0195 246.401 58.6821 250.381C57.8228 260.547 63.6015 270.891 73.831 275.831C84.0606 280.772 95.7682 278.873 103.183 271.873C106.091 269.134 106.523 264.196 103.927 262.942Z" fill="#E5C441"/>
<path d="M159.193 370.079C149.418 409.092 144.536 428.611 129.672 434.302C114.008 440.298 97.5136 428.687 64.8106 406.21C31.1349 383.067 31.5 371.415 31.8789 368.216C32.8752 360.048 40.0068 357.654 41.5968 347.685C42.9593 339.117 39.2555 331.038 34.8087 324.647C32.7707 321.717 34.0418 317.658 37.3717 316.383L119.647 284.887C122.977 283.612 126.597 285.768 127.076 289.295C128.082 296.789 130.721 305.199 137.364 311.024C145.458 318.125 152.771 315.524 158.996 321.615C162.364 324.906 168.315 333.591 159.166 370.089L159.193 370.079Z" fill="#761614"/>
<path d="M82.8173 348.885L60.7868 357.319C59.3083 357.885 57.7908 356.634 58.0289 355.061C58.6344 351.058 62.7053 346.812 68.5393 344.579C74.3733 342.346 80.2387 342.788 83.3627 345.363C84.5898 346.374 84.2958 348.319 82.8173 348.885Z" fill="#E5C441"/>
<path d="M129.419 331.043L107.388 339.477C105.91 340.043 104.392 338.792 104.63 337.22C105.236 333.216 109.307 328.971 115.141 326.737C120.975 324.504 126.84 324.946 129.964 327.521C131.191 328.533 130.897 330.477 129.419 331.043Z" fill="#E5C441"/>
<path d="M133.006 382.974L93.2869 398.18C90.6096 399.204 90.6446 404.123 93.2888 407.08C100.044 414.633 111.424 417.514 121.92 413.496C132.416 409.478 138.977 399.729 138.948 389.601C138.941 385.634 135.67 381.955 133.006 382.974Z" fill="#E5C441"/>
<path d="M122.579 552.708C109.261 578.017 77.583 588.134 51.8196 575.295C26.0563 562.456 14.4074 530.764 27.2476 505.201C58.505 442.984 56.5942 424.34 67.8422 421.383C76.0987 419.205 78.1464 427.97 97.5326 430.554C110.914 432.349 114.646 428.801 122.739 432.784C130.884 436.793 130.367 442.01 140.032 451.734C153.748 465.529 161.697 461.946 164.895 469.749C169.294 480.503 155.56 490.032 122.579 552.708Z" fill="#761614"/>
<path d="M82.7654 482.395L60.5134 471.306C59.02 470.561 58.9047 468.501 60.291 467.573C63.8202 465.209 70.011 465.357 75.9036 468.293C81.7962 471.23 85.6417 476.084 85.8794 480.325C85.9731 481.991 84.2587 483.139 82.7654 482.395Z" fill="#E5C441"/>
<path d="M129.824 505.848L107.572 494.759C106.079 494.015 105.963 491.954 107.35 491.026C110.879 488.662 117.07 488.81 122.962 491.747C128.855 494.683 132.7 499.537 132.938 503.778C133.032 505.444 131.317 506.592 129.824 505.848Z" fill="#E5C441"/>
<path d="M84.9826 559.269L44.8644 539.276C42.1603 537.928 42.6845 532.799 45.7487 529.986C53.5766 522.805 65.789 520.98 76.3903 526.263C86.9916 531.546 92.9011 542.402 91.8672 552.969C91.4667 557.109 87.6733 560.61 84.9826 559.269Z" fill="#E5C441"/>
</svg>
