<svg width="259" height="358" viewBox="0 0 259 358" fill="none" xmlns="http://www.w3.org/2000/svg">
<path d="M248.116 241.556C246.706 305.859 193.491 358 129.238 358C64.9838 358 10.1582 305.893 10.3596 241.556C10.8628 84.9651 -11.5169 49.3533 8.01086 32.1186C22.338 19.4529 35.1552 35.0413 76.4588 20.7966C104.979 10.9866 108.905 0.101474 129.036 0.00068626C149.302 -0.100102 153.463 10.9194 182.453 20.7966C223.588 34.8062 235.902 19.6209 250.062 32.1186C269.556 49.3533 251.605 82.311 248.116 241.556Z" fill="#E5C441"/>
<path d="M98.5677 139.96H43.0711C39.3467 139.96 37.0651 135.929 38.9106 132.67C43.608 124.372 56.1232 118.459 70.8194 118.459C85.5156 118.459 98.0308 124.372 102.728 132.67C104.574 135.929 102.292 139.96 98.5677 139.96Z" fill="#E73928"/>
<path d="M215.935 139.96H160.438C156.714 139.96 154.432 135.929 156.278 132.67C160.975 124.372 173.49 118.459 188.187 118.459C202.883 118.459 215.398 124.372 220.095 132.67C221.941 135.929 219.659 139.96 215.935 139.96Z" fill="#E73928"/>
<path d="M179.531 292.475H79.4761C72.732 292.475 68.6721 281.623 71.9938 272.888C80.4827 250.58 103.064 234.656 129.504 234.656C155.943 234.656 178.558 250.58 187.013 272.888C190.335 281.623 186.242 292.475 179.531 292.475Z" fill="#E73928"/>
</svg>
