<svg width="194" height="260" viewBox="0 0 194 260" fill="none" xmlns="http://www.w3.org/2000/svg">
<path d="M192.279 166.971C191.149 218.344 148.498 260 97 260C45.5015 260 2.85057 218.344 1.7211 166.971C1.7211 84.3032 0.215137 80.1429 0 9.28446C0 1.93021 8.17521 -2.52529 14.3066 1.55444C30.9797 12.6663 59.8888 27.187 97 27.187C134.111 27.187 163.02 12.6663 179.693 1.55444C185.825 -2.52529 194.027 1.90337 194 9.28446C193.785 80.1429 192.279 84.3032 192.279 166.971Z" fill="#E5C441"/>
<path d="M72.2046 94.9317H27.725C24.7399 94.9317 22.9113 91.7109 24.3903 89.1074C28.1552 82.4778 38.186 77.7539 49.9648 77.7539C61.7435 77.7539 71.7743 82.4778 75.5392 89.1074C77.0183 91.7109 75.1896 94.9317 72.2046 94.9317Z" fill="#E73928"/>
<path d="M166.275 94.9317H121.795C118.81 94.9317 116.982 91.7109 118.461 89.1074C122.226 82.4778 132.256 77.7539 144.035 77.7539C155.814 77.7539 165.845 82.4778 169.61 89.1074C171.089 91.7109 169.26 94.9317 166.275 94.9317Z" fill="#E73928"/>
<path d="M137.663 176.248H57.4711C52.0658 176.248 48.8118 184.917 51.4742 191.896C58.2779 209.718 76.3763 222.44 97.5673 222.44C118.758 222.44 136.884 209.718 143.66 191.896C146.323 184.917 143.042 176.248 137.663 176.248Z" fill="#E73928"/>
</svg>
