<svg width="265" height="293" viewBox="0 0 265 293" fill="none" xmlns="http://www.w3.org/2000/svg">
<path d="M84.3115 101.885L60.916 237.317L56.1816 264.724L79.3672 249.364L129.859 215.917L180.704 249.384L203.326 264.274L199.159 237.514L178.038 101.885L231.323 101.885L206.329 80.7266L137.593 22.5361L129.691 15.8477L121.916 22.6826L55.7256 80.873L31.8232 101.885H84.3115Z" fill="#2A3596" stroke="#E5C441" stroke-width="24"/>
<path d="M68.5888 265.821C68.2016 268.109 66.9908 269.89 65.0674 271.188C63.1439 272.485 61.0385 272.94 58.7063 272.486C56.4404 271.988 54.6588 270.777 53.3616 268.854C52.0644 266.931 51.6094 264.825 52.0412 262.604C52.4947 260.272 53.7055 258.49 55.629 257.193C57.5524 255.896 59.6579 255.441 61.9237 255.939C64.2112 256.326 65.9928 257.537 67.29 259.46C68.5872 261.384 69.0422 263.489 68.5888 265.821ZM103.889 242.014C103.502 244.302 102.291 246.083 100.368 247.38C98.4441 248.678 96.3387 249.133 94.0065 248.679C91.7406 248.181 89.959 246.97 88.6618 245.047C87.3646 243.123 86.9096 241.018 87.3414 238.797C87.7949 236.464 89.0057 234.683 90.9292 233.386C92.8526 232.088 94.9581 231.633 97.2239 232.132C99.5114 232.519 101.293 233.73 102.59 235.653C103.887 237.576 104.342 239.682 103.889 242.014ZM139.189 218.207C138.802 220.494 137.591 222.276 135.668 223.573C133.744 224.87 131.639 225.325 129.307 224.872C127.041 224.373 125.259 223.163 123.962 221.239C122.665 219.316 122.21 217.21 122.642 214.989C123.095 212.657 124.306 210.875 126.229 209.578C128.153 208.281 130.258 207.826 132.524 208.324C134.812 208.711 136.593 209.922 137.89 211.846C139.188 213.769 139.643 215.874 139.189 218.207Z" fill="#FCEFD6"/>
<path d="M170.453 247.967C168.187 248.465 166.082 248.01 164.158 246.712C162.235 245.415 161.024 243.633 160.571 241.301C160.184 239.014 160.639 236.908 161.936 234.985C163.234 233.061 165.015 231.851 167.237 231.419C169.569 230.966 171.674 231.421 173.598 232.718C175.521 234.015 176.732 235.797 177.119 238.084C177.617 240.35 177.162 242.456 175.864 244.379C174.567 246.303 172.785 247.513 170.453 247.967ZM205.752 271.776C203.486 272.274 201.381 271.819 199.457 270.522C197.534 269.224 196.323 267.443 195.87 265.11C195.483 262.823 195.938 260.718 197.235 258.794C198.533 256.871 200.314 255.66 202.535 255.228C204.868 254.775 206.973 255.23 208.896 256.527C210.82 257.825 212.031 259.606 212.418 261.894C212.916 264.16 212.46 266.265 211.163 268.189C209.866 270.112 208.084 271.323 205.752 271.776Z" fill="#FCEFD6"/>
<path d="M43.1786 106.777C41.5786 108.457 39.5786 109.257 37.2586 109.257C34.9386 109.257 32.9386 108.457 31.2586 106.777C29.6586 105.097 28.8586 103.097 28.8586 100.777C28.8586 98.4567 29.6586 96.4567 31.2586 94.8567C32.9386 93.1767 34.9386 92.3767 37.2586 92.3767C39.5786 92.3767 41.5786 93.1767 43.1786 94.8567C44.8586 96.4567 45.6586 98.4567 45.6586 100.777C45.6586 103.097 44.8586 105.097 43.1786 106.777Z" fill="#FCEFD6"/>
<path d="M231.179 107.777C229.579 109.457 227.579 110.257 225.259 110.257C222.939 110.257 220.939 109.457 219.259 107.777C217.659 106.097 216.859 104.097 216.859 101.777C216.859 99.4567 217.659 97.4567 219.259 95.8567C220.939 94.1767 222.939 93.3767 225.259 93.3767C227.579 93.3767 229.579 94.1767 231.179 95.8567C232.859 97.4567 233.659 99.4567 233.659 101.777C233.659 104.097 232.859 106.097 231.179 107.777Z" fill="#FCEFD6"/>
<path d="M202.435 222.103C204.345 223.421 205.448 225.271 205.811 227.562C206.174 229.854 205.696 231.954 204.3 233.876C202.891 235.72 201.041 236.823 198.749 237.186C196.458 237.548 194.357 237.071 192.527 235.741C190.605 234.345 189.502 232.494 189.139 230.203C188.776 227.912 189.253 225.811 190.662 223.968C191.979 222.058 193.83 220.955 196.121 220.592C198.413 220.229 200.513 220.707 202.435 222.103ZM195.775 180.049C197.684 181.367 198.787 183.217 199.15 185.508C199.513 187.8 199.036 189.9 197.639 191.823C196.23 193.666 194.38 194.769 192.089 195.132C189.797 195.495 187.697 195.017 185.866 193.687C183.944 192.291 182.841 190.441 182.478 188.149C182.115 185.858 182.592 183.757 184.001 181.914C185.319 180.004 187.169 178.901 189.46 178.538C191.752 178.176 193.852 178.653 195.775 180.049ZM189.114 137.995C191.023 139.313 192.126 141.163 192.489 143.455C192.852 145.746 192.375 147.847 190.979 149.769C189.57 151.612 187.719 152.715 185.428 153.078C183.136 153.441 181.036 152.963 179.205 151.633C177.283 150.237 176.18 148.387 175.817 146.095C175.454 143.804 175.932 141.703 177.341 139.86C178.658 137.95 180.508 136.847 182.8 136.485C185.091 136.122 187.192 136.599 189.114 137.995ZM182.453 95.9415C184.363 97.259 185.466 99.1092 185.829 101.401C186.192 103.692 185.714 105.793 184.318 107.715C182.909 109.558 181.059 110.661 178.767 111.024C176.476 111.387 174.375 110.909 172.545 109.579C170.623 108.183 169.519 106.333 169.157 104.041C168.794 101.75 169.271 99.6493 170.68 97.8062C171.997 95.8966 173.848 94.7936 176.139 94.4306C178.431 94.0677 180.531 94.545 182.453 95.9415Z" fill="#FCEFD6"/>
<path d="M76.4663 107.101C75.0572 105.258 74.58 103.158 74.9429 100.866C75.3058 98.5749 76.4088 96.7246 78.331 95.3281C80.2406 94.0106 82.3411 93.5334 84.6325 93.8963C86.924 94.2592 88.7742 95.3622 90.1042 97.1928C91.5007 99.1149 91.978 101.215 91.6151 103.507C91.2521 105.798 90.1491 107.649 88.2395 108.966C86.3964 110.375 84.2959 110.852 82.0044 110.489C79.713 110.127 77.8628 109.023 76.4663 107.101ZM69.8056 149.155C68.3966 147.312 67.9193 145.212 68.2822 142.92C68.6451 140.629 69.7482 138.779 71.6703 137.382C73.5799 136.065 75.6804 135.587 77.9718 135.95C80.2633 136.313 82.1135 137.416 83.4435 139.247C84.84 141.169 85.3173 143.269 84.9544 145.561C84.5915 147.852 83.4884 149.702 81.5788 151.02C79.7357 152.429 77.6352 152.906 75.3438 152.543C73.0523 152.18 71.2021 151.077 69.8056 149.155ZM63.1449 191.209C61.7359 189.366 61.2586 187.266 61.6215 184.974C61.9844 182.683 63.0875 180.832 65.0096 179.436C66.9192 178.118 69.0197 177.641 71.3112 178.004C73.6026 178.367 75.4528 179.47 76.7828 181.301C78.1793 183.223 78.6566 185.323 78.2937 187.615C77.9308 189.906 76.8277 191.756 74.9181 193.074C73.075 194.483 70.9745 194.96 68.6831 194.597C66.3916 194.234 64.5414 193.131 63.1449 191.209ZM56.4842 233.263C55.0752 231.42 54.5979 229.319 54.9608 227.028C55.3238 224.737 56.4268 222.886 58.3489 221.49C60.2585 220.172 62.359 219.695 64.6505 220.058C66.9419 220.421 68.7921 221.524 70.1221 223.355C71.5187 225.277 71.9959 227.377 71.633 229.669C71.2701 231.96 70.1671 233.81 68.2575 235.128C66.4143 236.537 64.3138 237.014 62.0224 236.651C59.7309 236.288 57.8807 235.185 56.4842 233.263Z" fill="#FCEFD6"/>
<path d="M119.91 16.5685C120.016 14.2509 121 12.335 122.751 10.8129C124.502 9.29087 126.536 8.58252 128.907 8.74825C131.216 8.96647 133.132 9.95104 134.654 11.702C136.176 13.4529 136.885 15.4872 136.727 17.7444C136.561 20.1145 135.576 22.0304 133.825 23.5524C132.075 25.0745 130.04 25.7828 127.731 25.5646C125.413 25.4593 123.497 24.4747 121.975 22.7238C120.453 20.9728 119.745 18.9386 119.91 16.5685ZM87.7762 44.5022C87.8816 42.1846 88.8662 40.2687 90.6171 38.7467C92.368 37.2246 94.4023 36.5163 96.7724 36.682C99.0821 36.9002 100.998 37.8848 102.52 39.6357C104.042 41.3867 104.75 43.4209 104.593 45.6782C104.427 48.0482 103.442 49.9641 101.691 51.4862C99.9405 53.0082 97.9062 53.7166 95.5965 53.4984C93.2789 53.393 91.363 52.4084 89.8409 50.6575C88.3189 48.9066 87.6105 46.8723 87.7762 44.5022ZM55.6421 72.436C55.7475 70.1184 56.7321 68.2025 58.483 66.6804C60.2339 65.1584 62.2682 64.45 64.6383 64.6158C66.948 64.834 68.8639 65.8186 70.3859 67.5695C71.908 69.3204 72.6163 71.3547 72.4585 73.6119C72.2928 75.982 71.3082 77.8979 69.5573 79.4199C67.8063 80.942 65.7721 81.6504 63.4624 81.4321C61.1447 81.3268 59.2289 80.3422 57.7068 78.5913C56.1847 76.8404 55.4764 74.8061 55.6421 72.436Z" fill="#FCEFD6"/>
<path d="M191.44 60.691C193.75 60.4727 195.784 61.1811 197.535 62.7031C199.286 64.2252 200.27 66.1411 200.436 68.5112C200.541 70.8288 199.833 72.8631 198.311 74.614C196.789 76.3649 194.873 77.3495 192.616 77.5073C190.246 77.673 188.211 76.9647 186.46 75.4426C184.709 73.9206 183.725 72.0047 183.62 69.6871C183.401 67.3774 184.11 65.3431 185.632 63.5922C187.154 61.8413 189.07 60.8567 191.44 60.691ZM159.306 32.7572C161.615 32.539 163.65 33.2473 165.401 34.7694C167.152 36.2914 168.136 38.2073 168.302 40.5774C168.407 42.895 167.699 44.9293 166.177 46.6802C164.655 48.4311 162.739 49.4157 160.482 49.5736C158.111 49.7393 156.077 49.0309 154.326 47.5089C152.575 45.9868 151.591 44.0709 151.485 41.7533C151.267 39.4436 151.976 37.4094 153.498 35.6584C155.02 33.9075 156.936 32.9229 159.306 32.7572Z" fill="#FCEFD6"/>
</svg>
