<svg width="259" height="358" viewBox="0 0 259 358" fill="none" xmlns="http://www.w3.org/2000/svg">
<path d="M248.116 241.556C246.706 305.859 193.491 358 129.238 358C64.9837 358 10.1582 305.893 10.3596 241.556C10.8629 84.9651 -11.5169 49.3533 8.01086 32.1186C22.338 19.4529 35.1552 35.0413 76.4588 20.7966C104.979 10.9866 108.905 0.101474 129.036 0.00068626C149.302 -0.100102 153.463 10.9194 182.453 20.7966C223.588 34.8062 235.902 19.6209 250.062 32.1186C269.556 49.3533 251.605 82.311 248.116 241.556Z" fill="#2A3596"/>
<path d="M98.5677 139.962H43.0711C39.3467 139.962 37.0651 135.931 38.9106 132.672C43.608 124.374 56.1232 118.461 70.8194 118.461C85.5155 118.461 98.0308 124.374 102.728 132.672C104.574 135.931 102.292 139.962 98.5677 139.962Z" fill="#E5C441"/>
<path d="M215.935 139.962H160.438C156.714 139.962 154.432 135.931 156.278 132.672C160.975 124.374 173.49 118.461 188.187 118.461C202.883 118.461 215.398 124.374 220.095 132.672C221.941 135.931 219.659 139.962 215.935 139.962Z" fill="#E5C441"/>
<path d="M179.531 292.477H79.4761C72.732 292.477 68.6721 281.625 71.9938 272.89C80.4827 250.582 103.064 234.658 129.504 234.658C155.943 234.658 178.558 250.582 187.013 272.89C190.335 281.625 186.242 292.477 179.531 292.477Z" fill="#E5C441"/>
</svg>
