<svg width="100" height="110" viewBox="0 0 100 110" fill="none" xmlns="http://www.w3.org/2000/svg">
<path d="M32.0928 39.084L23.2793 90.1025L21.4961 100.427L30.2305 94.6416L49.251 82.041L68.4053 94.6484L76.9268 100.258L75.3574 90.1768L67.4004 39.084L87.4736 39.084L78.0586 31.1133L52.1641 9.19238L49.1875 6.67285L46.2588 9.24707L21.3242 31.168L12.3193 39.084H32.0928Z" fill="#FCEFD6" stroke="#E73928" stroke-width="9.0411"/>
<path d="M26.0738 100.699C25.928 101.561 25.4718 102.232 24.7472 102.721C24.0227 103.209 23.2295 103.381 22.3509 103.21C21.4974 103.022 20.8262 102.566 20.3375 101.842C19.8489 101.117 19.6774 100.324 19.8401 99.4872C20.011 98.6086 20.4671 97.9375 21.1917 97.4488C21.9163 96.9602 22.7094 96.7887 23.563 96.9764C24.4247 97.1223 25.0959 97.5784 25.5845 98.303C26.0732 99.0276 26.2446 99.8207 26.0738 100.699ZM39.3718 91.7307C39.226 92.5924 38.7698 93.2636 38.0453 93.7523C37.3207 94.2409 36.5275 94.4124 35.649 94.2415C34.7954 94.0538 34.1242 93.5977 33.6356 92.8731C33.1469 92.1486 32.9755 91.3554 33.1382 90.5187C33.309 89.6401 33.7651 88.969 34.4897 88.4803C35.2143 87.9916 36.0074 87.8202 36.861 88.0079C37.7227 88.1537 38.3939 88.6098 38.8825 89.3344C39.3712 90.059 39.5426 90.8522 39.3718 91.7307ZM52.6698 82.7622C52.524 83.6239 52.0679 84.295 51.3433 84.7837C50.6187 85.2724 49.8255 85.4438 48.947 85.273C48.0934 85.0853 47.4223 84.6292 46.9336 83.9046C46.4449 83.18 46.2735 82.3869 46.4362 81.5501C46.607 80.6716 47.0631 80.0004 47.7877 79.5117C48.5123 79.0231 49.3055 78.8516 50.159 79.0393C51.0208 79.1852 51.6919 79.6413 52.1806 80.3659C52.6692 81.0905 52.8407 81.8836 52.6698 82.7622Z" fill="#FCEFD6"/>
<path d="M64.6389 93.972C63.7853 94.1597 62.9922 93.9882 62.2677 93.4995C61.5431 93.0108 61.087 92.3396 60.9162 91.461C60.7704 90.5993 60.9419 89.8062 61.4306 89.0816C61.9193 88.3571 62.5905 87.901 63.4272 87.7383C64.3058 87.5675 65.0989 87.739 65.8235 88.2277C66.5481 88.7164 67.0042 89.3876 67.1499 90.2493C67.3376 91.1029 67.1661 91.8961 66.6774 92.6206C66.1887 93.3452 65.5175 93.8013 64.6389 93.972ZM77.9365 102.941C77.0829 103.129 76.2897 102.958 75.5652 102.469C74.8406 101.98 74.3845 101.309 74.2137 100.43C74.0679 99.5686 74.2394 98.7755 74.7281 98.0509C75.2168 97.3263 75.888 96.8703 76.7247 96.7076C77.6033 96.5368 78.3965 96.7083 79.121 97.197C79.8456 97.6857 80.3017 98.3569 80.4475 99.2186C80.6351 100.072 80.4636 100.865 79.9749 101.59C79.4862 102.314 78.815 102.771 77.9365 102.941Z" fill="#FCEFD6"/>
<path d="M16.5978 40.7552C15.995 41.3881 15.2416 41.6895 14.3676 41.6895C13.4936 41.6895 12.7402 41.3881 12.1073 40.7552C11.5046 40.1224 11.2032 39.3689 11.2032 38.495C11.2032 37.621 11.5046 36.8676 12.1073 36.2648C12.7402 35.632 13.4936 35.3306 14.3676 35.3306C15.2416 35.3306 15.995 35.632 16.5978 36.2648C17.2306 36.8676 17.532 37.621 17.532 38.495C17.532 39.3689 17.2306 40.1224 16.5978 40.7552Z" fill="#FCEFD6"/>
<path d="M87.422 41.1322C86.8192 41.7651 86.0658 42.0664 85.1918 42.0664C84.3179 42.0664 83.5644 41.7651 82.9316 41.1322C82.3288 40.4993 82.0275 39.7459 82.0275 38.8719C82.0275 37.998 82.3288 37.2445 82.9316 36.6418C83.5644 36.0089 84.3179 35.7075 85.1918 35.7075C86.0658 35.7075 86.8192 36.0089 87.422 36.6418C88.0548 37.2445 88.3562 37.998 88.3562 38.8719C88.3562 39.7459 88.0548 40.4993 87.422 41.1322Z" fill="#FCEFD6"/>
<path d="M76.4245 84.3978C77.1438 84.8942 77.5594 85.5912 77.6961 86.4544C77.8328 87.3176 77.653 88.1089 77.1269 88.833C76.5961 89.5273 75.8991 89.9428 75.0359 90.0795C74.1727 90.2163 73.3814 90.0365 72.6918 89.5354C71.9677 89.0093 71.5522 88.3123 71.4155 87.4491C71.2787 86.5859 71.4585 85.7946 71.9893 85.1003C72.4857 84.3809 73.1827 83.9654 74.0459 83.8287C74.9091 83.692 75.7004 83.8718 76.4245 84.3978ZM73.9153 68.5556C74.6347 69.0519 75.0502 69.7489 75.1869 70.6121C75.3236 71.4754 75.1438 72.2667 74.6178 72.9907C74.087 73.6851 73.39 74.1006 72.5267 74.2373C71.6635 74.374 70.8722 74.1942 70.1826 73.6932C69.4585 73.1671 69.043 72.4701 68.9063 71.6069C68.7696 70.7437 68.9494 69.9524 69.4802 69.2581C69.9765 68.5387 70.6735 68.1232 71.5367 67.9865C72.3999 67.8497 73.1912 68.0295 73.9153 68.5556ZM71.4061 52.7134C72.1255 53.2097 72.541 53.9067 72.6778 54.7699C72.8145 55.6331 72.6347 56.4244 72.1086 57.1485C71.5778 57.8428 70.8808 58.2584 70.0176 58.3951C69.1544 58.5318 68.3631 58.352 67.6735 57.851C66.9494 57.3249 66.5339 56.6279 66.3971 55.7647C66.2604 54.9015 66.4402 54.1102 66.971 53.4158C67.4673 52.6965 68.1643 52.2809 69.0275 52.1442C69.8908 52.0075 70.6821 52.1873 71.4061 52.7134ZM68.897 36.8712C69.6164 37.3675 70.0319 38.0645 70.1686 38.9277C70.3053 39.7909 70.1255 40.5822 69.5994 41.3063C69.0686 42.0006 68.3716 42.4161 67.5084 42.5528C66.6452 42.6896 65.8539 42.5098 65.1643 42.0087C64.4402 41.4827 64.0247 40.7857 63.888 39.9224C63.7513 39.0592 63.9311 38.2679 64.4619 37.5736C64.9582 36.8542 65.6552 36.4387 66.5184 36.302C67.3816 36.1653 68.1729 36.3451 68.897 36.8712Z" fill="#FCEFD6"/>
<path d="M29.3077 41.0752C28.7769 40.3808 28.5971 39.5896 28.7339 38.7263C28.8706 37.8631 29.2861 37.1661 30.0102 36.64C30.7296 36.1437 31.5209 35.9639 32.3841 36.1006C33.2473 36.2374 33.9443 36.6529 34.4453 37.3425C34.9714 38.0666 35.1512 38.8579 35.0145 39.7211C34.8778 40.5843 34.4622 41.2813 33.7429 41.7776C33.0485 42.3084 32.2573 42.4882 31.394 42.3515C30.5308 42.2148 29.8338 41.7993 29.3077 41.0752ZM26.7986 56.9174C26.2678 56.2231 26.088 55.4318 26.2247 54.5686C26.3614 53.7054 26.7769 53.0083 27.501 52.4823C28.2204 51.986 29.0117 51.8062 29.8749 51.9429C30.7381 52.0796 31.4351 52.4951 31.9362 53.1847C32.4622 53.9088 32.642 54.7001 32.5053 55.5633C32.3686 56.4265 31.9531 57.1235 31.2337 57.6199C30.5394 58.1506 29.7481 58.3304 28.8849 58.1937C28.0217 58.057 27.3247 57.6415 26.7986 56.9174ZM24.2894 72.7596C23.7586 72.0653 23.5788 71.274 23.7155 70.4108C23.8523 69.5476 24.2678 68.8506 24.9919 68.3245C25.7112 67.8282 26.5025 67.6484 27.3658 67.7851C28.229 67.9218 28.926 68.3373 29.427 69.027C29.9531 69.751 30.1329 70.5423 29.9962 71.4055C29.8594 72.2688 29.4439 72.9658 28.7245 73.4621C28.0302 73.9929 27.2389 74.1727 26.3757 74.036C25.5125 73.8992 24.8155 73.4837 24.2894 72.7596ZM21.7803 88.6019C21.2495 87.9075 21.0697 87.1162 21.2064 86.253C21.3431 85.3898 21.7586 84.6928 22.4827 84.1667C23.2021 83.6704 23.9934 83.4906 24.8566 83.6273C25.7198 83.764 26.4168 84.1796 26.9178 84.8692C27.4439 85.5933 27.6237 86.3846 27.487 87.2478C27.3503 88.111 26.9348 88.808 26.2154 89.3043C25.5211 89.8351 24.7298 90.0149 23.8666 89.8782C23.0033 89.7415 22.3063 89.3259 21.7803 88.6019Z" fill="#FCEFD6"/>
<path d="M45.6152 7.07265C45.6549 6.19958 46.0258 5.47784 46.6854 4.90446C47.345 4.33108 48.1113 4.06424 49.0042 4.12667C49.8743 4.20888 50.596 4.57978 51.1694 5.23937C51.7427 5.89897 52.0096 6.6653 51.9501 7.51563C51.8877 8.40847 51.5168 9.13021 50.8572 9.70359C50.1976 10.277 49.4313 10.5438 48.5612 10.4616C47.6881 10.4219 46.9664 10.051 46.393 9.39142C45.8196 8.73182 45.5528 7.96549 45.6152 7.07265ZM33.5099 17.5956C33.5496 16.7226 33.9205 16.0008 34.5801 15.4275C35.2397 14.8541 36.006 14.5872 36.8988 14.6497C37.7689 14.7319 38.4907 15.1028 39.0641 15.7624C39.6374 16.422 39.9043 17.1883 39.8448 18.0386C39.7824 18.9315 39.4115 19.6532 38.7519 20.2266C38.0923 20.8 37.326 21.0668 36.4559 20.9846C35.5828 20.9449 34.861 20.574 34.2877 19.9144C33.7143 19.2548 33.4474 18.4885 33.5099 17.5956ZM21.4046 28.1186C21.4443 27.2456 21.8152 26.5238 22.4748 25.9504C23.1343 25.3771 23.9007 25.1102 24.7935 25.1727C25.6636 25.2549 26.3854 25.6258 26.9587 26.2854C27.5321 26.945 27.799 27.7113 27.7395 28.5616C27.6771 29.4545 27.3062 30.1762 26.6466 30.7496C25.987 31.3229 25.2206 31.5898 24.3505 31.5076C23.4775 31.4679 22.7557 31.097 22.1824 30.4374C21.609 29.7778 21.3421 29.0115 21.4046 28.1186Z" fill="#FCEFD6"/>
<path d="M72.3376 23.6944C73.2077 23.6122 73.974 23.879 74.6336 24.4524C75.2932 25.0258 75.6641 25.7475 75.7265 26.6403C75.7662 27.5134 75.4994 28.2797 74.926 28.9393C74.3526 29.5989 73.6309 29.9698 72.7806 30.0293C71.8877 30.0917 71.1214 29.8249 70.4618 29.2515C69.8022 28.6781 69.4313 27.9564 69.3916 27.0833C69.3094 26.2132 69.5762 25.4469 70.1496 24.7873C70.723 24.1277 71.4447 23.7568 72.3376 23.6944ZM60.2323 13.1714C61.1024 13.0892 61.8687 13.356 62.5283 13.9294C63.1879 14.5028 63.5588 15.2245 63.6212 16.1174C63.6609 16.9904 63.3941 17.7568 62.8207 18.4164C62.2473 19.0759 61.5256 19.4468 60.6752 19.5063C59.7824 19.5687 59.0161 19.3019 58.3565 18.7285C57.6969 18.1551 57.326 17.4334 57.2863 16.5603C57.2041 15.6902 57.4709 14.9239 58.0443 14.2643C58.6177 13.6047 59.3394 13.2338 60.2323 13.1714Z" fill="#FCEFD6"/>
</svg>
