<svg width="259" height="358" viewBox="0 0 259 358" fill="none" xmlns="http://www.w3.org/2000/svg">
<path d="M256.046 234.256C254.546 302.377 197.925 357.615 129.558 357.615C61.191 357.615 4.56969 302.377 3.07026 234.256C3.07026 121.112 0.249905 162.896 0 63.7745C0 53.7022 4.81957 44.235 13.0307 38.2912C33.7372 23.343 74.0433 0.386719 128.808 0.386719C183.573 0.386719 223.879 23.343 244.586 38.3268C252.761 44.235 257.616 53.6666 257.616 63.7745C257.473 162.896 256.046 121.112 256.046 234.291V234.256Z" fill="#E5C441"/>
<path d="M95.893 122.356H36.844C32.8813 122.356 30.4536 118.085 32.4172 114.633C37.4153 105.842 50.7316 99.5781 66.3685 99.5781C82.0055 99.5781 95.3218 105.842 100.32 114.633C102.283 118.085 99.8558 122.356 95.893 122.356Z" fill="#E73928"/>
<path d="M220.776 122.356H161.727C157.764 122.356 155.336 118.085 157.3 114.633C162.298 105.842 175.614 99.5781 191.251 99.5781C206.888 99.5781 220.205 105.842 225.203 114.633C227.166 118.085 224.739 122.356 220.776 122.356Z" fill="#E73928"/>
<path d="M182.381 281.035H75.9213C68.7455 281.035 64.4257 269.539 67.9601 260.286C76.9924 236.653 101.019 219.783 129.151 219.783C157.283 219.783 181.346 236.653 190.342 260.286C193.876 269.539 189.521 281.035 182.381 281.035Z" fill="#E73928"/>
</svg>
