<svg width="303" height="136" viewBox="0 0 303 136" fill="none" xmlns="http://www.w3.org/2000/svg">
<rect width="59" height="136" rx="14" fill="#761614"/>
<path d="M11.8437 113.343V109.643C11.9771 109.576 13.5104 109.176 16.4437 108.443C19.3437 107.71 22.6771 106.96 26.4437 106.193C30.2104 105.426 32.8604 105.043 34.3937 105.043C35.8937 105.043 37.0937 105.443 37.9937 106.243C38.8937 107.01 39.3437 108.01 39.3437 109.243C39.3437 110.476 38.8437 111.46 37.8437 112.193C36.8437 112.893 35.4604 113.526 33.6937 114.093C33.2604 114.226 32.7271 114.393 32.0937 114.593C31.4604 114.76 30.9604 114.91 30.5937 115.043C30.1937 115.143 29.8104 115.276 29.4437 115.443C29.0437 115.576 28.7604 115.71 28.5937 115.843C28.3937 115.976 28.2937 116.11 28.2937 116.243C28.2937 116.643 28.9437 116.843 30.2437 116.843C32.0104 116.843 34.4771 116.376 37.6437 115.443C40.7771 114.476 43.5437 113.376 45.9437 112.143L46.8438 111.693V115.793C44.2437 117.06 41.3271 118.16 38.0937 119.093C34.8604 119.993 32.2437 120.443 30.2437 120.443C28.5771 120.443 27.2437 120.093 26.2437 119.393C25.2104 118.66 24.6937 117.693 24.6937 116.493C24.6937 115.293 25.1771 114.343 26.1437 113.643C27.0771 112.943 28.3937 112.293 30.0937 111.693C30.5604 111.526 31.1104 111.343 31.7437 111.143C32.3437 110.943 32.8604 110.793 33.2937 110.693C33.6937 110.56 34.0937 110.426 34.4937 110.293C34.8604 110.126 35.1437 109.976 35.3437 109.843C35.5437 109.676 35.6437 109.51 35.6437 109.343C35.6437 108.91 35.2271 108.693 34.3937 108.693C31.7604 108.693 25.4604 109.893 15.4937 112.293L22.8437 119.443L20.4438 121.743L11.8437 113.343ZM11.8437 94.0559V90.3559C11.9771 90.2892 13.5104 89.8892 16.4437 89.1559C19.3437 88.4225 22.6771 87.6725 26.4437 86.9059C30.2104 86.1392 32.8604 85.7559 34.3937 85.7559C35.8937 85.7559 37.0937 86.1559 37.9937 86.9559C38.8937 87.7225 39.3437 88.7225 39.3437 89.9559C39.3437 91.1892 38.8437 92.1725 37.8437 92.9059C36.8437 93.6059 35.4604 94.2392 33.6937 94.8059C33.2604 94.9392 32.7271 95.1059 32.0937 95.3059C31.4604 95.4725 30.9604 95.6225 30.5937 95.7559C30.1937 95.8559 29.8104 95.9892 29.4437 96.1559C29.0437 96.2892 28.7604 96.4225 28.5937 96.5559C28.3937 96.6892 28.2937 96.8225 28.2937 96.9559C28.2937 97.3559 28.9437 97.5559 30.2437 97.5559C32.0104 97.5559 34.4771 97.0892 37.6437 96.1559C40.7771 95.1892 43.5437 94.0892 45.9437 92.8559L46.8438 92.4059V96.5059C44.2437 97.7725 41.3271 98.8725 38.0937 99.8059C34.8604 100.706 32.2437 101.156 30.2437 101.156C28.5771 101.156 27.2437 100.806 26.2437 100.106C25.2104 99.3725 24.6937 98.4059 24.6937 97.2059C24.6937 96.0059 25.1771 95.0559 26.1437 94.3559C27.0771 93.6559 28.3937 93.0059 30.0937 92.4059C30.5604 92.2392 31.1104 92.0559 31.7437 91.8559C32.3437 91.6559 32.8604 91.5059 33.2937 91.4059C33.6937 91.2725 34.0937 91.1392 34.4937 91.0059C34.8604 90.8392 35.1437 90.6892 35.3437 90.5559C35.5437 90.3892 35.6437 90.2225 35.6437 90.0559C35.6437 89.6225 35.2271 89.4059 34.3937 89.4059C31.7604 89.4059 25.4604 90.6059 15.4937 93.0059L22.8437 100.156L20.4438 102.456L11.8437 94.0559Z" fill="#FDFDFD"/>
<path d="M38.8438 71.7338V74.5938H20.6437V71.7338H28.4437V68.4838H20.6437V65.5718H38.8438V68.4838H31.0437V71.7338H38.8438ZM34.6577 60.8981C35.3164 60.8981 35.7844 60.7681 36.0617 60.5081C36.3217 60.2308 36.4517 59.8668 36.4517 59.4161C36.4517 58.9654 36.3217 58.6101 36.0617 58.3501C35.7844 58.0728 35.3164 57.9341 34.6577 57.9341H24.8297C24.1711 57.9341 23.7117 58.0728 23.4517 58.3501C23.1744 58.6101 23.0357 58.9654 23.0357 59.4161C23.0357 59.8668 23.1744 60.2308 23.4517 60.5081C23.7117 60.7681 24.1711 60.8981 24.8297 60.8981H34.6577ZM25.0117 63.7581C23.5384 63.7581 22.4117 63.3854 21.6317 62.6401C20.8344 61.8948 20.4357 60.8201 20.4357 59.4161C20.4357 58.0121 20.8344 56.9374 21.6317 56.1921C22.4117 55.4468 23.5384 55.0741 25.0117 55.0741H34.4757C35.9491 55.0741 37.0844 55.4468 37.8817 56.1921C38.6618 56.9374 39.0518 58.0121 39.0518 59.4161C39.0518 60.8201 38.6618 61.8948 37.8817 62.6401C37.0844 63.3854 35.9491 63.7581 34.4757 63.7581H25.0117ZM23.2437 49.1317C23.2437 49.6343 23.3911 50.007 23.6857 50.2497C23.9804 50.475 24.4571 50.5877 25.1158 50.5877H26.9097C27.6377 50.5877 28.1404 50.4403 28.4177 50.1457C28.6951 49.8337 28.8337 49.409 28.8337 48.8717V47.7537H23.2437V49.1317ZM38.8438 53.7857C38.4971 53.647 38.1591 53.5603 37.8297 53.5257C37.4831 53.491 37.0844 53.4737 36.6337 53.4737H33.8257C32.8724 53.4737 32.0664 53.3437 31.4077 53.0837C30.7317 52.8063 30.2464 52.3037 29.9517 51.5757C29.3624 52.8237 28.1317 53.4477 26.2597 53.4477H24.8297C23.4257 53.4477 22.3771 53.1183 21.6837 52.4597C20.9904 51.7837 20.6437 50.7003 20.6437 49.2097L20.6437 44.8937H38.8438V47.7537H31.4337V48.7417C31.4337 49.4003 31.6071 49.877 31.9537 50.1717C32.3004 50.4663 32.8984 50.6137 33.7477 50.6137H36.6077C36.9717 50.6137 37.2751 50.6223 37.5177 50.6397C37.7604 50.6397 37.9597 50.657 38.1157 50.6917C38.2717 50.709 38.4017 50.735 38.5057 50.7697C38.6097 50.8043 38.7224 50.839 38.8438 50.8737V53.7857ZM27.4817 39.9447V38.5927C27.4817 37.1541 27.8631 36.0881 28.6257 35.3947C29.3884 34.6841 30.5064 34.3287 31.9798 34.3287H34.3457C35.8191 34.3287 36.9371 34.6841 37.6997 35.3947C38.4624 36.0881 38.8438 37.1541 38.8438 38.5927V42.8047H20.6437V35.2387H23.2437L23.2437 39.9447H27.4817ZM36.2437 38.5927C36.2437 38.1421 36.1224 37.7954 35.8797 37.5527C35.6371 37.3101 35.1864 37.1887 34.5277 37.1887H31.7977C31.1391 37.1887 30.6884 37.3101 30.4457 37.5527C30.2031 37.7954 30.0817 38.1421 30.0817 38.5927V39.9447H36.2437V38.5927ZM20.6437 28.4365C20.6437 26.9978 21.0251 25.9318 21.7877 25.2385C22.5504 24.5278 23.6684 24.1725 25.1417 24.1725H27.5077C28.9811 24.1725 30.0991 24.5278 30.8617 25.2385C31.6244 25.9318 32.0057 26.9978 32.0057 28.4365V29.7885H38.8438V32.6485H20.6437V28.4365ZM23.2437 29.7885H29.4057V28.4365C29.4057 27.9858 29.2844 27.6391 29.0417 27.3965C28.7991 27.1538 28.3484 27.0325 27.6897 27.0325H24.9597C24.3011 27.0325 23.8504 27.1538 23.6077 27.3965C23.3651 27.6391 23.2437 27.9858 23.2437 28.4365V29.7885ZM23.2437 18.7391C23.2437 19.2418 23.3911 19.6144 23.6857 19.8571C23.9804 20.0824 24.4571 20.1951 25.1158 20.1951H26.9097C27.6377 20.1951 28.1404 20.0478 28.4177 19.7531C28.6951 19.4411 28.8337 19.0164 28.8337 18.4791V17.3611H23.2437V18.7391ZM38.8438 23.3931C38.4971 23.2544 38.1591 23.1678 37.8297 23.1331C37.4831 23.0984 37.0844 23.0811 36.6337 23.0811H33.8257C32.8724 23.0811 32.0664 22.9511 31.4077 22.6911C30.7317 22.4138 30.2464 21.9111 29.9517 21.1831C29.3624 22.4311 28.1317 23.0551 26.2597 23.0551H24.8297C23.4257 23.0551 22.3771 22.7258 21.6837 22.0671C20.9904 21.3911 20.6437 20.3078 20.6437 18.8171V14.5011H38.8438V17.3611H31.4337V18.3491C31.4337 19.0078 31.6071 19.4844 31.9537 19.7791C32.3004 20.0738 32.8984 20.2211 33.7477 20.2211H36.6077C36.9717 20.2211 37.2751 20.2298 37.5177 20.2471C37.7604 20.2471 37.9597 20.2644 38.1157 20.2991C38.2717 20.3164 38.4017 20.3424 38.5057 20.3771C38.6097 20.4118 38.7224 20.4464 38.8438 20.4811V23.3931Z" fill="#FDFDFD"/>
<rect x="67" width="236" height="136" rx="14" fill="#761614"/>
<path d="M84.0782 82.9883V38.9019H88.4868V54.521C90.7961 49.9445 93.4833 46.0816 96.5483 42.9326C99.6134 39.7416 102.594 38.1461 105.492 38.1461C107.003 38.1461 108.263 38.5869 109.27 39.4687C110.278 40.3504 110.782 41.568 110.782 43.1216C110.782 44.3392 110.215 45.7457 109.081 47.3413C107.99 48.8948 106.898 50.3853 105.806 51.8129C104.715 53.1985 104.169 54.2901 104.169 55.0879C104.169 55.8856 104.442 56.2845 104.988 56.2845C105.618 56.2845 106.436 55.7807 107.444 54.773C108.494 53.7233 109.669 52.6946 110.971 51.6869C112.272 50.6372 113.616 50.1124 115.002 50.1124C116.261 50.1124 117.374 50.5113 118.34 51.309C119.347 52.1068 119.851 53.1565 119.851 54.4581C119.851 55.6337 119.473 56.9353 118.717 58.3629C118.004 59.7484 117.248 60.9241 116.45 61.8898C115.694 62.8135 114.561 64.0941 113.049 65.7316C111.58 67.3691 110.593 68.4817 110.089 69.0696L107.948 65.5427C108.116 65.3327 108.536 64.8499 109.207 64.0941C109.879 63.3383 110.383 62.7715 110.719 62.3936C111.055 61.9738 111.517 61.4069 112.105 60.6931C112.692 59.9374 113.154 59.3286 113.49 58.8667C113.868 58.4048 114.246 57.901 114.624 57.3552C115.002 56.8093 115.275 56.3265 115.442 55.9066C115.61 55.4867 115.694 55.1509 115.694 54.8989C115.694 54.4791 115.463 54.2691 115.002 54.2691C114.456 54.2691 113.784 54.605 112.986 55.2768C112.23 55.9066 111.496 56.5994 110.782 57.3552C110.11 58.1109 109.228 58.8247 108.137 59.4965C107.087 60.1263 106.037 60.4412 104.988 60.4412C103.56 60.4412 102.364 59.9584 101.398 58.9927C100.474 57.985 100.012 56.6834 100.012 55.0879C100.012 53.9962 100.348 52.8206 101.02 51.561C101.734 50.3013 102.489 49.2097 103.287 48.286C104.127 47.3622 104.883 46.4385 105.555 45.5148C106.268 44.5911 106.625 43.8773 106.625 43.3735C106.625 42.6597 106.247 42.3028 105.492 42.3028C104.064 42.3028 102.406 43.1635 100.516 44.885C98.6267 46.5645 96.7792 48.7478 94.9738 51.435C95.6036 52.5267 97.43 55.8016 100.453 61.26C103.518 66.6763 106.31 71.6518 108.83 76.1864C111.391 80.721 112.692 82.9883 112.734 82.9883H107.696C107.696 82.7783 102.594 73.7511 92.3916 55.9066C90.2503 59.9374 88.9487 63.5483 88.4868 66.7393V82.9883H84.0782ZM123.75 82.9883V38.8389C124.59 38.8389 125.87 38.8599 127.592 38.9019C129.355 38.9019 130.678 38.9019 131.56 38.9019C133.911 38.9019 135.779 39.6576 137.165 41.1692C138.592 42.6807 139.306 44.3602 139.306 46.2076C139.306 48.097 138.613 50.6792 137.228 53.9542C135.842 57.1872 135.15 59.5595 135.15 61.071C135.15 61.7848 135.506 62.1417 136.22 62.1417C136.724 62.1417 137.165 61.4909 137.543 60.1893C137.963 58.8457 138.341 57.3972 138.676 55.8436C139.054 54.2481 139.726 52.7996 140.692 51.498C141.7 50.1544 142.959 49.4826 144.471 49.4826C145.562 49.4826 146.486 49.7345 147.242 50.2384C147.998 50.7002 148.543 51.2251 148.879 51.8129C149.257 52.4007 149.53 53.1985 149.698 54.2061C149.908 55.1718 150.013 55.9066 150.013 56.4105C150.055 56.8723 150.076 57.5021 150.076 58.2999C150.076 63.1284 148.669 67.4111 145.856 71.1479C143.043 74.8428 139.621 76.6902 135.59 76.6902C133.071 76.6902 130.594 75.7455 128.159 73.8561V82.9883H123.75ZM131.56 42.9956H128.159V68.2508C130.552 71.1479 133.029 72.5965 135.59 72.5965C138.236 72.5965 140.629 71.2109 142.77 68.4398C144.912 65.6266 145.982 62.2467 145.982 58.2999C145.982 56.8723 145.898 55.7807 145.73 55.0249C145.562 54.2691 145.394 53.8493 145.226 53.7653C145.058 53.6393 144.828 53.5763 144.534 53.5763C143.988 53.5763 143.505 54.2481 143.085 55.5917C142.665 56.8933 142.266 58.3419 141.888 59.9374C141.553 61.4909 140.902 62.9395 139.936 64.283C138.97 65.5846 137.732 66.2354 136.22 66.2354C134.919 66.2354 133.722 65.7736 132.63 64.8499C131.581 63.9261 131.056 62.6665 131.056 61.071C131.056 59.0556 131.749 56.4105 133.134 53.1355C134.52 49.8605 135.213 47.5512 135.213 46.2076C135.213 45.4098 134.877 44.6751 134.205 44.0033C133.575 43.3315 132.693 42.9956 131.56 42.9956ZM156.744 82.9883H152.399C153.574 78.6216 155.044 72.7644 156.807 65.4167C158.613 58.069 160.124 51.8129 161.342 46.6485L163.106 38.9019H171.23C175.765 58.5098 179.334 73.2053 181.937 82.9883H177.528L175.072 73.0373C174.358 73.7931 173.77 74.3809 173.308 74.8008C172.889 75.2207 172.259 75.6615 171.419 76.1234C170.579 76.5853 169.739 76.8162 168.9 76.8162C167.808 76.8162 166.905 76.4383 166.192 75.6825C165.478 74.9268 165.121 74.045 165.121 73.0373C165.121 72.1976 165.394 71.1689 165.94 69.9513C166.485 68.6917 166.758 67.9149 166.758 67.621C166.758 67.0332 166.423 66.7393 165.751 66.7393C165.247 66.7393 164.491 67.3481 163.483 68.5657C162.476 69.7414 161.636 70.833 160.964 71.8407C160.334 72.8064 159.789 73.6672 159.327 74.4229L158.571 75.5566L156.744 82.9883ZM169.718 72.7854C170.768 72.7854 172.154 71.3998 173.875 68.6287L174.001 68.3768L167.829 42.9956H166.506L160.775 66.4244C162.581 63.9471 164.449 62.7085 166.381 62.7085C167.472 62.7085 168.396 63.0444 169.152 63.7162C169.907 64.388 170.285 65.2907 170.285 66.4244C170.285 67.1382 170.054 68.0829 169.593 69.2585C169.131 70.4341 168.9 71.3159 168.9 71.9037C168.9 72.1136 168.984 72.3236 169.152 72.5335C169.32 72.7014 169.509 72.7854 169.718 72.7854ZM209.048 68.9436H213.457C213.457 72.8904 212.176 76.4383 209.615 79.5873C207.096 82.6944 203.464 84.2479 198.719 84.2479C195.654 84.2479 192.946 83.0723 190.595 80.721C188.285 78.3277 186.585 75.4096 185.493 71.9667C184.402 68.4817 183.856 64.7869 183.856 60.8821C183.856 57.1872 184.381 53.6183 185.43 50.1754C186.522 46.7324 188.222 43.8143 190.532 41.4211C192.883 38.9858 195.591 37.7682 198.656 37.7682C201.175 37.7682 203.317 38.419 205.08 39.7206C206.886 40.9802 207.788 42.7017 207.788 44.885C207.788 46.6905 206.256 49.1677 203.191 52.3167C200.42 55.0879 199.034 56.7674 199.034 57.3552C199.034 58.069 199.349 58.4258 199.979 58.4258C200.189 58.4258 200.462 58.2999 200.797 58.048C201.175 57.754 201.679 57.3132 202.309 56.7254C202.939 56.1375 203.443 55.6967 203.821 55.4028C203.905 55.3188 204.051 55.1928 204.261 55.0249C206.319 53.4294 207.767 52.5686 208.607 52.4427C209.657 52.4427 210.517 52.7156 211.189 53.2614C211.903 53.8073 212.407 54.584 212.701 55.5917C212.995 56.5994 213.163 57.6071 213.205 58.6148C213.289 59.6225 213.31 60.8191 213.268 62.2047H209.048C209.048 61.9947 209.048 61.6379 209.048 61.134C209.048 60.5882 209.048 60.1263 209.048 59.7484C209.048 59.3286 209.027 58.9087 208.985 58.4888C208.943 58.069 208.838 57.754 208.67 57.5441C208.502 57.2922 208.292 57.1662 208.04 57.1662C207.83 57.1662 207.599 57.2712 207.347 57.4811C207.096 57.6491 206.697 58.006 206.151 58.5518C205.605 59.0976 205.206 59.4755 204.954 59.6855C202.813 61.6588 201.07 62.6455 199.727 62.6455C198.131 62.6455 196.893 62.2257 196.011 61.3859C195.171 60.5042 194.751 59.2866 194.751 57.7331C194.751 55.9276 196.41 53.4084 199.727 50.1754C202.162 47.7401 203.38 46.1026 203.38 45.2629C203.38 43.1216 201.805 42.0509 198.656 42.0509C196.893 42.0509 195.297 42.6597 193.87 43.8773C192.484 45.053 191.392 46.6065 190.595 48.5379C189.839 50.4693 189.251 52.5057 188.831 54.647C188.453 56.7464 188.264 58.8457 188.264 60.9451C188.264 63.9681 188.642 66.9072 189.398 69.7624C190.154 72.6175 191.35 75.0737 192.988 77.1311C194.625 79.1465 196.536 80.1542 198.719 80.1542C201.574 80.1542 204.009 78.9995 206.025 76.6902C208.04 74.3809 209.048 71.7987 209.048 68.9436ZM218.465 82.9883V38.9019H222.874V54.521C225.183 49.9445 227.871 46.0816 230.936 42.9326C234.001 39.7416 236.982 38.1461 239.879 38.1461C241.39 38.1461 242.65 38.5869 243.658 39.4687C244.665 40.3504 245.169 41.568 245.169 43.1216C245.169 44.3392 244.602 45.7457 243.469 47.3413C242.377 48.8948 241.285 50.3853 240.194 51.8129C239.102 53.1985 238.556 54.2901 238.556 55.0879C238.556 55.8856 238.829 56.2845 239.375 56.2845C240.005 56.2845 240.824 55.7807 241.831 54.773C242.881 53.7233 244.057 52.6946 245.358 51.6869C246.66 50.6372 248.003 50.1124 249.389 50.1124C250.649 50.1124 251.761 50.5113 252.727 51.309C253.735 52.1068 254.238 53.1565 254.238 54.4581C254.238 55.6337 253.861 56.9353 253.105 58.3629C252.391 59.7484 251.635 60.9241 250.838 61.8898C250.082 62.8135 248.948 64.0941 247.437 65.7316C245.967 67.3691 244.98 68.4817 244.476 69.0696L242.335 65.5427C242.503 65.3327 242.923 64.8499 243.595 64.0941C244.267 63.3383 244.77 62.7715 245.106 62.3936C245.442 61.9738 245.904 61.4069 246.492 60.6931C247.08 59.9374 247.542 59.3286 247.877 58.8667C248.255 58.4048 248.633 57.901 249.011 57.3552C249.389 56.8093 249.662 56.3265 249.83 55.9066C249.998 55.4867 250.082 55.1509 250.082 54.8989C250.082 54.4791 249.851 54.2691 249.389 54.2691C248.843 54.2691 248.171 54.605 247.374 55.2768C246.618 55.9066 245.883 56.5994 245.169 57.3552C244.497 58.1109 243.616 58.8247 242.524 59.4965C241.474 60.1263 240.425 60.4412 239.375 60.4412C237.947 60.4412 236.751 59.9584 235.785 58.9927C234.861 57.985 234.4 56.6834 234.4 55.0879C234.4 53.9962 234.735 52.8206 235.407 51.561C236.121 50.3013 236.877 49.2097 237.675 48.286C238.514 47.3622 239.27 46.4385 239.942 45.5148C240.656 44.5911 241.013 43.8773 241.013 43.3735C241.013 42.6597 240.635 42.3028 239.879 42.3028C238.451 42.3028 236.793 43.1635 234.903 44.885C233.014 46.5645 231.167 48.7478 229.361 51.435C229.991 52.5267 231.817 55.8016 234.84 61.26C237.906 66.6763 240.698 71.6518 243.217 76.1864C245.778 80.721 247.08 82.9883 247.122 82.9883H242.083C242.083 82.7783 236.982 73.7511 226.779 55.9066C224.638 59.9374 223.336 63.5483 222.874 66.7393V82.9883H218.465ZM258.074 82.9883V38.9648H262.483V78.5796H267.584C268.256 78.5796 268.823 78.2857 269.285 77.6979C269.747 77.1101 269.978 76.4173 269.978 75.6195C269.978 75.1997 269.915 74.7588 269.789 74.297C269.663 73.8351 269.453 73.3313 269.159 72.7854C268.907 72.1976 268.655 71.7148 268.403 71.3369C268.193 70.959 267.857 70.4132 267.396 69.6994C266.976 68.9436 266.661 68.3978 266.451 68.0619C264.981 65.5846 264.246 63.4853 264.246 61.7638C264.246 60.3363 264.645 59.1606 265.443 58.2369C266.283 57.2712 267.375 56.7883 268.718 56.7883C270.188 56.7883 271.573 57.775 272.875 59.7484C273.001 59.9164 273.169 60.2103 273.379 60.6302C273.631 61.008 273.841 61.323 274.008 61.5749C274.176 61.8268 274.365 62.0787 274.575 62.3306C274.827 62.5406 275.037 62.6455 275.205 62.6455C275.667 62.6455 275.898 62.3726 275.898 61.8268C275.898 61.197 274.722 58.2789 272.371 53.0725C270.775 49.5456 269.978 46.7954 269.978 44.822C269.978 43.0586 270.524 41.652 271.615 40.6023C272.749 39.5107 274.281 38.9648 276.213 38.9648H286.227V82.9883H281.881V43.3735H276.402C275.058 43.3735 274.386 43.8563 274.386 44.822C274.386 46.4595 275.352 49.2517 277.283 53.1985C279.173 56.9773 280.118 59.7694 280.118 61.5749C280.118 63.2124 279.761 64.5769 279.047 65.6686C278.333 66.7183 277.346 67.2431 276.087 67.2431C274.281 67.2431 272.728 66.2564 271.426 64.283C271.3 64.0731 271.132 63.8002 270.922 63.4643C270.754 63.1284 270.587 62.8555 270.419 62.6455C270.293 62.3936 270.146 62.1627 269.978 61.9528C269.81 61.7008 269.642 61.5119 269.474 61.3859C269.306 61.26 269.138 61.197 268.97 61.197C268.466 61.197 268.214 61.5119 268.214 62.1417C268.214 63.4013 268.886 64.9968 270.23 66.9282C270.356 67.0962 270.587 67.4321 270.922 67.9359C271.258 68.4398 271.489 68.8176 271.615 69.0696C271.783 69.2795 272.014 69.6154 272.308 70.0773C272.644 70.5391 272.875 70.917 273.001 71.2109C273.169 71.5048 273.358 71.8827 273.568 72.3446C273.778 72.7644 273.924 73.1633 274.008 73.5412C274.092 73.8771 274.176 74.255 274.26 74.6748C274.344 75.0947 274.386 75.4936 274.386 75.8715C274.386 77.7189 273.736 79.3774 272.434 80.8469C271.174 82.2745 269.558 82.9883 267.584 82.9883H258.074Z" fill="#FDFDFD"/>
<path d="M88.468 115.388C89.464 115.388 90.202 115.652 90.682 116.18C91.174 116.708 91.42 117.482 91.42 118.502V120.14C91.42 121.16 91.174 121.934 90.682 122.462C90.202 122.99 89.464 123.254 88.468 123.254H87.532V127.988H85.552V115.388H88.468ZM87.532 117.188V121.454H88.468C88.78 121.454 89.02 121.37 89.188 121.202C89.356 121.034 89.44 120.722 89.44 120.266V118.376C89.44 117.92 89.356 117.608 89.188 117.44C89.02 117.272 88.78 117.188 88.468 117.188H87.532ZM98.7096 127.988H96.7116L96.3696 125.702H93.9396L93.5976 127.988H91.7796L93.7956 115.388H96.6936L98.7096 127.988ZM94.1916 123.992H96.0996L95.1456 117.62L94.1916 123.992ZM103.359 118.484C103.359 117.92 103.263 117.542 103.071 117.35C102.891 117.146 102.645 117.044 102.333 117.044C102.021 117.044 101.769 117.14 101.577 117.332C101.397 117.512 101.307 117.83 101.307 118.286V119.636H99.4345V118.412C99.4345 117.392 99.6805 116.612 100.173 116.072C100.677 115.52 101.415 115.244 102.387 115.244C103.359 115.244 104.091 115.52 104.583 116.072C105.087 116.612 105.339 117.392 105.339 118.412V118.736C105.339 120.08 104.877 120.944 103.953 121.328C104.457 121.544 104.811 121.88 105.015 122.336C105.231 122.78 105.339 123.326 105.339 123.974V124.964C105.339 125.984 105.087 126.77 104.583 127.322C104.091 127.862 103.359 128.132 102.387 128.132C101.415 128.132 100.677 127.862 100.173 127.322C99.6805 126.77 99.4345 125.984 99.4345 124.964V123.38H101.307V125.09C101.307 125.546 101.397 125.87 101.577 126.062C101.769 126.242 102.021 126.332 102.333 126.332C102.645 126.332 102.891 126.236 103.071 126.044C103.263 125.852 103.359 125.474 103.359 124.91V123.92C103.359 123.332 103.257 122.918 103.053 122.678C102.849 122.438 102.519 122.318 102.063 122.318H101.757V120.518H102.171C102.543 120.518 102.831 120.422 103.035 120.23C103.251 120.038 103.359 119.69 103.359 119.186V118.484ZM109.509 115.388C110.505 115.388 111.243 115.652 111.723 116.18C112.215 116.708 112.461 117.482 112.461 118.502V120.14C112.461 121.16 112.215 121.934 111.723 122.462C111.243 122.99 110.505 123.254 109.509 123.254H108.573V127.988H106.593V115.388H109.509ZM108.573 117.188V121.454H109.509C109.821 121.454 110.061 121.37 110.229 121.202C110.397 121.034 110.481 120.722 110.481 120.266V118.376C110.481 117.92 110.397 117.608 110.229 117.44C110.061 117.272 109.821 117.188 109.509 117.188H108.573ZM113.901 126.188C114.009 126.2 114.123 126.206 114.243 126.206C114.363 126.206 114.477 126.206 114.585 126.206C114.741 126.206 114.885 126.188 115.017 126.152C115.161 126.116 115.281 126.05 115.377 125.954C115.485 125.858 115.563 125.72 115.611 125.54C115.671 125.36 115.701 125.132 115.701 124.856L112.821 115.388H114.801L116.979 122.768L118.779 115.388H120.759L118.167 124.676C117.939 125.54 117.705 126.206 117.465 126.674C117.237 127.13 116.991 127.46 116.727 127.664C116.463 127.856 116.175 127.964 115.863 127.988C115.563 128.012 115.227 128.024 114.855 128.024C114.675 128.024 114.513 128.024 114.369 128.024C114.225 128.024 114.069 128.012 113.901 127.988V126.188ZM127.22 126.188H128.822V115.388H130.82V127.988H121.658V115.388H123.62V126.188H125.24V115.388H127.22V126.188ZM134.237 120.698H136.955V122.498H134.237V126.188H137.657V127.988H132.257V115.388H137.657V117.188H134.237V120.698ZM140.811 127.988H138.831V115.388H140.811V120.788H143.061V115.388H145.077V127.988H143.061V122.588H140.811V127.988ZM148.493 127.988H146.513V115.388H148.493V120.788H150.743V115.388H152.759V127.988H150.743V122.588H148.493V127.988ZM157.111 126.188C157.423 126.188 157.663 126.104 157.831 125.936C157.999 125.768 158.083 125.456 158.083 125V123.11C158.083 122.654 157.999 122.342 157.831 122.174C157.663 122.006 157.423 121.922 157.111 121.922H156.175V126.188H157.111ZM154.195 127.988V115.388H156.175V120.122H157.111C158.107 120.122 158.845 120.386 159.325 120.914C159.817 121.442 160.063 122.216 160.063 123.236V124.874C160.063 125.894 159.817 126.668 159.325 127.196C158.845 127.724 158.107 127.988 157.111 127.988H154.195ZM161.035 115.388H163.015V127.988H161.035V115.388ZM166.494 127.988H164.46V115.388H166.224V122.93L168.258 115.388H170.742V127.988H168.96V118.862L166.494 127.988ZM169.806 113.21V114.686H165.45V113.21H169.806ZM179.184 124.334L180.534 115.388H183.288V127.988H181.416V118.952L180.048 127.988H178.176L176.7 119.078V127.988H174.972V115.388H177.726L179.184 124.334ZM186.528 125.09C186.528 125.546 186.618 125.87 186.798 126.062C186.99 126.242 187.242 126.332 187.554 126.332C187.866 126.332 188.112 126.242 188.292 126.062C188.484 125.87 188.58 125.546 188.58 125.09V118.286C188.58 117.83 188.484 117.512 188.292 117.332C188.112 117.14 187.866 117.044 187.554 117.044C187.242 117.044 186.99 117.14 186.798 117.332C186.618 117.512 186.528 117.83 186.528 118.286V125.09ZM184.548 118.412C184.548 117.392 184.806 116.612 185.322 116.072C185.838 115.52 186.582 115.244 187.554 115.244C188.526 115.244 189.27 115.52 189.786 116.072C190.302 116.612 190.56 117.392 190.56 118.412V124.964C190.56 125.984 190.302 126.77 189.786 127.322C189.27 127.862 188.526 128.132 187.554 128.132C186.582 128.132 185.838 127.862 185.322 127.322C184.806 126.77 184.548 125.984 184.548 124.964V118.412ZM197.536 123.29V124.964C197.536 125.984 197.284 126.77 196.78 127.322C196.288 127.862 195.556 128.132 194.584 128.132C193.612 128.132 192.874 127.862 192.37 127.322C191.878 126.77 191.632 125.984 191.632 124.964V118.412C191.632 117.392 191.878 116.612 192.37 116.072C192.874 115.52 193.612 115.244 194.584 115.244C195.556 115.244 196.288 115.52 196.78 116.072C197.284 116.612 197.536 117.392 197.536 118.412V119.636H195.664V118.286C195.664 117.83 195.568 117.512 195.376 117.332C195.196 117.14 194.95 117.044 194.638 117.044C194.326 117.044 194.074 117.14 193.882 117.332C193.702 117.512 193.612 117.83 193.612 118.286V125.09C193.612 125.546 193.702 125.864 193.882 126.044C194.074 126.224 194.326 126.314 194.638 126.314C194.95 126.314 195.196 126.224 195.376 126.044C195.568 125.864 195.664 125.546 195.664 125.09V123.29H197.536ZM201.382 122.966L200.77 124.118V127.988H198.79V115.388H200.77V120.878L203.398 115.388H205.342L202.588 121.004L205.342 127.988H203.308L201.382 122.966ZM208.043 125.09C208.043 125.546 208.133 125.87 208.313 126.062C208.505 126.242 208.757 126.332 209.069 126.332C209.381 126.332 209.627 126.242 209.807 126.062C209.999 125.87 210.095 125.546 210.095 125.09V118.286C210.095 117.83 209.999 117.512 209.807 117.332C209.627 117.14 209.381 117.044 209.069 117.044C208.757 117.044 208.505 117.14 208.313 117.332C208.133 117.512 208.043 117.83 208.043 118.286V125.09ZM206.063 118.412C206.063 117.392 206.321 116.612 206.837 116.072C207.353 115.52 208.097 115.244 209.069 115.244C210.041 115.244 210.785 115.52 211.301 116.072C211.817 116.612 212.075 117.392 212.075 118.412V124.964C212.075 125.984 211.817 126.77 211.301 127.322C210.785 127.862 210.041 128.132 209.069 128.132C208.097 128.132 207.353 127.862 206.837 127.322C206.321 126.77 206.063 125.984 206.063 124.964V118.412ZM216.315 115.388C217.347 115.388 218.091 115.628 218.547 116.108C219.015 116.588 219.249 117.314 219.249 118.286V118.736C219.249 119.384 219.147 119.918 218.943 120.338C218.739 120.758 218.415 121.07 217.971 121.274C218.511 121.478 218.889 121.814 219.105 122.282C219.333 122.738 219.447 123.302 219.447 123.974V125C219.447 125.972 219.195 126.716 218.691 127.232C218.187 127.736 217.437 127.988 216.441 127.988H213.327V115.388H216.315ZM215.307 122.318V126.188H216.441C216.777 126.188 217.029 126.098 217.197 125.918C217.377 125.738 217.467 125.414 217.467 124.946V123.848C217.467 123.26 217.365 122.858 217.161 122.642C216.969 122.426 216.645 122.318 216.189 122.318H215.307ZM215.307 117.188V120.518H216.081C216.453 120.518 216.741 120.422 216.945 120.23C217.161 120.038 217.269 119.69 217.269 119.186V118.484C217.269 118.028 217.185 117.698 217.017 117.494C216.861 117.29 216.609 117.188 216.261 117.188H215.307ZM226.346 123.29V124.964C226.346 125.984 226.094 126.77 225.59 127.322C225.098 127.862 224.366 128.132 223.394 128.132C222.422 128.132 221.684 127.862 221.18 127.322C220.688 126.77 220.442 125.984 220.442 124.964V118.412C220.442 117.392 220.688 116.612 221.18 116.072C221.684 115.52 222.422 115.244 223.394 115.244C224.366 115.244 225.098 115.52 225.59 116.072C226.094 116.612 226.346 117.392 226.346 118.412V119.636H224.474V118.286C224.474 117.83 224.378 117.512 224.186 117.332C224.006 117.14 223.76 117.044 223.448 117.044C223.136 117.044 222.884 117.14 222.692 117.332C222.512 117.512 222.422 117.83 222.422 118.286V125.09C222.422 125.546 222.512 125.864 222.692 126.044C222.884 126.224 223.136 126.314 223.448 126.314C223.76 126.314 224.006 126.224 224.186 126.044C224.378 125.864 224.474 125.546 224.474 125.09V123.29H226.346ZM230.193 122.966L229.581 124.118V127.988H227.601V115.388H229.581V120.878L232.209 115.388H234.153L231.399 121.004L234.153 127.988H232.119L230.193 122.966ZM237.088 127.988H235.054V115.388H236.818V122.93L238.852 115.388H241.336V127.988H239.554V118.862L237.088 127.988ZM244.805 127.988H242.771V115.388H244.535V122.93L246.569 115.388H249.053V127.988H247.271V118.862L244.805 127.988ZM248.117 113.21V114.686H243.761V113.21H248.117ZM252.743 115.388H258.863V117.188H256.793V127.988H254.812V117.188H252.743V115.388ZM261.749 120.698H264.467V122.498H261.749V126.188H265.169V127.988H259.769V115.388H265.169V117.188H261.749V120.698ZM272.733 127.988H270.735L270.393 125.702H267.963L267.621 127.988H265.803L267.819 115.388H270.717L272.733 127.988ZM268.215 123.992H270.123L269.169 117.62L268.215 123.992ZM273.098 115.388H279.218V117.188H277.148V127.988H275.168V117.188H273.098V115.388ZM283.04 115.388C284.036 115.388 284.774 115.652 285.254 116.18C285.746 116.708 285.992 117.482 285.992 118.502V120.14C285.992 121.16 285.746 121.934 285.254 122.462C284.774 122.99 284.036 123.254 283.04 123.254H282.104V127.988H280.124V115.388H283.04ZM282.104 117.188V121.454H283.04C283.352 121.454 283.592 121.37 283.76 121.202C283.928 121.034 284.012 120.722 284.012 120.266V118.376C284.012 117.92 283.928 117.608 283.76 117.44C283.592 117.272 283.352 117.188 283.04 117.188H282.104Z" fill="#FDFDFD"/>
</svg>
