<svg width="303" height="136" viewBox="0 0 303 136" fill="none" xmlns="http://www.w3.org/2000/svg">
<rect width="59" height="136" rx="14" transform="matrix(1 0 0 -1 0 136)" fill="#761614"/>
<path d="M12.1719 113.286V109.586C12.3052 109.52 13.8385 109.12 16.7719 108.386C19.6719 107.653 23.0052 106.903 26.7719 106.136C30.5385 105.37 33.1885 104.986 34.7219 104.986C36.2219 104.986 37.4219 105.386 38.3219 106.186C39.2219 106.953 39.6719 107.953 39.6719 109.186C39.6719 110.42 39.1719 111.403 38.1719 112.136C37.1719 112.836 35.7885 113.47 34.0219 114.036C33.5885 114.17 33.0552 114.336 32.4219 114.536C31.7885 114.703 31.2885 114.853 30.9219 114.986C30.5219 115.086 30.1385 115.22 29.7719 115.386C29.3719 115.52 29.0885 115.653 28.9219 115.786C28.7219 115.92 28.6219 116.053 28.6219 116.186C28.6219 116.586 29.2719 116.786 30.5719 116.786C32.3385 116.786 34.8052 116.32 37.9719 115.386C41.1052 114.42 43.8719 113.32 46.2719 112.086L47.1719 111.636V115.736C44.5719 117.003 41.6552 118.103 38.4219 119.036C35.1885 119.936 32.5719 120.386 30.5719 120.386C28.9052 120.386 27.5719 120.036 26.5719 119.336C25.5385 118.603 25.0219 117.636 25.0219 116.436C25.0219 115.236 25.5052 114.286 26.4719 113.586C27.4052 112.886 28.7219 112.236 30.4219 111.636C30.8885 111.47 31.4385 111.286 32.0719 111.086C32.6719 110.886 33.1885 110.736 33.6219 110.636C34.0219 110.503 34.4219 110.37 34.8219 110.236C35.1885 110.07 35.4719 109.92 35.6719 109.786C35.8719 109.62 35.9719 109.453 35.9719 109.286C35.9719 108.853 35.5552 108.636 34.7219 108.636C32.0885 108.636 25.7885 109.836 15.8219 112.236L23.1719 119.386L20.7719 121.686L12.1719 113.286ZM12.1719 93.9992V90.2992C12.3052 90.2326 13.8385 89.8326 16.7719 89.0992C19.6719 88.3659 23.0052 87.6159 26.7719 86.8492C30.5385 86.0826 33.1885 85.6992 34.7219 85.6992C36.2219 85.6992 37.4219 86.0992 38.3219 86.8992C39.2219 87.6659 39.6719 88.6659 39.6719 89.8992C39.6719 91.1326 39.1719 92.1159 38.1719 92.8492C37.1719 93.5492 35.7885 94.1826 34.0219 94.7492C33.5885 94.8826 33.0552 95.0492 32.4219 95.2492C31.7885 95.4159 31.2885 95.5659 30.9219 95.6992C30.5219 95.7992 30.1385 95.9326 29.7719 96.0992C29.3719 96.2326 29.0885 96.3659 28.9219 96.4992C28.7219 96.6326 28.6219 96.7659 28.6219 96.8992C28.6219 97.2992 29.2719 97.4992 30.5719 97.4992C32.3385 97.4992 34.8052 97.0326 37.9719 96.0992C41.1052 95.1326 43.8719 94.0326 46.2719 92.7992L47.1719 92.3492V96.4492C44.5719 97.7159 41.6552 98.8159 38.4219 99.7492C35.1885 100.649 32.5719 101.099 30.5719 101.099C28.9052 101.099 27.5719 100.749 26.5719 100.049C25.5385 99.3159 25.0219 98.3492 25.0219 97.1492C25.0219 95.9492 25.5052 94.9992 26.4719 94.2992C27.4052 93.5992 28.7219 92.9492 30.4219 92.3492C30.8885 92.1826 31.4385 91.9992 32.0719 91.7992C32.6719 91.5992 33.1885 91.4492 33.6219 91.3492C34.0219 91.2159 34.4219 91.0826 34.8219 90.9492C35.1885 90.7826 35.4719 90.6326 35.6719 90.4992C35.8719 90.3326 35.9719 90.1659 35.9719 89.9992C35.9719 89.5659 35.5552 89.3492 34.7219 89.3492C32.0885 89.3492 25.7885 90.5492 15.8219 92.9492L23.1719 100.099L20.7719 102.399L12.1719 93.9992Z" fill="#FDFDFD"/>
<path d="M39.1719 71.6771V74.5371H20.9719V71.6771H28.7719V68.4271H20.9719V65.5151H39.1719V68.4271H31.3719V71.6771H39.1719ZM34.9859 60.8414C35.6445 60.8414 36.1125 60.7114 36.3899 60.4514C36.6499 60.1741 36.7799 59.8101 36.7799 59.3594C36.7799 58.9088 36.6499 58.5534 36.3899 58.2934C36.1125 58.0161 35.6445 57.8774 34.9859 57.8774H25.1579C24.4992 57.8774 24.0399 58.0161 23.7799 58.2934C23.5025 58.5534 23.3639 58.9088 23.3639 59.3594C23.3639 59.8101 23.5025 60.1741 23.7799 60.4514C24.0399 60.7114 24.4992 60.8414 25.1579 60.8414H34.9859ZM25.3399 63.7014C23.8665 63.7014 22.7399 63.3288 21.9599 62.5834C21.1625 61.8381 20.7639 60.7634 20.7639 59.3594C20.7639 57.9554 21.1625 56.8808 21.9599 56.1354C22.7399 55.3901 23.8665 55.0174 25.3399 55.0174H34.8039C36.2772 55.0174 37.4125 55.3901 38.2099 56.1354C38.9899 56.8808 39.3799 57.9554 39.3799 59.3594C39.3799 60.7634 38.9899 61.8381 38.2099 62.5834C37.4125 63.3288 36.2772 63.7014 34.8039 63.7014H25.3399ZM23.5719 49.075C23.5719 49.5777 23.7192 49.9504 24.0139 50.193C24.3085 50.4184 24.7852 50.531 25.4439 50.531H27.2379C27.9659 50.531 28.4685 50.3837 28.7459 50.089C29.0232 49.777 29.1619 49.3524 29.1619 48.815V47.697H23.5719V49.075ZM39.1719 53.729C38.8252 53.5904 38.4872 53.5037 38.1579 53.469C37.8112 53.4344 37.4125 53.417 36.9619 53.417H34.1539C33.2005 53.417 32.3945 53.287 31.7359 53.027C31.0599 52.7497 30.5745 52.247 30.2799 51.519C29.6905 52.767 28.4599 53.391 26.5879 53.391H25.1579C23.7539 53.391 22.7052 53.0617 22.0119 52.403C21.3185 51.727 20.9719 50.6437 20.9719 49.153V44.837H39.1719V47.697H31.7619V48.685C31.7619 49.3437 31.9352 49.8204 32.2819 50.115C32.6285 50.4097 33.2265 50.557 34.0759 50.557H36.9359C37.2999 50.557 37.6032 50.5657 37.8459 50.583C38.0885 50.583 38.2879 50.6004 38.4439 50.635C38.5999 50.6524 38.7299 50.6784 38.8339 50.713C38.9379 50.7477 39.0505 50.7824 39.1719 50.817V53.729ZM27.8099 39.8881V38.5361C27.8099 37.0974 28.1912 36.0314 28.9539 35.3381C29.7165 34.6274 30.8345 34.2721 32.3079 34.2721L34.6739 34.2721C36.1472 34.2721 37.2652 34.6274 38.0279 35.3381C38.7905 36.0314 39.1719 37.0974 39.1719 38.5361L39.1719 42.7481L20.9719 42.7481L20.9719 35.1821H23.5719L23.5719 39.8881H27.8099ZM36.5719 38.5361C36.5719 38.0854 36.4505 37.7388 36.2079 37.4961C35.9652 37.2534 35.5145 37.1321 34.8559 37.1321L32.1259 37.1321C31.4672 37.1321 31.0165 37.2534 30.7739 37.4961C30.5312 37.7388 30.4099 38.0854 30.4099 38.5361V39.8881L36.5719 39.8881V38.5361ZM20.9719 28.3798C20.9719 26.9412 21.3532 25.8752 22.1159 25.1818C22.8785 24.4712 23.9965 24.1158 25.4699 24.1158H27.8359C29.3092 24.1158 30.4272 24.4712 31.1899 25.1818C31.9525 25.8752 32.3339 26.9412 32.3339 28.3798V29.7318L39.1719 29.7318V32.5918L20.9719 32.5918V28.3798ZM23.5719 29.7318H29.7339V28.3798C29.7339 27.9292 29.6125 27.5825 29.3699 27.3398C29.1272 27.0972 28.6765 26.9758 28.0179 26.9758H25.2879C24.6292 26.9758 24.1785 27.0972 23.9359 27.3398C23.6932 27.5825 23.5719 27.9292 23.5719 28.3798L23.5719 29.7318ZM23.5719 18.6824C23.5719 19.1851 23.7192 19.5578 24.0139 19.8004C24.3085 20.0258 24.7852 20.1384 25.4439 20.1384H27.2379C27.9659 20.1384 28.4685 19.9911 28.7459 19.6964C29.0232 19.3844 29.1619 18.9598 29.1619 18.4224V17.3044H23.5719V18.6824ZM39.1719 23.3364C38.8252 23.1978 38.4872 23.1111 38.1579 23.0764C37.8112 23.0418 37.4125 23.0244 36.9619 23.0244H34.1539C33.2005 23.0244 32.3945 22.8944 31.7359 22.6344C31.0599 22.3571 30.5745 21.8544 30.2799 21.1264C29.6905 22.3744 28.4599 22.9984 26.5879 22.9984H25.1579C23.7539 22.9984 22.7052 22.6691 22.0119 22.0104C21.3185 21.3344 20.9719 20.2511 20.9719 18.7604V14.4444L39.1719 14.4444V17.3044L31.7619 17.3044V18.2924C31.7619 18.9511 31.9352 19.4278 32.2819 19.7224C32.6285 20.0171 33.2265 20.1644 34.0759 20.1644H36.9359C37.2999 20.1644 37.6032 20.1731 37.8459 20.1904C38.0885 20.1904 38.2879 20.2078 38.4439 20.2424C38.5999 20.2598 38.7299 20.2858 38.8339 20.3204C38.9379 20.3551 39.0505 20.3898 39.1719 20.4244V23.3364Z" fill="#FDFDFD"/>
<rect width="236" height="136" rx="14" transform="matrix(1 0 0 -1 67 136)" fill="#761614"/>
<path d="M280.267 53.0137V97.1001H275.922L275.859 81.3549H270.065C269.225 86.1835 267.566 90.2142 265.089 93.4472C262.612 96.7222 259.526 98.3597 255.831 98.3597C254.277 98.3597 253.039 97.9608 252.115 97.1631C251.149 96.3653 250.541 95.4836 250.289 94.5179C249.995 93.5942 249.848 92.5655 249.848 91.4318C249.848 88.9126 251.527 84.0841 254.886 76.9463C255.054 76.7364 255.621 75.3508 256.587 72.7896C257.51 70.2284 257.972 68.6749 257.972 68.129C257.972 67.3313 257.678 66.9324 257.091 66.9324C256.923 66.9324 256.734 67.1213 256.524 67.4992C256.272 67.8771 255.999 68.4229 255.705 69.1367C255.369 69.8925 255.075 70.6063 254.823 71.2781C254.571 71.9498 254.277 72.7686 253.942 73.7343C253.564 74.742 253.291 75.4768 253.123 75.9386C253.039 76.1905 252.85 76.6944 252.556 77.4501C252.262 78.2479 252.052 78.8357 251.926 79.2136C251.758 79.5915 251.527 80.1163 251.233 80.7881C250.897 81.5019 250.604 82.0477 250.352 82.4256C250.058 82.8035 249.722 83.2024 249.344 83.6223C248.966 84.0421 248.567 84.336 248.147 84.504C247.685 84.7139 247.203 84.8189 246.699 84.8189C245.019 84.8189 243.655 83.8742 242.605 81.9848C241.555 80.0953 241.031 77.786 241.031 75.0569C241.031 71.2361 241.576 67.5832 242.668 64.0983C243.718 60.6553 245.397 57.7372 247.706 55.344C250.016 52.9507 252.724 51.7541 255.831 51.7541C258.938 51.7541 261.646 52.9297 263.955 55.281C266.265 57.6323 267.965 60.5294 269.057 63.9723C270.107 67.4572 270.631 71.1521 270.631 75.0569C270.631 75.6027 270.589 76.3375 270.505 77.2612H275.859L275.796 53.0137H280.267ZM255.831 55.8478C252.64 55.8478 250.121 57.7162 248.273 61.4531C246.384 65.1899 245.439 69.7245 245.439 75.0569C245.439 78.4159 245.859 80.0953 246.699 80.0953C247.664 80.0953 248.819 77.7651 250.163 73.1045C252.136 66.4705 254.487 63.1536 257.217 63.1536C258.686 63.1536 259.841 63.6154 260.68 64.5391C261.52 65.4628 261.94 66.6595 261.94 68.129C261.94 69.2207 261.646 70.6692 261.058 72.4747C260.429 74.3221 259.841 75.8127 259.295 76.9463C258.917 77.912 258.371 79.2556 257.657 80.9771C256.944 82.7405 256.377 84.1471 255.957 85.1968C255.537 86.2464 255.159 87.3801 254.823 88.5977C254.445 89.8153 254.256 90.7601 254.256 91.4318C254.256 93.3213 254.781 94.266 255.831 94.266C257.972 94.266 259.883 93.1953 261.562 91.054C263.2 88.9126 264.396 86.4144 265.152 83.5593C265.908 80.7041 266.286 77.87 266.286 75.0569C266.286 71.9079 265.929 68.9058 265.215 66.0507C264.501 63.2375 263.326 60.8233 261.688 58.8079C260.051 56.8345 258.098 55.8478 255.831 55.8478ZM236.601 53.0137L236.601 97.1001H232.192V85.9525C230.303 87.632 228.455 88.4718 226.65 88.4718C224.76 88.4718 223.375 87.9889 222.493 87.0232C221.611 86.0575 221.149 84.8819 221.107 83.4963C221.065 82.1527 221.128 80.7881 221.296 79.4025C221.464 78.059 221.506 76.9043 221.422 75.9386C221.296 74.9729 220.856 74.4901 220.1 74.4901C219.302 74.4901 218.42 74.9939 217.455 76.0016C216.489 77.0093 215.733 78.017 215.187 79.0247V97.1001H210.779V53.0137H215.187V72.5377C216.783 71.1101 218.42 70.3963 220.1 70.3963C221.947 70.3963 223.312 70.8792 224.194 71.8449C225.033 72.8106 225.474 73.9652 225.516 75.3088C225.516 76.6944 225.453 78.059 225.327 79.4025C225.159 80.7881 225.138 81.9638 225.264 82.9295C225.39 83.8952 225.852 84.378 226.65 84.378C228.119 84.378 229.967 82.8875 232.192 79.9064V53.0137H236.601ZM191.599 55.8478C188.408 55.8478 185.889 57.7162 184.041 61.4531C182.152 65.1899 181.207 69.7245 181.207 75.0569C181.207 78.4159 181.627 80.0953 182.467 80.0953C183.433 80.0953 184.587 77.7651 185.931 73.1045C187.904 66.4705 190.256 63.1536 192.985 63.1536C194.454 63.1536 195.609 63.6154 196.449 64.5391C197.288 65.4628 197.708 66.6595 197.708 68.129C197.708 69.2207 197.414 70.6692 196.826 72.4747C196.197 74.3221 195.609 75.8127 195.063 76.9463C194.685 77.912 194.139 79.2556 193.426 80.9771C192.712 82.7405 192.145 84.1471 191.725 85.1968C191.305 86.2464 190.927 87.3801 190.591 88.5977C190.214 89.8153 190.025 90.7601 190.025 91.4318C190.025 93.3213 190.549 94.266 191.599 94.266C193.74 94.266 195.651 93.1953 197.33 91.054C198.968 88.9126 200.164 86.4144 200.92 83.5593C201.676 80.7041 202.054 77.87 202.054 75.0569C202.054 71.9079 201.697 68.9058 200.983 66.0507C200.269 63.2375 199.094 60.8233 197.456 58.8079C195.819 56.8345 193.866 55.8478 191.599 55.8478ZM191.599 98.3597C190.046 98.3597 188.807 97.9608 187.883 97.1631C186.918 96.3653 186.309 95.4836 186.057 94.5179C185.763 93.5942 185.616 92.5655 185.616 91.4318C185.616 88.9126 187.295 84.0841 190.654 76.9463C190.822 76.7364 191.389 75.3508 192.355 72.7896C193.279 70.2284 193.74 68.6749 193.74 68.129C193.74 67.3313 193.447 66.9324 192.859 66.9324C192.691 66.9324 192.502 67.1213 192.292 67.4992C192.04 67.8771 191.767 68.4229 191.473 69.1367C191.137 69.8925 190.843 70.6063 190.591 71.2781C190.339 71.9498 190.046 72.7686 189.71 73.7343C189.332 74.742 189.059 75.4768 188.891 75.9386C188.807 76.1905 188.618 76.6944 188.324 77.4501C188.03 78.2479 187.82 78.8357 187.694 79.2136C187.526 79.5915 187.295 80.1163 187.002 80.7881C186.666 81.5019 186.372 82.0477 186.12 82.4256C185.826 82.8035 185.49 83.2024 185.112 83.6223C184.734 84.0421 184.335 84.336 183.915 84.504C183.454 84.7139 182.971 84.8189 182.467 84.8189C180.787 84.8189 179.423 83.8742 178.373 81.9848C177.323 80.0953 176.799 77.786 176.799 75.0569C176.799 71.2361 177.344 67.5832 178.436 64.0983C179.486 60.6553 181.165 57.7372 183.475 55.344C185.784 52.9507 188.492 51.7541 191.599 51.7541C194.706 51.7541 197.414 52.9297 199.724 55.281C202.033 57.6323 203.733 60.5294 204.825 63.9723C205.875 67.4572 206.4 71.1521 206.4 75.0569C206.4 78.7937 205.875 82.3836 204.825 85.8266C203.733 89.3115 202.033 92.2716 199.724 94.7068C197.372 97.1421 194.664 98.3597 191.599 98.3597ZM149.087 67.0583H144.679C144.679 63.1116 145.959 59.5637 148.52 56.4146C151.04 53.3076 154.671 51.7541 159.416 51.7541C162.481 51.7541 165.189 52.9297 167.541 55.281C169.85 57.6742 171.55 60.5923 172.642 64.0353C173.734 67.5202 174.279 71.2151 174.279 75.1199C174.279 78.8147 173.755 82.3836 172.705 85.8266C171.613 89.2695 169.913 92.1876 167.603 94.5809C165.252 97.0161 162.544 98.2338 159.479 98.2338C156.96 98.2338 154.818 97.583 153.055 96.2814C151.25 95.0217 150.347 93.3003 150.347 91.1169C150.347 89.3115 151.879 86.8343 154.944 83.6852C157.716 80.9141 159.101 79.2346 159.101 78.6468C159.101 77.933 158.786 77.5761 158.156 77.5761C157.946 77.5761 157.674 77.7021 157.338 77.954C156.96 78.2479 156.456 78.6888 155.826 79.2766C155.196 79.8644 154.692 80.3053 154.315 80.5992C154.231 80.6832 154.084 80.8091 153.874 80.9771C151.816 82.5726 150.368 83.4333 149.528 83.5593C148.478 83.5593 147.618 83.2864 146.946 82.7405C146.232 82.1947 145.728 81.4179 145.434 80.4102C145.14 79.4025 144.972 78.3949 144.93 77.3872C144.846 76.3795 144.825 75.1828 144.867 73.7973H149.087C149.087 74.0072 149.087 74.3641 149.087 74.8679C149.087 75.4138 149.087 75.8756 149.087 76.2535C149.087 76.6734 149.108 77.0933 149.15 77.5131C149.192 77.933 149.297 78.2479 149.465 78.4578C149.633 78.7098 149.843 78.8357 150.095 78.8357C150.305 78.8357 150.536 78.7308 150.788 78.5208C151.04 78.3529 151.438 77.996 151.984 77.4501C152.53 76.9043 152.929 76.5264 153.181 76.3165C155.322 74.3431 157.065 73.3564 158.408 73.3564C160.004 73.3564 161.242 73.7763 162.124 74.616C162.964 75.4978 163.384 76.7154 163.384 78.2689C163.384 80.0743 161.725 82.5936 158.408 85.8266C155.973 88.2618 154.755 89.8993 154.755 90.7391C154.755 92.8804 156.33 93.9511 159.479 93.9511C161.242 93.9511 162.838 93.3423 164.266 92.1246C165.651 90.949 166.743 89.3955 167.541 87.4641C168.296 85.5327 168.884 83.4963 169.304 81.3549C169.682 79.2556 169.871 77.1562 169.871 75.0569C169.871 72.0338 169.493 69.0947 168.737 66.2396C167.981 63.3845 166.785 60.9282 165.147 58.8709C163.51 56.8555 161.599 55.8478 159.416 55.8478C156.561 55.8478 154.126 57.0024 152.11 59.3117C150.095 61.621 149.087 64.2032 149.087 67.0583ZM142.819 93.0064V97.1001H116.367V93.0064H127.892C127.85 92.8804 127.556 92.1456 127.011 90.802C126.423 89.4585 126.024 88.5347 125.814 88.0309C125.604 87.569 125.226 86.6663 124.68 85.3227C124.134 83.9791 123.736 82.9505 123.484 82.2367C123.232 81.5649 122.875 80.6202 122.413 79.4025C121.951 78.1849 121.615 77.1982 121.405 76.4425C121.153 75.7287 120.901 74.9309 120.649 74.0492C120.356 73.1675 120.167 72.4117 120.083 71.7819C119.957 71.1521 119.894 70.6063 119.894 70.1444C119.894 68.255 120.293 66.7644 121.09 65.6728C121.888 64.6231 123.022 64.0983 124.491 64.0983C125.667 64.0983 126.696 64.5181 127.577 65.3579C128.459 66.2396 129.068 67.0374 129.404 67.7511C129.74 68.4649 130.223 69.7035 130.852 71.467C130.978 71.7609 131.062 71.9708 131.104 72.0968C131.188 72.3487 131.335 72.7266 131.545 73.2304C131.713 73.7343 131.839 74.1122 131.923 74.3641C132.007 74.616 132.133 74.9519 132.301 75.3718C132.469 75.7917 132.616 76.1066 132.742 76.3165C132.826 76.5684 132.952 76.8413 133.12 77.1352C133.246 77.4711 133.372 77.7231 133.498 77.891C133.623 78.059 133.749 78.2269 133.875 78.3949C134.001 78.6048 134.148 78.7308 134.316 78.7727C134.442 78.8567 134.589 78.8987 134.757 78.8987C135.303 78.8987 135.576 78.3949 135.576 77.3872C135.576 75.8336 134.274 72.2018 131.671 66.4915C130.831 64.6021 129.635 62.0619 128.081 58.8709C126.528 55.6799 125.583 53.7275 125.247 53.0137H130.034C132.721 58.388 134.589 62.2298 135.639 64.5391C138.368 70.4593 139.733 74.658 139.733 77.1352C139.733 79.0247 139.313 80.5152 138.473 81.6069C137.633 82.7405 136.395 83.3073 134.757 83.3073C133.414 83.3073 132.343 82.7405 131.545 81.6069C130.747 80.5152 129.908 78.8777 129.026 76.6944C128.774 76.0646 128.48 75.2878 128.144 74.3641C127.766 73.4404 127.472 72.6636 127.262 72.0338C127.011 71.446 126.759 70.8582 126.507 70.2704C126.255 69.6825 126.003 69.2417 125.751 68.9478C125.499 68.6539 125.268 68.5069 125.058 68.5069C124.554 68.5069 124.302 69.0107 124.302 70.0184C124.386 71.8239 127.178 79.4865 132.679 93.0064H142.819ZM112.608 52.8877V97.1001H108.199V82.2997C106.352 84.1471 104.315 85.0708 102.09 85.0708C100.2 85.0708 98.7309 84.399 97.6812 83.0554C96.5896 81.7538 96.0437 80.2213 96.0437 78.4578C96.0437 76.2745 97.0934 73.4824 99.1928 70.0814C100.914 67.3103 101.775 65.6938 101.775 65.2319C101.775 64.6021 101.523 64.2872 101.019 64.2872C100.767 64.2872 100.536 64.3502 100.326 64.4761C100.074 64.6441 99.8436 64.896 99.6336 65.2319C99.3817 65.5678 99.1928 65.8617 99.0668 66.1136C98.8988 66.4075 98.6889 66.8274 98.437 67.3733C98.1431 67.9611 97.9331 68.4019 97.8072 68.6958C97.7232 68.8218 97.5763 69.1157 97.3663 69.5776C97.1564 70.0814 97.0094 70.4173 96.9255 70.5853C96.7995 70.7532 96.6315 71.0261 96.4216 71.404C96.1697 71.7819 95.9598 72.0548 95.7918 72.2228C95.5819 72.3907 95.3299 72.5796 95.036 72.7896C94.7421 72.9995 94.4272 73.1465 94.0913 73.2304C93.7134 73.3144 93.3146 73.3564 92.8947 73.3564C91.2992 73.3564 89.9766 72.6216 88.9269 71.1521C87.8772 69.7245 87.3524 67.6462 87.3524 64.917C87.3524 61.1382 88.57 58.1571 91.0053 55.9738C93.3985 53.7904 96.5476 52.6988 100.452 52.6988C101.208 52.6988 102.132 52.6988 103.224 52.6988C104.315 52.6988 105.365 52.7198 106.373 52.7617C107.338 52.7617 108.262 52.7617 109.144 52.7617C109.983 52.7617 110.697 52.7617 111.285 52.7617C111.831 52.7617 112.125 52.7617 112.167 52.7617V52.8877H112.608ZM102.279 80.6622C102.741 80.6622 103.182 80.5782 103.601 80.4102C104.021 80.2843 104.42 80.0324 104.798 79.6545C105.134 79.2766 105.428 78.9617 105.68 78.7098C105.932 78.4578 106.205 78.017 106.499 77.3872C106.792 76.7574 107.002 76.3165 107.128 76.0646C107.254 75.8546 107.464 75.3718 107.758 74.616C108.01 73.8603 108.157 73.4404 108.199 73.3564V57.1704C106.561 57.1284 103.979 57.1074 100.452 57.1074C97.6392 57.1074 95.4979 57.8002 94.0283 59.1858C92.5168 60.5713 91.761 62.4818 91.761 64.917C91.761 67.6042 92.1389 68.9478 92.8947 68.9478C93.0626 68.9478 93.2306 68.8638 93.3985 68.6958C93.5665 68.5699 93.7344 68.339 93.9024 68.0031C94.0703 67.7091 94.2173 67.3942 94.3433 67.0583C94.4692 66.7644 94.6582 66.3446 94.9101 65.7987C95.12 65.2949 95.309 64.854 95.4769 64.4761C96.9045 61.4111 98.7519 59.8786 101.019 59.8786C102.489 59.8786 103.727 60.3614 104.735 61.3271C105.701 62.3348 106.184 63.6364 106.184 65.2319C106.184 66.5335 105.197 68.7798 103.224 71.9708C101.376 74.9939 100.452 77.1562 100.452 78.4578C100.452 79.0457 100.641 79.5495 101.019 79.9694C101.355 80.4312 101.775 80.6622 102.279 80.6622Z" fill="#FDFDFD"/>
<path d="M281.876 20.6137C280.88 20.6137 280.142 20.3497 279.662 19.8217C279.17 19.2937 278.924 18.5197 278.924 17.4997V15.8617C278.924 14.8417 279.17 14.0677 279.662 13.5397C280.142 13.0117 280.88 12.7477 281.876 12.7477L282.812 12.7477V8.01367H284.792V20.6137H281.876ZM282.812 18.8137V14.5477H281.876C281.564 14.5477 281.324 14.6317 281.156 14.7997C280.988 14.9677 280.904 15.2797 280.904 15.7357V17.6257C280.904 18.0817 280.988 18.3937 281.156 18.5617C281.324 18.7297 281.564 18.8137 281.876 18.8137H282.812ZM271.634 8.01367L273.632 8.01367L273.974 10.2997H276.404L276.746 8.01367H278.564L276.548 20.6137H273.65L271.634 8.01367ZM276.152 12.0097H274.244L275.198 18.3817L276.152 12.0097ZM266.985 17.5177C266.985 18.0817 267.081 18.4597 267.273 18.6517C267.453 18.8557 267.699 18.9577 268.011 18.9577C268.323 18.9577 268.575 18.8617 268.767 18.6697C268.947 18.4897 269.037 18.1717 269.037 17.7157V16.3657H270.909V17.5897C270.909 18.6097 270.663 19.3897 270.171 19.9297C269.667 20.4817 268.929 20.7577 267.957 20.7577C266.985 20.7577 266.253 20.4817 265.761 19.9297C265.257 19.3897 265.005 18.6097 265.005 17.5897V17.2657C265.005 15.9217 265.467 15.0577 266.391 14.6737C265.887 14.4577 265.533 14.1217 265.329 13.6657C265.113 13.2217 265.005 12.6757 265.005 12.0277V11.0377C265.005 10.0177 265.257 9.23167 265.761 8.67967C266.253 8.13967 266.985 7.86967 267.957 7.86967C268.929 7.86967 269.667 8.13967 270.171 8.67967C270.663 9.23167 270.909 10.0177 270.909 11.0377V12.6217H269.037V10.9117C269.037 10.4557 268.947 10.1317 268.767 9.93967C268.575 9.75967 268.323 9.66967 268.011 9.66967C267.699 9.66967 267.453 9.76567 267.273 9.95767C267.081 10.1497 266.985 10.5277 266.985 11.0917V12.0817C266.985 12.6697 267.087 13.0837 267.291 13.3237C267.495 13.5637 267.825 13.6837 268.281 13.6837H268.587V15.4837H268.173C267.801 15.4837 267.513 15.5797 267.309 15.7717C267.093 15.9637 266.985 16.3117 266.985 16.8157V17.5177ZM260.835 20.6137C259.839 20.6137 259.101 20.3497 258.621 19.8217C258.129 19.2937 257.883 18.5197 257.883 17.4997V15.8617C257.883 14.8417 258.129 14.0677 258.621 13.5397C259.101 13.0117 259.839 12.7477 260.835 12.7477H261.771V8.01367H263.751V20.6137H260.835ZM261.771 18.8137V14.5477H260.835C260.523 14.5477 260.283 14.6317 260.115 14.7997C259.947 14.9677 259.863 15.2797 259.863 15.7357V17.6257C259.863 18.0817 259.947 18.3937 260.115 18.5617C260.283 18.7297 260.523 18.8137 260.835 18.8137L261.771 18.8137ZM256.443 9.81367C256.335 9.80167 256.221 9.79567 256.101 9.79567C255.981 9.79567 255.867 9.79567 255.759 9.79567C255.603 9.79567 255.459 9.81367 255.327 9.84967C255.183 9.88567 255.063 9.95167 254.967 10.0477C254.859 10.1437 254.781 10.2817 254.733 10.4617C254.673 10.6417 254.643 10.8697 254.643 11.1457L257.523 20.6137H255.543L253.365 13.2337L251.565 20.6137H249.585L252.177 11.3257C252.405 10.4617 252.639 9.79567 252.879 9.32767C253.107 8.87167 253.353 8.54167 253.617 8.33767C253.881 8.14567 254.169 8.03767 254.481 8.01367C254.781 7.98967 255.117 7.97767 255.489 7.97767C255.669 7.97767 255.831 7.97767 255.975 7.97767C256.119 7.97767 256.275 7.98967 256.443 8.01367V9.81367ZM243.124 9.81367H241.522V20.6137L239.524 20.6137V8.01367L248.686 8.01367V20.6137H246.724V9.81367L245.104 9.81367V20.6137H243.124V9.81367ZM236.107 15.3037H233.389V13.5037H236.107V9.81367H232.687V8.01367L238.087 8.01367V20.6137H232.687V18.8137H236.107V15.3037ZM229.532 8.01367H231.512V20.6137H229.532V15.2137H227.282V20.6137H225.266V8.01367H227.282V13.4137L229.532 13.4137V8.01367ZM221.851 8.01367H223.831V20.6137L221.851 20.6137V15.2137L219.601 15.2137V20.6137H217.585V8.01367L219.601 8.01367V13.4137H221.851V8.01367ZM213.233 9.81367C212.921 9.81367 212.681 9.89767 212.513 10.0657C212.345 10.2337 212.261 10.5457 212.261 11.0017V12.8917C212.261 13.3477 212.345 13.6597 212.513 13.8277C212.681 13.9957 212.921 14.0797 213.233 14.0797H214.169V9.81367H213.233ZM216.149 8.01367V20.6137H214.169V15.8797H213.233C212.237 15.8797 211.499 15.6157 211.019 15.0877C210.527 14.5597 210.281 13.7857 210.281 12.7657V11.1277C210.281 10.1077 210.527 9.33367 211.019 8.80567C211.499 8.27767 212.237 8.01367 213.233 8.01367H216.149ZM209.309 20.6137H207.329V8.01367H209.309V20.6137ZM203.85 8.01367H205.884V20.6137L204.12 20.6137V13.0717L202.086 20.6137H199.602V8.01367L201.384 8.01367V17.1397L203.85 8.01367ZM200.538 22.7917V21.3157L204.894 21.3157V22.7917L200.538 22.7917ZM191.16 11.6677L189.81 20.6137L187.056 20.6137V8.01367H188.928V17.0497L190.296 8.01367L192.168 8.01367L193.644 16.9237V8.01367H195.372V20.6137H192.618L191.16 11.6677ZM183.816 10.9117C183.816 10.4557 183.726 10.1317 183.546 9.93967C183.354 9.75967 183.102 9.66967 182.79 9.66967C182.478 9.66967 182.232 9.75967 182.052 9.93967C181.86 10.1317 181.764 10.4557 181.764 10.9117V17.7157C181.764 18.1717 181.86 18.4897 182.052 18.6697C182.232 18.8617 182.478 18.9577 182.79 18.9577C183.102 18.9577 183.354 18.8617 183.546 18.6697C183.726 18.4897 183.816 18.1717 183.816 17.7157V10.9117ZM185.796 17.5897C185.796 18.6097 185.538 19.3897 185.022 19.9297C184.506 20.4817 183.762 20.7577 182.79 20.7577C181.818 20.7577 181.074 20.4817 180.558 19.9297C180.042 19.3897 179.784 18.6097 179.784 17.5897V11.0377C179.784 10.0177 180.042 9.23167 180.558 8.67967C181.074 8.13967 181.818 7.86967 182.79 7.86967C183.762 7.86967 184.506 8.13967 185.022 8.67967C185.538 9.23167 185.796 10.0177 185.796 11.0377V17.5897ZM172.808 12.7117V11.0377C172.808 10.0177 173.06 9.23167 173.564 8.67967C174.056 8.13967 174.788 7.86967 175.76 7.86967C176.732 7.86967 177.47 8.13967 177.974 8.67967C178.466 9.23167 178.712 10.0177 178.712 11.0377V17.5897C178.712 18.6097 178.466 19.3897 177.974 19.9297C177.47 20.4817 176.732 20.7577 175.76 20.7577C174.788 20.7577 174.056 20.4817 173.564 19.9297C173.06 19.3897 172.808 18.6097 172.808 17.5897V16.3657H174.68V17.7157C174.68 18.1717 174.776 18.4897 174.968 18.6697C175.148 18.8617 175.394 18.9577 175.706 18.9577C176.018 18.9577 176.27 18.8617 176.462 18.6697C176.642 18.4897 176.732 18.1717 176.732 17.7157V10.9117C176.732 10.4557 176.642 10.1377 176.462 9.95767C176.27 9.77767 176.018 9.68767 175.706 9.68767C175.394 9.68767 175.148 9.77767 174.968 9.95767C174.776 10.1377 174.68 10.4557 174.68 10.9117V12.7117L172.808 12.7117ZM168.961 13.0357L169.573 11.8837V8.01367H171.553V20.6137H169.573V15.1237L166.945 20.6137H165.001L167.755 14.9977L165.001 8.01367H167.035L168.961 13.0357ZM162.3 10.9117C162.3 10.4557 162.21 10.1317 162.03 9.93967C161.838 9.75967 161.586 9.66967 161.274 9.66967C160.962 9.66967 160.716 9.75967 160.536 9.93967C160.344 10.1317 160.248 10.4557 160.248 10.9117V17.7157C160.248 18.1717 160.344 18.4897 160.536 18.6697C160.716 18.8617 160.962 18.9577 161.274 18.9577C161.586 18.9577 161.838 18.8617 162.03 18.6697C162.21 18.4897 162.3 18.1717 162.3 17.7157V10.9117ZM164.28 17.5897C164.28 18.6097 164.022 19.3897 163.506 19.9297C162.99 20.4817 162.246 20.7577 161.274 20.7577C160.302 20.7577 159.558 20.4817 159.042 19.9297C158.526 19.3897 158.268 18.6097 158.268 17.5897V11.0377C158.268 10.0177 158.526 9.23167 159.042 8.67967C159.558 8.13967 160.302 7.86967 161.274 7.86967C162.246 7.86967 162.99 8.13967 163.506 8.67967C164.022 9.23167 164.28 10.0177 164.28 11.0377V17.5897ZM154.028 20.6137C152.996 20.6137 152.252 20.3737 151.796 19.8937C151.328 19.4137 151.094 18.6877 151.094 17.7157V17.2657C151.094 16.6177 151.196 16.0837 151.4 15.6637C151.604 15.2437 151.928 14.9317 152.372 14.7277C151.832 14.5237 151.454 14.1877 151.238 13.7197C151.01 13.2637 150.896 12.6997 150.896 12.0277V11.0017C150.896 10.0297 151.148 9.28567 151.652 8.76967C152.156 8.26567 152.906 8.01367 153.902 8.01367L157.016 8.01367V20.6137H154.028ZM155.036 13.6837V9.81367L153.902 9.81367C153.566 9.81367 153.314 9.90367 153.146 10.0837C152.966 10.2637 152.876 10.5877 152.876 11.0557V12.1537C152.876 12.7417 152.978 13.1437 153.182 13.3597C153.374 13.5757 153.698 13.6837 154.154 13.6837L155.036 13.6837ZM155.036 18.8137V15.4837H154.262C153.89 15.4837 153.602 15.5797 153.398 15.7717C153.182 15.9637 153.074 16.3117 153.074 16.8157V17.5177C153.074 17.9737 153.158 18.3037 153.326 18.5077C153.482 18.7117 153.734 18.8137 154.082 18.8137H155.036ZM143.997 12.7117V11.0377C143.997 10.0177 144.249 9.23167 144.753 8.67967C145.245 8.13967 145.977 7.86967 146.949 7.86967C147.921 7.86967 148.659 8.13967 149.163 8.67967C149.655 9.23167 149.901 10.0177 149.901 11.0377V17.5897C149.901 18.6097 149.655 19.3897 149.163 19.9297C148.659 20.4817 147.921 20.7577 146.949 20.7577C145.977 20.7577 145.245 20.4817 144.753 19.9297C144.249 19.3897 143.997 18.6097 143.997 17.5897V16.3657H145.869V17.7157C145.869 18.1717 145.965 18.4897 146.157 18.6697C146.337 18.8617 146.583 18.9577 146.895 18.9577C147.207 18.9577 147.459 18.8617 147.651 18.6697C147.831 18.4897 147.921 18.1717 147.921 17.7157V10.9117C147.921 10.4557 147.831 10.1377 147.651 9.95767C147.459 9.77767 147.207 9.68767 146.895 9.68767C146.583 9.68767 146.337 9.77767 146.157 9.95767C145.965 10.1377 145.869 10.4557 145.869 10.9117V12.7117L143.997 12.7117ZM140.151 13.0357L140.763 11.8837V8.01367H142.743V20.6137H140.763V15.1237L138.135 20.6137H136.191L138.945 14.9977L136.191 8.01367L138.225 8.01367L140.151 13.0357ZM133.256 8.01367H135.29V20.6137H133.526V13.0717L131.492 20.6137L129.008 20.6137V8.01367H130.79V17.1397L133.256 8.01367ZM125.539 8.01367L127.573 8.01367V20.6137H125.809V13.0717L123.775 20.6137H121.291V8.01367H123.073V17.1397L125.539 8.01367ZM122.227 22.7917V21.3157H126.583V22.7917H122.227ZM117.601 20.6137L111.481 20.6137V18.8137H113.551V8.01367H115.531V18.8137H117.601V20.6137ZM108.595 15.3037H105.877V13.5037H108.595V9.81367H105.175V8.01367L110.575 8.01367V20.6137H105.175V18.8137H108.595V15.3037ZM97.6107 8.01367H99.6087L99.9507 10.2997H102.381L102.723 8.01367H104.541L102.525 20.6137H99.6267L97.6107 8.01367ZM102.129 12.0097H100.221L101.175 18.3817L102.129 12.0097ZM97.2458 20.6137L91.1258 20.6137V18.8137H93.1958V8.01367H95.1758V18.8137H97.2458V20.6137ZM87.3035 20.6137C86.3075 20.6137 85.5695 20.3497 85.0895 19.8217C84.5975 19.2937 84.3515 18.5197 84.3515 17.4997V15.8617C84.3515 14.8417 84.5975 14.0677 85.0895 13.5397C85.5695 13.0117 86.3075 12.7477 87.3035 12.7477H88.2395V8.01367H90.2195V20.6137H87.3035ZM88.2395 18.8137V14.5477H87.3035C86.9915 14.5477 86.7515 14.6317 86.5835 14.7997C86.4155 14.9677 86.3315 15.2797 86.3315 15.7357V17.6257C86.3315 18.0817 86.4155 18.3937 86.5835 18.5617C86.7515 18.7297 86.9915 18.8137 87.3035 18.8137H88.2395Z" fill="#FDFDFD"/>
</svg>
