<svg width="303" height="136" viewBox="0 0 303 136" fill="none" xmlns="http://www.w3.org/2000/svg">
<rect width="59" height="136" rx="14" transform="matrix(1 0 0 -1 0 136)" fill="#761614"/>
<path d="M12.4922 113.027V109.327C12.6255 109.26 14.1589 108.86 17.0922 108.127C19.9922 107.393 23.3255 106.643 27.0922 105.877C30.8589 105.11 33.5089 104.727 35.0422 104.727C36.5422 104.727 37.7422 105.127 38.6422 105.927C39.5422 106.693 39.9922 107.693 39.9922 108.927C39.9922 110.16 39.4922 111.143 38.4922 111.877C37.4922 112.577 36.1089 113.21 34.3422 113.777C33.9089 113.91 33.3755 114.077 32.7422 114.277C32.1089 114.443 31.6089 114.593 31.2422 114.727C30.8422 114.827 30.4589 114.96 30.0922 115.127C29.6922 115.26 29.4089 115.393 29.2422 115.527C29.0422 115.66 28.9422 115.793 28.9422 115.927C28.9422 116.327 29.5922 116.527 30.8922 116.527C32.6589 116.527 35.1255 116.06 38.2922 115.127C41.4255 114.16 44.1922 113.06 46.5922 111.827L47.4922 111.377V115.477C44.8922 116.743 41.9755 117.843 38.7422 118.777C35.5089 119.677 32.8922 120.127 30.8922 120.127C29.2255 120.127 27.8922 119.777 26.8922 119.077C25.8589 118.343 25.3422 117.377 25.3422 116.177C25.3422 114.977 25.8255 114.027 26.7922 113.327C27.7255 112.627 29.0422 111.977 30.7422 111.377C31.2089 111.21 31.7589 111.027 32.3922 110.827C32.9922 110.627 33.5089 110.477 33.9422 110.377C34.3422 110.243 34.7422 110.11 35.1422 109.977C35.5089 109.81 35.7922 109.66 35.9922 109.527C36.1922 109.36 36.2922 109.193 36.2922 109.027C36.2922 108.593 35.8755 108.377 35.0422 108.377C32.4089 108.377 26.1089 109.577 16.1422 111.977L23.4922 119.127L21.0922 121.427L12.4922 113.027ZM12.4922 93.7395V90.0395C12.6255 89.9728 14.1589 89.5728 17.0922 88.8395C19.9922 88.1061 23.3255 87.3561 27.0922 86.5895C30.8589 85.8228 33.5089 85.4395 35.0422 85.4395C36.5422 85.4395 37.7422 85.8395 38.6422 86.6395C39.5422 87.4061 39.9922 88.4061 39.9922 89.6395C39.9922 90.8728 39.4922 91.8561 38.4922 92.5895C37.4922 93.2895 36.1089 93.9228 34.3422 94.4895C33.9089 94.6228 33.3755 94.7895 32.7422 94.9895C32.1089 95.1561 31.6089 95.3061 31.2422 95.4395C30.8422 95.5395 30.4589 95.6728 30.0922 95.8395C29.6922 95.9728 29.4089 96.1061 29.2422 96.2395C29.0422 96.3728 28.9422 96.5061 28.9422 96.6395C28.9422 97.0395 29.5922 97.2395 30.8922 97.2395C32.6589 97.2395 35.1255 96.7728 38.2922 95.8395C41.4255 94.8728 44.1922 93.7728 46.5922 92.5395L47.4922 92.0895V96.1895C44.8922 97.4561 41.9755 98.5561 38.7422 99.4895C35.5089 100.389 32.8922 100.839 30.8922 100.839C29.2255 100.839 27.8922 100.489 26.8922 99.7895C25.8589 99.0561 25.3422 98.0895 25.3422 96.8895C25.3422 95.6895 25.8255 94.7395 26.7922 94.0395C27.7255 93.3395 29.0422 92.6895 30.7422 92.0895C31.2089 91.9228 31.7589 91.7395 32.3922 91.5395C32.9922 91.3395 33.5089 91.1895 33.9422 91.0895C34.3422 90.9561 34.7422 90.8228 35.1422 90.6895C35.5089 90.5228 35.7922 90.3728 35.9922 90.2395C36.1922 90.0728 36.2922 89.9061 36.2922 89.7395C36.2922 89.3061 35.8755 89.0895 35.0422 89.0895C32.4089 89.0895 26.1089 90.2895 16.1422 92.6895L23.4922 99.8395L21.0922 102.139L12.4922 93.7395Z" fill="#FDFDFD"/>
<path d="M39.4922 71.4174V74.2774H21.2922V71.4174H29.0922V68.1674H21.2922V65.2554H39.4922V68.1674H31.6922V71.4174H39.4922ZM35.3062 60.5817C35.9649 60.5817 36.4329 60.4517 36.7102 60.1917C36.9702 59.9143 37.1002 59.5503 37.1002 59.0997C37.1002 58.649 36.9702 58.2937 36.7102 58.0337C36.4329 57.7563 35.9649 57.6177 35.3062 57.6177H25.4782C24.8195 57.6177 24.3602 57.7563 24.1002 58.0337C23.8229 58.2937 23.6842 58.649 23.6842 59.0997C23.6842 59.5503 23.8229 59.9143 24.1002 60.1917C24.3602 60.4517 24.8195 60.5817 25.4782 60.5817H35.3062ZM25.6602 63.4417C24.1869 63.4417 23.0602 63.069 22.2802 62.3237C21.4829 61.5783 21.0842 60.5037 21.0842 59.0997C21.0842 57.6957 21.4829 56.621 22.2802 55.8757C23.0602 55.1303 24.1869 54.7577 25.6602 54.7577H35.1242C36.5975 54.7577 37.7329 55.1303 38.5302 55.8757C39.3102 56.621 39.7002 57.6957 39.7002 59.0997C39.7002 60.5037 39.3102 61.5783 38.5302 62.3237C37.7329 63.069 36.5975 63.4417 35.1242 63.4417H25.6602ZM23.8922 48.8153C23.8922 49.3179 24.0395 49.6906 24.3342 49.9333C24.6289 50.1586 25.1055 50.2713 25.7642 50.2713H27.5582C28.2862 50.2713 28.7889 50.1239 29.0662 49.8293C29.3435 49.5173 29.4822 49.0926 29.4822 48.5553V47.4373H23.8922V48.8153ZM39.4922 53.4693C39.1455 53.3306 38.8075 53.2439 38.4782 53.2093C38.1315 53.1746 37.7329 53.1573 37.2822 53.1573H34.4742C33.5209 53.1573 32.7149 53.0273 32.0562 52.7673C31.3802 52.4899 30.8949 51.9873 30.6002 51.2593C30.0109 52.5073 28.7802 53.1313 26.9082 53.1313H25.4782C24.0742 53.1313 23.0255 52.8019 22.3322 52.1433C21.6389 51.4673 21.2922 50.3839 21.2922 48.8933V44.5773H39.4922V47.4373H32.0822V48.4253C32.0822 49.0839 32.2555 49.5606 32.6022 49.8553C32.9489 50.1499 33.5469 50.2973 34.3962 50.2973H37.2562C37.6202 50.2973 37.9235 50.3059 38.1662 50.3233C38.4089 50.3233 38.6082 50.3406 38.7642 50.3753C38.9202 50.3926 39.0502 50.4186 39.1542 50.4533C39.2582 50.4879 39.3709 50.5226 39.4922 50.5573V53.4693ZM28.1302 39.6283V38.2763C28.1302 36.8377 28.5115 35.7717 29.2742 35.0783C30.0369 34.3677 31.1549 34.0123 32.6282 34.0123H34.9942C36.4675 34.0123 37.5855 34.3677 38.3482 35.0783C39.1109 35.7717 39.4922 36.8377 39.4922 38.2763V42.4883H21.2922V34.9223H23.8922V39.6283H28.1302ZM36.8922 38.2763C36.8922 37.8257 36.7709 37.479 36.5282 37.2363C36.2855 36.9937 35.8349 36.8723 35.1762 36.8723H32.4462C31.7875 36.8723 31.3369 36.9937 31.0942 37.2363C30.8515 37.479 30.7302 37.8257 30.7302 38.2763V39.6283H36.8922V38.2763ZM21.2922 28.1201C21.2922 26.6814 21.6735 25.6154 22.4362 24.9221C23.1989 24.2114 24.3169 23.8561 25.7902 23.8561H28.1562C29.6295 23.8561 30.7475 24.2114 31.5102 24.9221C32.2729 25.6154 32.6542 26.6814 32.6542 28.1201V29.4721H39.4922V32.3321H21.2922V28.1201ZM23.8922 29.4721H30.0542V28.1201C30.0542 27.6694 29.9329 27.3227 29.6902 27.0801C29.4475 26.8374 28.9969 26.7161 28.3382 26.7161H25.6082C24.9495 26.7161 24.4989 26.8374 24.2562 27.0801C24.0135 27.3227 23.8922 27.6694 23.8922 28.1201V29.4721ZM23.8922 18.4227C23.8922 18.9253 24.0395 19.298 24.3342 19.5407C24.6289 19.766 25.1055 19.8787 25.7642 19.8787H27.5582C28.2862 19.8787 28.7889 19.7313 29.0662 19.4367C29.3435 19.1247 29.4822 18.7 29.4822 18.1627V17.0447H23.8922V18.4227ZM39.4922 23.0767C39.1455 22.938 38.8075 22.8513 38.4782 22.8167C38.1315 22.782 37.7329 22.7647 37.2822 22.7647H34.4742C33.5209 22.7647 32.7149 22.6347 32.0562 22.3747C31.3802 22.0973 30.8949 21.5947 30.6002 20.8667C30.0109 22.1147 28.7802 22.7387 26.9082 22.7387H25.4782C24.0742 22.7387 23.0255 22.4093 22.3322 21.7507C21.6389 21.0747 21.2922 19.9913 21.2922 18.5007V14.1847H39.4922V17.0447H32.0822V18.0327C32.0822 18.6913 32.2555 19.168 32.6022 19.4627C32.9489 19.7573 33.5469 19.9047 34.3962 19.9047H37.2562C37.6202 19.9047 37.9235 19.9133 38.1662 19.9307C38.4089 19.9307 38.6082 19.948 38.7642 19.9827C38.9202 20 39.0502 20.026 39.1542 20.0607C39.2582 20.0953 39.3709 20.13 39.4922 20.1647V23.0767Z" fill="#FDFDFD"/>
<rect width="236" height="136" rx="14" transform="matrix(1 0 0 -1 67 136)" fill="#761614"/>
<path d="M242.543 87.1094V122.109H239.043V113.259C237.543 114.593 236.077 115.259 234.643 115.259C233.143 115.259 232.043 114.876 231.343 114.109C230.643 113.343 230.277 112.409 230.243 111.309C230.21 110.243 230.26 109.159 230.393 108.059C230.527 106.993 230.56 106.076 230.493 105.309C230.393 104.543 230.043 104.159 229.443 104.159C228.81 104.159 228.11 104.559 227.343 105.359C226.577 106.159 225.977 106.959 225.543 107.759V122.109H222.043V87.1094H225.543V102.609C226.81 101.476 228.11 100.909 229.443 100.909C230.91 100.909 231.993 101.293 232.693 102.059C233.36 102.826 233.71 103.743 233.743 104.809C233.743 105.909 233.693 106.993 233.593 108.059C233.46 109.159 233.443 110.093 233.543 110.859C233.643 111.626 234.01 112.009 234.643 112.009C235.81 112.009 237.277 110.826 239.043 108.459V87.1094H242.543ZM206.817 89.3594C204.283 89.3594 202.283 90.8427 200.817 93.8094C199.317 96.776 198.567 100.376 198.567 104.609C198.567 107.276 198.9 108.609 199.567 108.609C200.333 108.609 201.25 106.759 202.317 103.059C203.883 97.7927 205.75 95.1594 207.917 95.1594C209.083 95.1594 210 95.526 210.667 96.2594C211.333 96.9927 211.667 97.9427 211.667 99.1094C211.667 99.976 211.433 101.126 210.967 102.559C210.467 104.026 210 105.209 209.567 106.109C209.267 106.876 208.833 107.943 208.267 109.309C207.7 110.709 207.25 111.826 206.917 112.659C206.583 113.493 206.283 114.393 206.017 115.359C205.717 116.326 205.567 117.076 205.567 117.609C205.567 119.109 205.983 119.859 206.817 119.859C208.517 119.859 210.033 119.009 211.367 117.309C212.667 115.609 213.617 113.626 214.217 111.359C214.817 109.093 215.117 106.843 215.117 104.609C215.117 102.109 214.833 99.726 214.267 97.4594C213.7 95.226 212.767 93.3094 211.467 91.7094C210.167 90.1427 208.617 89.3594 206.817 89.3594ZM206.817 123.109C205.583 123.109 204.6 122.793 203.867 122.159C203.1 121.526 202.617 120.826 202.417 120.059C202.183 119.326 202.067 118.509 202.067 117.609C202.067 115.609 203.4 111.776 206.067 106.109C206.2 105.943 206.65 104.843 207.417 102.809C208.15 100.776 208.517 99.5427 208.517 99.1094C208.517 98.476 208.283 98.1594 207.817 98.1594C207.683 98.1594 207.533 98.3094 207.367 98.6094C207.167 98.9094 206.95 99.3427 206.717 99.9094C206.45 100.509 206.217 101.076 206.017 101.609C205.817 102.143 205.583 102.793 205.317 103.559C205.017 104.359 204.8 104.943 204.667 105.309C204.6 105.509 204.45 105.909 204.217 106.509C203.983 107.143 203.817 107.609 203.717 107.909C203.583 108.209 203.4 108.626 203.167 109.159C202.9 109.726 202.667 110.159 202.467 110.459C202.233 110.759 201.967 111.076 201.667 111.409C201.367 111.743 201.05 111.976 200.717 112.109C200.35 112.276 199.967 112.359 199.567 112.359C198.233 112.359 197.15 111.609 196.317 110.109C195.483 108.609 195.067 106.776 195.067 104.609C195.067 101.576 195.5 98.676 196.367 95.9094C197.2 93.176 198.533 90.8594 200.367 88.9594C202.2 87.0594 204.35 86.1094 206.817 86.1094C209.283 86.1094 211.433 87.0427 213.267 88.9094C215.1 90.776 216.45 93.076 217.317 95.8094C218.15 98.576 218.567 101.509 218.567 104.609C218.567 107.576 218.15 110.426 217.317 113.159C216.45 115.926 215.1 118.276 213.267 120.209C211.4 122.143 209.25 123.109 206.817 123.109ZM191.567 87.1594V122.109H188.117C186.783 122.109 185.817 122.093 185.217 122.059C184.583 122.059 183.767 122.026 182.767 121.959C181.733 121.926 180.983 121.843 180.517 121.709C180.05 121.576 179.517 121.376 178.917 121.109C178.283 120.876 177.833 120.559 177.567 120.159C177.3 119.793 177.067 119.326 176.867 118.759C176.633 118.193 176.517 117.543 176.517 116.809C176.517 115.143 177.767 113.343 180.267 111.409C180.5 111.243 180.817 110.993 181.217 110.659C181.617 110.359 181.933 110.126 182.167 109.959C182.367 109.793 182.6 109.593 182.867 109.359C183.1 109.159 183.267 108.976 183.367 108.809C183.467 108.643 183.517 108.476 183.517 108.309C183.517 107.876 183.333 107.659 182.967 107.659C182.8 107.659 182.6 107.709 182.367 107.809C182.133 107.943 181.933 108.059 181.767 108.159C181.6 108.293 181.35 108.493 181.017 108.759C180.65 109.026 180.383 109.226 180.217 109.359C178.883 110.426 177.633 110.959 176.467 110.959C175.367 110.959 174.467 110.576 173.767 109.809C173.067 109.076 172.733 108.176 172.767 107.109C172.767 106.609 172.867 106.143 173.067 105.709C173.267 105.276 173.633 104.826 174.167 104.359C174.667 103.926 175.067 103.593 175.367 103.359C175.667 103.126 176.233 102.743 177.067 102.209C177.867 101.709 178.367 101.393 178.567 101.259C180.533 99.9594 181.683 99.0427 182.017 98.5094C182.217 98.2094 182.317 97.9427 182.317 97.7094C182.317 97.2094 182.05 96.9594 181.517 96.9594C180.85 96.9594 179.8 97.676 178.367 99.1094C178.3 99.176 178.117 99.3594 177.817 99.6594C177.517 99.9594 177.3 100.159 177.167 100.259C177.033 100.359 176.833 100.526 176.567 100.759C176.267 101.026 176.017 101.209 175.817 101.309C175.617 101.409 175.383 101.493 175.117 101.559C174.85 101.659 174.583 101.709 174.317 101.709C173.15 101.709 172.2 101.259 171.467 100.359C170.7 99.4594 170.317 98.376 170.317 97.1094C170.317 94.5094 171.5 92.176 173.867 90.1094C176.2 88.076 178.9 87.0594 181.967 87.0594L191.217 87.1094V87.1594H191.567ZM179.767 117.009C179.767 118.276 181.05 118.909 183.617 118.909H188.117V90.3594C187.45 90.3594 186.4 90.3427 184.967 90.3094C183.5 90.3094 182.5 90.3094 181.967 90.3094C179.733 90.3094 177.783 91.026 176.117 92.4594C174.417 93.8927 173.567 95.4427 173.567 97.1094C173.567 98.0094 173.833 98.4594 174.367 98.4594C174.6 98.4594 174.833 98.3927 175.067 98.2594C175.3 98.126 175.5 97.976 175.667 97.8094C175.8 97.6427 176.017 97.376 176.317 97.0094C176.617 96.676 176.867 96.4094 177.067 96.2094C178.567 94.5427 180.033 93.7094 181.467 93.7094C182.633 93.7094 183.617 94.0594 184.417 94.7594C185.183 95.4594 185.567 96.4427 185.567 97.7094C185.567 98.5094 185.283 99.2927 184.717 100.059C184.15 100.826 183.617 101.409 183.117 101.809C182.583 102.209 181.767 102.759 180.667 103.459C180.6 103.493 180.55 103.526 180.517 103.559C180.483 103.593 180.433 103.626 180.367 103.659C180.3 103.693 180.25 103.726 180.217 103.759C179.95 103.926 179.567 104.159 179.067 104.459C178.533 104.793 178.133 105.043 177.867 105.209C177.6 105.409 177.3 105.626 176.967 105.859C176.633 106.093 176.4 106.309 176.267 106.509C176.1 106.709 176.017 106.893 176.017 107.059C176.017 107.559 176.25 107.809 176.717 107.809C176.85 107.809 177 107.776 177.167 107.709C177.333 107.676 177.533 107.593 177.767 107.459C177.967 107.326 178.133 107.209 178.267 107.109C178.4 107.009 178.617 106.843 178.917 106.609C179.217 106.376 179.433 106.209 179.567 106.109C181.1 104.943 182.317 104.359 183.217 104.359C184.25 104.359 185.1 104.759 185.767 105.559C186.433 106.359 186.767 107.259 186.767 108.259C186.767 108.559 186.733 108.859 186.667 109.159C186.6 109.459 186.483 109.743 186.317 110.009C186.117 110.309 185.95 110.543 185.817 110.709C185.683 110.909 185.45 111.159 185.117 111.459C184.783 111.759 184.55 111.959 184.417 112.059C184.283 112.193 184.017 112.409 183.617 112.709C183.217 113.043 182.967 113.243 182.867 113.309C180.8 114.976 179.767 116.209 179.767 117.009ZM166.348 87.1094H169.798C168.865 90.576 167.698 95.226 166.298 101.059C164.865 106.893 163.665 111.859 162.698 115.959L161.298 122.109H154.848C151.248 106.543 148.415 94.876 146.348 87.1094H149.848L151.798 95.0094C152.365 94.4094 152.831 93.9427 153.198 93.6094C153.531 93.276 154.031 92.926 154.698 92.5594C155.365 92.1927 156.031 92.0094 156.698 92.0094C157.565 92.0094 158.281 92.3094 158.848 92.9094C159.415 93.5094 159.698 94.2094 159.698 95.0094C159.698 95.676 159.481 96.4927 159.048 97.4594C158.615 98.4594 158.398 99.076 158.398 99.3094C158.398 99.776 158.665 100.009 159.198 100.009C159.598 100.009 160.198 99.526 160.998 98.5594C161.798 97.626 162.465 96.7594 162.998 95.9594C163.498 95.1927 163.931 94.5094 164.298 93.9094L164.898 93.0094L166.348 87.1094ZM156.048 95.2094C155.215 95.2094 154.115 96.3094 152.748 98.5094L152.648 98.7094L157.548 118.859H158.598L163.148 100.259C161.715 102.226 160.231 103.209 158.698 103.209C157.831 103.209 157.098 102.943 156.498 102.409C155.898 101.876 155.598 101.159 155.598 100.259C155.598 99.6927 155.781 98.9427 156.148 98.0094C156.515 97.076 156.698 96.376 156.698 95.9094C156.698 95.7427 156.631 95.576 156.498 95.4094C156.365 95.276 156.215 95.2094 156.048 95.2094ZM125.275 122.109V87.1094H128.775V97.1594C130.341 97.226 131.958 97.4594 133.625 97.8594C138.425 90.726 140.825 87.1427 140.825 87.1094H144.825C144.791 87.1094 142.225 91.0594 137.125 98.9594C139.191 99.7927 140.975 101.126 142.475 102.959C143.975 104.826 144.725 106.743 144.725 108.709C144.725 109.909 144.408 110.876 143.775 111.609C143.141 112.376 142.258 112.759 141.125 112.759C140.625 112.759 140.108 112.593 139.575 112.259C139.041 111.959 138.641 111.659 138.375 111.359C138.108 111.059 137.725 110.626 137.225 110.059C137.058 109.893 136.841 109.626 136.575 109.259C136.275 108.893 136.041 108.609 135.875 108.409C135.708 108.243 135.508 108.076 135.275 107.909C135.041 107.743 134.841 107.659 134.675 107.659C134.108 107.659 133.825 107.976 133.825 108.609C133.825 108.876 133.941 109.176 134.175 109.509C134.375 109.843 134.808 110.393 135.475 111.159C136.108 111.926 136.525 112.426 136.725 112.659C138.391 114.726 139.225 116.543 139.225 118.109C139.225 119.243 138.708 120.193 137.675 120.959C136.641 121.726 135.358 122.109 133.825 122.109H125.275ZM133.575 118.809C135.208 118.809 136.025 118.359 136.025 117.459C136.025 116.659 135.375 115.509 134.075 114.009C133.941 113.876 133.641 113.526 133.175 112.959C132.675 112.393 132.325 111.993 132.125 111.759C131.925 111.526 131.675 111.176 131.375 110.709C131.041 110.276 130.825 109.876 130.725 109.509C130.591 109.176 130.525 108.826 130.525 108.459C130.525 107.193 130.875 106.193 131.575 105.459C132.275 104.726 133.191 104.359 134.325 104.359C135.425 104.359 136.725 105.276 138.225 107.109C138.391 107.309 138.625 107.576 138.925 107.909C139.191 108.276 139.408 108.543 139.575 108.709C139.708 108.909 139.891 109.076 140.125 109.209C140.325 109.376 140.525 109.459 140.725 109.459C140.925 109.459 141.108 109.376 141.275 109.209C141.408 109.043 141.475 108.843 141.475 108.609C141.475 107.543 140.908 106.309 139.775 104.909C138.641 103.543 137.558 102.659 136.525 102.259C133.925 101.193 131.341 100.593 128.775 100.459V118.809H133.575ZM239.945 37.1094V56.1094H241.545C248.278 43.476 251.645 37.1427 251.645 37.1094H255.645L252.795 42.2094C250.895 45.6427 248.995 49.076 247.095 52.5094L244.245 57.6594C244.578 57.7927 244.945 58.2927 245.345 59.1594C245.745 60.026 246.162 61.0594 246.595 62.2594C247.028 63.4927 247.312 64.2594 247.445 64.5594C248.878 67.726 249.878 69.3094 250.445 69.3094C250.912 69.3094 251.145 69.0594 251.145 68.5594C251.145 67.8594 250.562 66.076 249.395 63.2094C248.428 60.8094 247.945 58.926 247.945 57.5594C247.945 56.326 248.262 55.276 248.895 54.4094C249.528 53.576 250.378 53.1594 251.445 53.1594C251.878 53.1594 252.295 53.2427 252.695 53.4094C253.095 53.576 253.495 53.8594 253.895 54.2594C254.262 54.6927 254.495 54.976 254.595 55.1094C254.695 55.2427 254.928 55.5427 255.295 56.0094C255.395 56.1427 255.528 56.326 255.695 56.5594C255.862 56.7927 256.012 57.0094 256.145 57.2094C256.278 57.4094 256.428 57.5927 256.595 57.7594C256.762 57.9594 256.912 58.1094 257.045 58.2094C257.178 58.3427 257.295 58.4094 257.395 58.4094C257.728 58.4094 257.895 58.176 257.895 57.7094C257.895 56.7094 257.328 55.2927 256.195 53.4594C255.062 51.626 253.995 50.1594 252.995 49.0594L254.845 46.1594C258.878 50.8594 260.895 54.8594 260.895 58.1594C260.895 59.0594 260.578 59.876 259.945 60.6094C259.312 61.376 258.578 61.7594 257.745 61.7594C256.345 61.7594 255.128 61.026 254.095 59.5594C254.028 59.426 253.862 59.1594 253.595 58.7594C253.328 58.3927 253.145 58.126 253.045 57.9594C252.912 57.826 252.745 57.6427 252.545 57.4094C252.345 57.176 252.178 57.0094 252.045 56.9094C251.878 56.8094 251.712 56.7594 251.545 56.7594C251.178 56.7594 250.995 56.976 250.995 57.4094C250.995 58.2094 251.595 60.0427 252.795 62.9094C252.895 63.1427 253.078 63.5427 253.345 64.1094C253.578 64.7094 253.728 65.1094 253.795 65.3094C253.862 65.5094 253.962 65.826 254.095 66.2594C254.228 66.726 254.312 67.1594 254.345 67.5594C254.378 67.9927 254.395 68.476 254.395 69.0094C254.395 70.076 254.028 70.976 253.295 71.7094C252.562 72.476 251.628 72.8594 250.495 72.8594C250.095 72.8594 249.728 72.7927 249.395 72.6594C249.028 72.526 248.712 72.376 248.445 72.2094C248.178 72.0427 247.912 71.7927 247.645 71.4594C247.345 71.126 247.112 70.8427 246.945 70.6094C246.745 70.4094 246.545 70.076 246.345 69.6094C246.112 69.176 245.962 68.8594 245.895 68.6594C245.795 68.4927 245.645 68.176 245.445 67.7094C245.245 67.2427 245.128 66.976 245.095 66.9094C244.962 66.576 244.628 65.726 244.095 64.3594C243.562 62.9927 243.095 61.8427 242.695 60.9094C242.262 60.0094 241.962 59.5594 241.795 59.5594H239.945V72.1094H236.395V59.5594H234.545C234.378 59.5594 234.095 60.0094 233.695 60.9094C233.262 61.8427 232.778 62.9927 232.245 64.3594C231.712 65.726 231.378 66.576 231.245 66.9094C231.212 66.976 231.095 67.2427 230.895 67.7094C230.695 68.176 230.562 68.4927 230.495 68.6594C230.395 68.8594 230.245 69.176 230.045 69.6094C229.812 70.076 229.612 70.4094 229.445 70.6094C229.245 70.8427 229.012 71.126 228.745 71.4594C228.445 71.7927 228.162 72.0427 227.895 72.2094C227.628 72.376 227.328 72.526 226.995 72.6594C226.628 72.7927 226.245 72.8594 225.845 72.8594C224.712 72.8594 223.778 72.476 223.045 71.7094C222.312 70.976 221.945 70.076 221.945 69.0094C221.945 68.476 221.962 67.9927 221.995 67.5594C222.028 67.1594 222.112 66.726 222.245 66.2594C222.378 65.826 222.478 65.5094 222.545 65.3094C222.612 65.1094 222.778 64.7094 223.045 64.1094C223.278 63.5427 223.445 63.1427 223.545 62.9094C224.745 60.0427 225.345 58.2094 225.345 57.4094C225.345 56.976 225.162 56.7594 224.795 56.7594C224.628 56.7594 224.478 56.8094 224.345 56.9094C224.178 57.0094 223.995 57.176 223.795 57.4094C223.595 57.6427 223.445 57.826 223.345 57.9594C223.212 58.126 223.012 58.3927 222.745 58.7594C222.478 59.1594 222.312 59.426 222.245 59.5594C221.212 61.026 219.995 61.7594 218.595 61.7594C217.762 61.7594 217.028 61.376 216.395 60.6094C215.762 59.876 215.445 59.0594 215.445 58.1594C215.445 54.8594 217.462 50.8594 221.495 46.1594L223.345 49.0594C222.345 50.1594 221.278 51.626 220.145 53.4594C219.012 55.2927 218.445 56.7094 218.445 57.7094C218.445 58.176 218.612 58.4094 218.945 58.4094C219.045 58.4094 219.162 58.3427 219.295 58.2094C219.428 58.1094 219.578 57.9594 219.745 57.7594C219.912 57.5927 220.062 57.4094 220.195 57.2094C220.328 57.0094 220.478 56.7927 220.645 56.5594C220.812 56.326 220.945 56.1427 221.045 56.0094C222.012 54.676 222.845 53.8427 223.545 53.5094C224.012 53.276 224.462 53.1594 224.895 53.1594C225.962 53.1594 226.812 53.576 227.445 54.4094C228.078 55.276 228.395 56.326 228.395 57.5594C228.395 58.926 227.912 60.8094 226.945 63.2094C225.778 66.076 225.195 67.8594 225.195 68.5594C225.195 69.0594 225.428 69.3094 225.895 69.3094C226.462 69.3094 227.462 67.726 228.895 64.5594C229.028 64.2594 229.312 63.4927 229.745 62.2594C230.178 61.0594 230.595 60.026 230.995 59.1594C231.395 58.2927 231.762 57.7927 232.095 57.6594C231.628 56.7927 230.995 55.6427 230.195 54.2094C229.395 52.8094 228.162 50.6094 226.495 47.6094C224.828 44.6094 223.445 42.1094 222.345 40.1094L220.695 37.1094H224.695L234.795 56.1094H236.395V37.1094H239.945ZM211.684 37.1094V72.0594H208.184V40.6094H204.134C203.601 40.6094 203.151 40.8427 202.784 41.3094C202.417 41.776 202.234 42.326 202.234 42.9594C202.234 43.2927 202.284 43.6427 202.384 44.0094C202.484 44.376 202.651 44.776 202.884 45.2094C203.084 45.676 203.284 46.0594 203.484 46.3594C203.651 46.6594 203.917 47.0927 204.284 47.6594C204.617 48.2594 204.867 48.6927 205.034 48.9594C206.201 50.926 206.784 52.5927 206.784 53.9594C206.784 55.0927 206.467 56.026 205.834 56.7594C205.167 57.526 204.301 57.9094 203.234 57.9094C202.067 57.9094 200.967 57.126 199.934 55.5594C199.834 55.426 199.701 55.1927 199.534 54.8594C199.334 54.5594 199.167 54.3094 199.034 54.1094C198.901 53.9094 198.751 53.7094 198.584 53.5094C198.384 53.3427 198.217 53.2594 198.084 53.2594C197.717 53.2594 197.534 53.476 197.534 53.9094C197.534 54.4094 198.467 56.726 200.334 60.8594C201.601 63.6594 202.234 65.8427 202.234 67.4094C202.234 68.8094 201.801 69.926 200.934 70.7594C200.034 71.626 198.817 72.0594 197.284 72.0594H189.334V37.1094H192.784V68.5594H197.134C198.201 68.5594 198.734 68.176 198.734 67.4094C198.734 66.1094 197.967 63.8927 196.434 60.7594C194.934 57.7594 194.184 55.5427 194.184 54.1094C194.184 52.8094 194.467 51.726 195.034 50.8594C195.601 50.026 196.384 49.6094 197.384 49.6094C198.817 49.6094 200.051 50.3927 201.084 51.9594C201.184 52.126 201.317 52.3427 201.484 52.6094C201.617 52.876 201.751 53.0927 201.884 53.2594C201.984 53.4594 202.101 53.6427 202.234 53.8094C202.367 54.0094 202.501 54.1594 202.634 54.2594C202.767 54.3594 202.901 54.4094 203.034 54.4094C203.434 54.4094 203.634 54.1594 203.634 53.6594C203.634 52.6594 203.101 51.3927 202.034 49.8594C201.934 49.726 201.751 49.4594 201.484 49.0594C201.217 48.6594 201.034 48.3594 200.934 48.1594C200.801 47.9927 200.617 47.726 200.384 47.3594C200.117 46.9927 199.934 46.6927 199.834 46.4594C199.701 46.226 199.551 45.926 199.384 45.5594C199.217 45.226 199.101 44.9094 199.034 44.6094C198.967 44.3427 198.901 44.0427 198.834 43.7094C198.767 43.376 198.734 43.0594 198.734 42.7594C198.734 41.2927 199.251 39.976 200.284 38.8094C201.284 37.676 202.567 37.1094 204.134 37.1094H211.684ZM181.453 62.9594C181.453 65.426 180.636 67.676 179.003 69.7094C177.336 71.776 175.236 72.8094 172.703 72.8094C170.903 72.8094 169.353 72.2927 168.053 71.2594C166.72 70.2594 166.053 68.8094 166.053 66.9094C166.053 66.0427 166.353 65.176 166.953 64.3094C167.553 63.476 168.136 62.826 168.703 62.3594C169.27 61.8927 170.103 61.2594 171.203 60.4594C171.303 60.3927 171.37 60.3427 171.403 60.3094C171.436 60.276 171.486 60.226 171.553 60.1594C171.62 60.126 171.686 60.0927 171.753 60.0594C174.486 58.0594 175.853 56.776 175.853 56.2094C175.853 55.676 175.653 55.4094 175.253 55.4094C174.253 55.4094 172.653 56.2094 170.453 57.8094C167.953 59.6427 165.986 60.5594 164.553 60.5594C163.02 60.5594 161.686 60.2594 160.553 59.6594C159.386 59.0927 158.486 58.2927 157.853 57.2594C157.186 56.2594 156.703 55.1427 156.403 53.9094C156.07 52.676 155.903 51.326 155.903 49.8594C155.903 48.726 156.103 47.426 156.503 45.9594C156.87 44.4927 157.42 43.0094 158.153 41.5094C158.853 40.0427 159.836 38.8094 161.103 37.8094C162.37 36.8094 163.753 36.3094 165.253 36.3094C166.553 36.3094 167.62 36.726 168.453 37.5594C169.253 38.426 169.653 39.526 169.653 40.8594C169.653 42.0594 169.02 43.6094 167.753 45.5094C167.553 45.8094 167.27 46.2094 166.903 46.7094C166.536 47.2427 166.27 47.6427 166.103 47.9094C165.903 48.2094 165.72 48.526 165.553 48.8594C165.386 49.1927 165.303 49.4594 165.303 49.6594C165.303 50.0594 165.47 50.2594 165.803 50.2594C166.103 50.2594 166.403 50.1594 166.703 49.9594C167.003 49.7594 167.32 49.426 167.653 48.9594C167.953 48.526 168.236 48.0927 168.503 47.6594C168.736 47.2594 169.053 46.7094 169.453 46.0094C169.853 45.3094 170.186 44.7427 170.453 44.3094C171.186 43.1094 171.803 42.1427 172.303 41.4094C172.803 40.7094 173.453 39.9094 174.253 39.0094C175.02 38.1427 175.82 37.4927 176.653 37.0594C177.453 36.626 178.286 36.4094 179.153 36.4094C181.086 36.4094 182.553 36.9927 183.553 38.1594C184.52 39.3594 185.003 40.7594 185.003 42.3594C185.003 44.0594 184.286 45.5427 182.853 46.8094C181.386 48.1094 179.703 48.7594 177.803 48.7594V45.0594C178.803 45.0594 179.636 44.8094 180.303 44.3094C180.97 43.8094 181.303 43.1594 181.303 42.3594C181.303 41.6594 181.103 41.1094 180.703 40.7094C180.303 40.3094 179.786 40.1094 179.153 40.1094C178.753 40.1094 178.353 40.2427 177.953 40.5094C177.553 40.776 177.136 41.1927 176.703 41.7594C176.236 42.3594 175.836 42.8927 175.503 43.3594C175.17 43.8594 174.72 44.576 174.153 45.5094C173.553 46.476 173.103 47.1927 172.803 47.6594C169.97 51.9927 167.436 54.1594 165.203 54.1594C162.903 54.1594 161.753 52.776 161.753 50.0094C161.753 48.9094 162.42 47.226 163.753 44.9594C165.22 42.5594 165.953 41.1594 165.953 40.7594C165.953 40.2594 165.72 40.0094 165.253 40.0094C163.92 40.0094 162.653 41.0927 161.453 43.2594C160.22 45.426 159.603 47.626 159.603 49.8594C159.603 54.526 161.253 56.8594 164.553 56.8594C164.82 56.8594 165.086 56.826 165.353 56.7594C165.62 56.726 165.903 56.6427 166.203 56.5094C166.47 56.4094 166.703 56.3094 166.903 56.2094C167.103 56.1427 167.37 55.9927 167.703 55.7594C168.036 55.5594 168.27 55.4094 168.403 55.3094C168.536 55.2094 168.803 55.0094 169.203 54.7094C169.57 54.4427 169.82 54.2594 169.953 54.1594C170.02 54.0927 170.203 53.9594 170.503 53.7594C170.77 53.5594 170.953 53.426 171.053 53.3594C171.153 53.2927 171.336 53.1594 171.603 52.9594C171.836 52.7927 172.02 52.676 172.153 52.6094C172.286 52.576 172.47 52.4927 172.703 52.3594C172.936 52.226 173.136 52.126 173.303 52.0594C173.47 52.026 173.67 51.9594 173.903 51.8594C174.103 51.7927 174.32 51.7427 174.553 51.7094C174.753 51.7094 174.97 51.7094 175.203 51.7094C176.47 51.7094 177.52 52.1094 178.353 52.9094C179.153 53.7094 179.553 54.7427 179.553 56.0094C179.553 56.5094 179.453 56.9927 179.253 57.4594C179.053 57.926 178.703 58.4094 178.203 58.9094C177.67 59.4094 177.253 59.7927 176.953 60.0594C176.62 60.3594 176.053 60.7927 175.253 61.3594C174.453 61.9594 173.936 62.3427 173.703 62.5094C172.736 63.2427 172.053 63.776 171.653 64.1094C171.22 64.476 170.803 64.926 170.403 65.4594C169.97 65.9927 169.753 66.476 169.753 66.9094C169.753 68.376 170.736 69.1094 172.703 69.1094C174.003 69.1094 175.17 68.4927 176.203 67.2594C177.236 66.026 177.753 64.5927 177.753 62.9594H181.453ZM152.602 37.1094V72.1094H149.102V63.2594C147.602 64.5927 146.135 65.2594 144.702 65.2594C143.202 65.2594 142.102 64.876 141.402 64.1094C140.702 63.3427 140.335 62.4094 140.302 61.3094C140.269 60.2427 140.319 59.1594 140.452 58.0594C140.585 56.9927 140.619 56.076 140.552 55.3094C140.452 54.5427 140.102 54.1594 139.502 54.1594C138.869 54.1594 138.169 54.5594 137.402 55.3594C136.635 56.1594 136.035 56.9594 135.602 57.7594V72.1094H132.102V37.1094H135.602V52.6094C136.869 51.476 138.169 50.9094 139.502 50.9094C140.969 50.9094 142.052 51.2927 142.752 52.0594C143.419 52.826 143.769 53.7427 143.802 54.8094C143.802 55.9094 143.752 56.9927 143.652 58.0594C143.519 59.1594 143.502 60.0927 143.602 60.8594C143.702 61.626 144.069 62.0094 144.702 62.0094C145.869 62.0094 147.335 60.826 149.102 58.4594V37.1094H152.602ZM126.625 37.0094V72.1094H123.125V60.3594C121.659 61.826 120.042 62.5594 118.275 62.5594C116.775 62.5594 115.609 62.026 114.775 60.9594C113.909 59.926 113.475 58.7094 113.475 57.3094C113.475 55.576 114.309 53.3594 115.975 50.6594C117.342 48.4594 118.025 47.176 118.025 46.8094C118.025 46.3094 117.825 46.0594 117.425 46.0594C117.225 46.0594 117.042 46.1094 116.875 46.2094C116.675 46.3427 116.492 46.5427 116.325 46.8094C116.125 47.076 115.975 47.3094 115.875 47.5094C115.742 47.7427 115.575 48.076 115.375 48.5094C115.142 48.976 114.975 49.326 114.875 49.5594C114.809 49.6594 114.692 49.8927 114.525 50.2594C114.359 50.6594 114.242 50.926 114.175 51.0594C114.075 51.1927 113.942 51.4094 113.775 51.7094C113.575 52.0094 113.409 52.226 113.275 52.3594C113.109 52.4927 112.909 52.6427 112.675 52.8094C112.442 52.976 112.192 53.0927 111.925 53.1594C111.625 53.226 111.309 53.2594 110.975 53.2594C109.709 53.2594 108.659 52.676 107.825 51.5094C106.992 50.376 106.575 48.726 106.575 46.5594C106.575 43.5594 107.542 41.1927 109.475 39.4594C111.375 37.726 113.875 36.8594 116.975 36.8594C117.575 36.8594 118.309 36.8594 119.175 36.8594C120.042 36.8594 120.875 36.876 121.675 36.9094C122.442 36.9094 123.175 36.9094 123.875 36.9094C124.542 36.9094 125.109 36.9094 125.575 36.9094C126.009 36.9094 126.242 36.9094 126.275 36.9094V37.0094H126.625ZM118.425 59.0594C118.792 59.0594 119.142 58.9927 119.475 58.8594C119.809 58.7594 120.125 58.5594 120.425 58.2594C120.692 57.9594 120.925 57.7094 121.125 57.5094C121.325 57.3094 121.542 56.9594 121.775 56.4594C122.009 55.9594 122.175 55.6094 122.275 55.4094C122.375 55.2427 122.542 54.8594 122.775 54.2594C122.975 53.6594 123.092 53.326 123.125 53.2594V40.4094C121.825 40.376 119.775 40.3594 116.975 40.3594C114.742 40.3594 113.042 40.9094 111.875 42.0094C110.675 43.1094 110.075 44.626 110.075 46.5594C110.075 48.6927 110.375 49.7594 110.975 49.7594C111.109 49.7594 111.242 49.6927 111.375 49.5594C111.509 49.4594 111.642 49.276 111.775 49.0094C111.909 48.776 112.025 48.526 112.125 48.2594C112.225 48.026 112.375 47.6927 112.575 47.2594C112.742 46.8594 112.892 46.5094 113.025 46.2094C114.159 43.776 115.625 42.5594 117.425 42.5594C118.592 42.5594 119.575 42.9427 120.375 43.7094C121.142 44.5094 121.525 45.5427 121.525 46.8094C121.525 47.8427 120.742 49.626 119.175 52.1594C117.709 54.5594 116.975 56.276 116.975 57.3094C116.975 57.776 117.125 58.176 117.425 58.5094C117.692 58.876 118.025 59.0594 118.425 59.0594Z" fill="#FDFDFD"/>
<path d="M281.876 20.6156C280.88 20.6156 280.142 20.3516 279.662 19.8236C279.17 19.2956 278.924 18.5216 278.924 17.5016V15.8636C278.924 14.8436 279.17 14.0696 279.662 13.5416C280.142 13.0136 280.88 12.7496 281.876 12.7496H282.812V8.01562H284.792V20.6156H281.876ZM282.812 18.8156V14.5496H281.876C281.564 14.5496 281.324 14.6336 281.156 14.8016C280.988 14.9696 280.904 15.2816 280.904 15.7376V17.6276C280.904 18.0836 280.988 18.3956 281.156 18.5636C281.324 18.7316 281.564 18.8156 281.876 18.8156H282.812ZM271.634 8.01562H273.632L273.974 10.3016H276.404L276.746 8.01562H278.564L276.548 20.6156H273.65L271.634 8.01562ZM276.152 12.0116H274.244L275.198 18.3836L276.152 12.0116ZM266.985 17.5196C266.985 18.0836 267.081 18.4616 267.273 18.6536C267.453 18.8576 267.699 18.9596 268.011 18.9596C268.323 18.9596 268.575 18.8636 268.767 18.6716C268.947 18.4916 269.037 18.1736 269.037 17.7176V16.3676H270.909V17.5916C270.909 18.6116 270.663 19.3916 270.171 19.9316C269.667 20.4836 268.929 20.7596 267.957 20.7596C266.985 20.7596 266.253 20.4836 265.761 19.9316C265.257 19.3916 265.005 18.6116 265.005 17.5916V17.2676C265.005 15.9236 265.467 15.0596 266.391 14.6756C265.887 14.4596 265.533 14.1236 265.329 13.6676C265.113 13.2236 265.005 12.6776 265.005 12.0296V11.0396C265.005 10.0196 265.257 9.23363 265.761 8.68163C266.253 8.14162 266.985 7.87162 267.957 7.87162C268.929 7.87162 269.667 8.14162 270.171 8.68163C270.663 9.23363 270.909 10.0196 270.909 11.0396V12.6236H269.037V10.9136C269.037 10.4576 268.947 10.1336 268.767 9.94163C268.575 9.76163 268.323 9.67163 268.011 9.67163C267.699 9.67163 267.453 9.76763 267.273 9.95963C267.081 10.1516 266.985 10.5296 266.985 11.0936V12.0836C266.985 12.6716 267.087 13.0856 267.291 13.3256C267.495 13.5656 267.825 13.6856 268.281 13.6856H268.587V15.4856H268.173C267.801 15.4856 267.513 15.5816 267.309 15.7736C267.093 15.9656 266.985 16.3136 266.985 16.8176V17.5196ZM260.835 20.6156C259.839 20.6156 259.101 20.3516 258.621 19.8236C258.129 19.2956 257.883 18.5216 257.883 17.5016V15.8636C257.883 14.8436 258.129 14.0696 258.621 13.5416C259.101 13.0136 259.839 12.7496 260.835 12.7496H261.771V8.01563H263.751V20.6156H260.835ZM261.771 18.8156V14.5496H260.835C260.523 14.5496 260.283 14.6336 260.115 14.8016C259.947 14.9696 259.863 15.2816 259.863 15.7376V17.6276C259.863 18.0836 259.947 18.3956 260.115 18.5636C260.283 18.7316 260.523 18.8156 260.835 18.8156H261.771ZM256.443 9.81563C256.335 9.80363 256.221 9.79763 256.101 9.79763C255.981 9.79763 255.867 9.79763 255.759 9.79763C255.603 9.79763 255.459 9.81563 255.327 9.85163C255.183 9.88763 255.063 9.95363 254.967 10.0496C254.859 10.1456 254.781 10.2836 254.733 10.4636C254.673 10.6436 254.643 10.8716 254.643 11.1476L257.523 20.6156H255.543L253.365 13.2356L251.565 20.6156H249.585L252.177 11.3276C252.405 10.4636 252.639 9.79763 252.879 9.32963C253.107 8.87363 253.353 8.54363 253.617 8.33963C253.881 8.14763 254.169 8.03963 254.481 8.01563C254.781 7.99162 255.117 7.97962 255.489 7.97962C255.669 7.97962 255.831 7.97962 255.975 7.97962C256.119 7.97962 256.275 7.99162 256.443 8.01563V9.81563ZM243.124 9.81563H241.522V20.6156H239.524V8.01563H248.686V20.6156H246.724V9.81563H245.104V20.6156H243.124V9.81563ZM236.107 15.3056H233.389V13.5056H236.107V9.81563H232.687V8.01563H238.087V20.6156H232.687V18.8156H236.107V15.3056ZM229.532 8.01563H231.512V20.6156H229.532V15.2156H227.282V20.6156H225.266V8.01563H227.282V13.4156H229.532V8.01563ZM221.851 8.01563H223.831V20.6156H221.851V15.2156H219.601V20.6156H217.585V8.01563H219.601V13.4156H221.851V8.01563ZM213.233 9.81563C212.921 9.81563 212.681 9.89963 212.513 10.0676C212.345 10.2356 212.261 10.5476 212.261 11.0036V12.8936C212.261 13.3496 212.345 13.6616 212.513 13.8296C212.681 13.9976 212.921 14.0816 213.233 14.0816H214.169V9.81563H213.233ZM216.149 8.01563V20.6156H214.169V15.8816H213.233C212.237 15.8816 211.499 15.6176 211.019 15.0896C210.527 14.5616 210.281 13.7876 210.281 12.7676V11.1296C210.281 10.1096 210.527 9.33563 211.019 8.80763C211.499 8.27963 212.237 8.01563 213.233 8.01563H216.149ZM209.309 20.6156H207.329V8.01563H209.309V20.6156ZM203.85 8.01563H205.884V20.6156H204.12V13.0736L202.086 20.6156H199.602V8.01563H201.384V17.1416L203.85 8.01563ZM200.538 22.7936V21.3176H204.894V22.7936H200.538ZM191.16 11.6696L189.81 20.6156H187.056V8.01563H188.928V17.0516L190.296 8.01563H192.168L193.644 16.9256V8.01563H195.372V20.6156L192.618 20.6156L191.16 11.6696ZM183.816 10.9136C183.816 10.4576 183.726 10.1336 183.546 9.94163C183.354 9.76163 183.102 9.67163 182.79 9.67163C182.478 9.67163 182.232 9.76163 182.052 9.94163C181.86 10.1336 181.764 10.4576 181.764 10.9136V17.7176C181.764 18.1736 181.86 18.4916 182.052 18.6716C182.232 18.8636 182.478 18.9596 182.79 18.9596C183.102 18.9596 183.354 18.8636 183.546 18.6716C183.726 18.4916 183.816 18.1736 183.816 17.7176V10.9136ZM185.796 17.5916C185.796 18.6116 185.538 19.3916 185.022 19.9316C184.506 20.4836 183.762 20.7596 182.79 20.7596C181.818 20.7596 181.074 20.4836 180.558 19.9316C180.042 19.3916 179.784 18.6116 179.784 17.5916V11.0396C179.784 10.0196 180.042 9.23363 180.558 8.68163C181.074 8.14162 181.818 7.87162 182.79 7.87162C183.762 7.87162 184.506 8.14162 185.022 8.68163C185.538 9.23363 185.796 10.0196 185.796 11.0396V17.5916ZM172.808 12.7136V11.0396C172.808 10.0196 173.06 9.23363 173.564 8.68163C174.056 8.14162 174.788 7.87162 175.76 7.87162C176.732 7.87162 177.47 8.14162 177.974 8.68163C178.466 9.23363 178.712 10.0196 178.712 11.0396V17.5916C178.712 18.6116 178.466 19.3916 177.974 19.9316C177.47 20.4836 176.732 20.7596 175.76 20.7596C174.788 20.7596 174.056 20.4836 173.564 19.9316C173.06 19.3916 172.808 18.6116 172.808 17.5916V16.3676H174.68V17.7176C174.68 18.1736 174.776 18.4916 174.968 18.6716C175.148 18.8636 175.394 18.9596 175.706 18.9596C176.018 18.9596 176.27 18.8636 176.462 18.6716C176.642 18.4916 176.732 18.1736 176.732 17.7176V10.9136C176.732 10.4576 176.642 10.1396 176.462 9.95963C176.27 9.77963 176.018 9.68963 175.706 9.68963C175.394 9.68963 175.148 9.77963 174.968 9.95963C174.776 10.1396 174.68 10.4576 174.68 10.9136V12.7136H172.808ZM168.961 13.0376L169.573 11.8856V8.01563H171.553V20.6156H169.573V15.1256L166.945 20.6156H165.001L167.755 14.9996L165.001 8.01563H167.035L168.961 13.0376ZM162.3 10.9136C162.3 10.4576 162.21 10.1336 162.03 9.94163C161.838 9.76163 161.586 9.67163 161.274 9.67163C160.962 9.67163 160.716 9.76163 160.536 9.94163C160.344 10.1336 160.248 10.4576 160.248 10.9136V17.7176C160.248 18.1736 160.344 18.4916 160.536 18.6716C160.716 18.8636 160.962 18.9596 161.274 18.9596C161.586 18.9596 161.838 18.8636 162.03 18.6716C162.21 18.4916 162.3 18.1736 162.3 17.7176V10.9136ZM164.28 17.5916C164.28 18.6116 164.022 19.3916 163.506 19.9316C162.99 20.4836 162.246 20.7596 161.274 20.7596C160.302 20.7596 159.558 20.4836 159.042 19.9316C158.526 19.3916 158.268 18.6116 158.268 17.5916V11.0396C158.268 10.0196 158.526 9.23363 159.042 8.68163C159.558 8.14162 160.302 7.87162 161.274 7.87162C162.246 7.87162 162.99 8.14162 163.506 8.68163C164.022 9.23363 164.28 10.0196 164.28 11.0396V17.5916ZM154.028 20.6156C152.996 20.6156 152.252 20.3756 151.796 19.8956C151.328 19.4156 151.094 18.6896 151.094 17.7176V17.2676C151.094 16.6196 151.196 16.0856 151.4 15.6656C151.604 15.2456 151.928 14.9336 152.372 14.7296C151.832 14.5256 151.454 14.1896 151.238 13.7216C151.01 13.2656 150.896 12.7016 150.896 12.0296V11.0036C150.896 10.0316 151.148 9.28763 151.652 8.77163C152.156 8.26763 152.906 8.01563 153.902 8.01563H157.016V20.6156H154.028ZM155.036 13.6856V9.81563H153.902C153.566 9.81563 153.314 9.90563 153.146 10.0856C152.966 10.2656 152.876 10.5896 152.876 11.0576V12.1556C152.876 12.7436 152.978 13.1456 153.182 13.3616C153.374 13.5776 153.698 13.6856 154.154 13.6856H155.036ZM155.036 18.8156V15.4856H154.262C153.89 15.4856 153.602 15.5816 153.398 15.7736C153.182 15.9656 153.074 16.3136 153.074 16.8176V17.5196C153.074 17.9756 153.158 18.3056 153.326 18.5096C153.482 18.7136 153.734 18.8156 154.082 18.8156H155.036ZM143.997 12.7136V11.0396C143.997 10.0196 144.249 9.23363 144.753 8.68163C145.245 8.14162 145.977 7.87162 146.949 7.87162C147.921 7.87162 148.659 8.14162 149.163 8.68163C149.655 9.23363 149.901 10.0196 149.901 11.0396V17.5916C149.901 18.6116 149.655 19.3916 149.163 19.9316C148.659 20.4836 147.921 20.7596 146.949 20.7596C145.977 20.7596 145.245 20.4836 144.753 19.9316C144.249 19.3916 143.997 18.6116 143.997 17.5916V16.3676H145.869V17.7176C145.869 18.1736 145.965 18.4916 146.157 18.6716C146.337 18.8636 146.583 18.9596 146.895 18.9596C147.207 18.9596 147.459 18.8636 147.651 18.6716C147.831 18.4916 147.921 18.1736 147.921 17.7176V10.9136C147.921 10.4576 147.831 10.1396 147.651 9.95963C147.459 9.77963 147.207 9.68963 146.895 9.68963C146.583 9.68963 146.337 9.77963 146.157 9.95963C145.965 10.1396 145.869 10.4576 145.869 10.9136V12.7136H143.997ZM140.151 13.0376L140.763 11.8856V8.01563H142.743V20.6156H140.763V15.1256L138.135 20.6156H136.191L138.945 14.9996L136.191 8.01563H138.225L140.151 13.0376ZM133.256 8.01563H135.29V20.6156H133.526V13.0736L131.492 20.6156H129.008V8.01563H130.79V17.1416L133.256 8.01563ZM125.539 8.01563H127.573V20.6156H125.809V13.0736L123.775 20.6156H121.291V8.01563H123.073V17.1416L125.539 8.01563ZM122.227 22.7936V21.3176L126.583 21.3176V22.7936L122.227 22.7936ZM117.601 20.6156H111.481V18.8156H113.551V8.01563H115.531V18.8156H117.601V20.6156ZM108.595 15.3056H105.877V13.5056H108.595V9.81563H105.175V8.01563H110.575V20.6156H105.175V18.8156H108.595V15.3056ZM97.6107 8.01563H99.6087L99.9507 10.3016H102.381L102.723 8.01563H104.541L102.525 20.6156H99.6267L97.6107 8.01563ZM102.129 12.0116H100.221L101.175 18.3836L102.129 12.0116ZM97.2458 20.6156H91.1258V18.8156H93.1958V8.01563H95.1758V18.8156H97.2458V20.6156ZM87.3035 20.6156C86.3075 20.6156 85.5695 20.3516 85.0895 19.8236C84.5975 19.2956 84.3515 18.5216 84.3515 17.5016V15.8636C84.3515 14.8436 84.5975 14.0696 85.0895 13.5416C85.5695 13.0136 86.3075 12.7496 87.3035 12.7496H88.2395V8.01563H90.2195V20.6156H87.3035ZM88.2395 18.8156V14.5496H87.3035C86.9915 14.5496 86.7515 14.6336 86.5835 14.8016C86.4155 14.9696 86.3315 15.2816 86.3315 15.7376V17.6276C86.3315 18.0836 86.4155 18.3956 86.5835 18.5636C86.7515 18.7316 86.9915 18.8156 87.3035 18.8156H88.2395Z" fill="#FDFDFD"/>
</svg>
