<svg width="303" height="136" viewBox="0 0 303 136" fill="none" xmlns="http://www.w3.org/2000/svg">
<rect width="59" height="136" rx="14" transform="matrix(1 0 0 -1 0 136)" fill="#761614"/>
<path d="M12.1719 113.286V109.586C12.3052 109.52 13.8385 109.12 16.7719 108.386C19.6719 107.653 23.0052 106.903 26.7719 106.136C30.5385 105.37 33.1885 104.986 34.7219 104.986C36.2219 104.986 37.4219 105.386 38.3219 106.186C39.2219 106.953 39.6719 107.953 39.6719 109.186C39.6719 110.42 39.1719 111.403 38.1719 112.136C37.1719 112.836 35.7885 113.47 34.0219 114.036C33.5885 114.17 33.0552 114.336 32.4219 114.536C31.7885 114.703 31.2885 114.853 30.9219 114.986C30.5219 115.086 30.1385 115.22 29.7719 115.386C29.3719 115.52 29.0885 115.653 28.9219 115.786C28.7219 115.92 28.6219 116.053 28.6219 116.186C28.6219 116.586 29.2719 116.786 30.5719 116.786C32.3385 116.786 34.8052 116.32 37.9719 115.386C41.1052 114.42 43.8719 113.32 46.2719 112.086L47.1719 111.636V115.736C44.5719 117.003 41.6552 118.103 38.4219 119.036C35.1885 119.936 32.5719 120.386 30.5719 120.386C28.9052 120.386 27.5719 120.036 26.5719 119.336C25.5385 118.603 25.0219 117.636 25.0219 116.436C25.0219 115.236 25.5052 114.286 26.4719 113.586C27.4052 112.886 28.7219 112.236 30.4219 111.636C30.8885 111.47 31.4385 111.286 32.0719 111.086C32.6719 110.886 33.1885 110.736 33.6219 110.636C34.0219 110.503 34.4219 110.37 34.8219 110.236C35.1885 110.07 35.4719 109.92 35.6719 109.786C35.8719 109.62 35.9719 109.453 35.9719 109.286C35.9719 108.853 35.5552 108.636 34.7219 108.636C32.0885 108.636 25.7885 109.836 15.8219 112.236L23.1719 119.386L20.7719 121.686L12.1719 113.286ZM12.1719 93.9992V90.2992C12.3052 90.2326 13.8385 89.8326 16.7719 89.0992C19.6719 88.3659 23.0052 87.6159 26.7719 86.8492C30.5385 86.0826 33.1885 85.6992 34.7219 85.6992C36.2219 85.6992 37.4219 86.0992 38.3219 86.8992C39.2219 87.6659 39.6719 88.6659 39.6719 89.8992C39.6719 91.1326 39.1719 92.1159 38.1719 92.8492C37.1719 93.5492 35.7885 94.1826 34.0219 94.7492C33.5885 94.8826 33.0552 95.0492 32.4219 95.2492C31.7885 95.4159 31.2885 95.5659 30.9219 95.6992C30.5219 95.7992 30.1385 95.9326 29.7719 96.0992C29.3719 96.2326 29.0885 96.3659 28.9219 96.4992C28.7219 96.6326 28.6219 96.7659 28.6219 96.8992C28.6219 97.2992 29.2719 97.4992 30.5719 97.4992C32.3385 97.4992 34.8052 97.0326 37.9719 96.0992C41.1052 95.1326 43.8719 94.0326 46.2719 92.7992L47.1719 92.3492V96.4492C44.5719 97.7159 41.6552 98.8159 38.4219 99.7492C35.1885 100.649 32.5719 101.099 30.5719 101.099C28.9052 101.099 27.5719 100.749 26.5719 100.049C25.5385 99.3159 25.0219 98.3492 25.0219 97.1492C25.0219 95.9492 25.5052 94.9992 26.4719 94.2992C27.4052 93.5992 28.7219 92.9492 30.4219 92.3492C30.8885 92.1826 31.4385 91.9992 32.0719 91.7992C32.6719 91.5992 33.1885 91.4492 33.6219 91.3492C34.0219 91.2159 34.4219 91.0826 34.8219 90.9492C35.1885 90.7826 35.4719 90.6326 35.6719 90.4992C35.8719 90.3326 35.9719 90.1659 35.9719 89.9992C35.9719 89.5659 35.5552 89.3492 34.7219 89.3492C32.0885 89.3492 25.7885 90.5492 15.8219 92.9492L23.1719 100.099L20.7719 102.399L12.1719 93.9992Z" fill="#FDFDFD"/>
<path d="M39.1719 71.6771V74.5371H20.9719V71.6771H28.7719V68.4271H20.9719V65.5151H39.1719V68.4271H31.3719V71.6771H39.1719ZM34.9859 60.8414C35.6445 60.8414 36.1125 60.7114 36.3899 60.4514C36.6499 60.1741 36.7799 59.8101 36.7799 59.3594C36.7799 58.9088 36.6499 58.5534 36.3899 58.2934C36.1125 58.0161 35.6445 57.8774 34.9859 57.8774H25.1579C24.4992 57.8774 24.0399 58.0161 23.7799 58.2934C23.5025 58.5534 23.3639 58.9088 23.3639 59.3594C23.3639 59.8101 23.5025 60.1741 23.7799 60.4514C24.0399 60.7114 24.4992 60.8414 25.1579 60.8414H34.9859ZM25.3399 63.7014C23.8665 63.7014 22.7399 63.3288 21.9599 62.5834C21.1625 61.8381 20.7639 60.7634 20.7639 59.3594C20.7639 57.9554 21.1625 56.8808 21.9599 56.1354C22.7399 55.3901 23.8665 55.0174 25.3399 55.0174H34.8039C36.2772 55.0174 37.4125 55.3901 38.2099 56.1354C38.9899 56.8808 39.3799 57.9554 39.3799 59.3594C39.3799 60.7634 38.9899 61.8381 38.2099 62.5834C37.4125 63.3288 36.2772 63.7014 34.8039 63.7014H25.3399ZM23.5719 49.075C23.5719 49.5777 23.7192 49.9504 24.0139 50.193C24.3085 50.4184 24.7852 50.531 25.4439 50.531H27.2379C27.9659 50.531 28.4685 50.3837 28.7459 50.089C29.0232 49.777 29.1619 49.3524 29.1619 48.815V47.697H23.5719V49.075ZM39.1719 53.729C38.8252 53.5904 38.4872 53.5037 38.1579 53.469C37.8112 53.4344 37.4125 53.417 36.9619 53.417H34.1539C33.2005 53.417 32.3945 53.287 31.7359 53.027C31.0599 52.7497 30.5745 52.247 30.2799 51.519C29.6905 52.767 28.4599 53.391 26.5879 53.391H25.1579C23.7539 53.391 22.7052 53.0617 22.0119 52.403C21.3185 51.727 20.9719 50.6437 20.9719 49.153V44.837H39.1719V47.697H31.7619V48.685C31.7619 49.3437 31.9352 49.8204 32.2819 50.115C32.6285 50.4097 33.2265 50.557 34.0759 50.557H36.9359C37.2999 50.557 37.6032 50.5657 37.8459 50.583C38.0885 50.583 38.2879 50.6004 38.4439 50.635C38.5999 50.6524 38.7299 50.6784 38.8339 50.713C38.9379 50.7477 39.0505 50.7824 39.1719 50.817V53.729ZM27.8099 39.8881V38.5361C27.8099 37.0974 28.1912 36.0314 28.9539 35.3381C29.7165 34.6274 30.8345 34.2721 32.3079 34.2721L34.6739 34.2721C36.1472 34.2721 37.2652 34.6274 38.0279 35.3381C38.7905 36.0314 39.1719 37.0974 39.1719 38.5361L39.1719 42.7481L20.9719 42.7481L20.9719 35.1821H23.5719L23.5719 39.8881H27.8099ZM36.5719 38.5361C36.5719 38.0854 36.4505 37.7388 36.2079 37.4961C35.9652 37.2534 35.5145 37.1321 34.8559 37.1321L32.1259 37.1321C31.4672 37.1321 31.0165 37.2534 30.7739 37.4961C30.5312 37.7388 30.4099 38.0854 30.4099 38.5361V39.8881L36.5719 39.8881V38.5361ZM20.9719 28.3798C20.9719 26.9412 21.3532 25.8752 22.1159 25.1818C22.8785 24.4712 23.9965 24.1158 25.4699 24.1158H27.8359C29.3092 24.1158 30.4272 24.4712 31.1899 25.1818C31.9525 25.8752 32.3339 26.9412 32.3339 28.3798V29.7318L39.1719 29.7318V32.5918L20.9719 32.5918V28.3798ZM23.5719 29.7318H29.7339V28.3798C29.7339 27.9292 29.6125 27.5825 29.3699 27.3398C29.1272 27.0972 28.6765 26.9758 28.0179 26.9758H25.2879C24.6292 26.9758 24.1785 27.0972 23.9359 27.3398C23.6932 27.5825 23.5719 27.9292 23.5719 28.3798L23.5719 29.7318ZM23.5719 18.6824C23.5719 19.1851 23.7192 19.5578 24.0139 19.8004C24.3085 20.0258 24.7852 20.1384 25.4439 20.1384H27.2379C27.9659 20.1384 28.4685 19.9911 28.7459 19.6964C29.0232 19.3844 29.1619 18.9598 29.1619 18.4224V17.3044H23.5719V18.6824ZM39.1719 23.3364C38.8252 23.1978 38.4872 23.1111 38.1579 23.0764C37.8112 23.0418 37.4125 23.0244 36.9619 23.0244H34.1539C33.2005 23.0244 32.3945 22.8944 31.7359 22.6344C31.0599 22.3571 30.5745 21.8544 30.2799 21.1264C29.6905 22.3744 28.4599 22.9984 26.5879 22.9984H25.1579C23.7539 22.9984 22.7052 22.6691 22.0119 22.0104C21.3185 21.3344 20.9719 20.2511 20.9719 18.7604V14.4444L39.1719 14.4444V17.3044L31.7619 17.3044V18.2924C31.7619 18.9511 31.9352 19.4278 32.2819 19.7224C32.6285 20.0171 33.2265 20.1644 34.0759 20.1644H36.9359C37.2999 20.1644 37.6032 20.1731 37.8459 20.1904C38.0885 20.1904 38.2879 20.2078 38.4439 20.2424C38.5999 20.2598 38.7299 20.2858 38.8339 20.3204C38.9379 20.3551 39.0505 20.3898 39.1719 20.4244V23.3364Z" fill="#FDFDFD"/>
<rect width="236" height="136" rx="14" transform="matrix(1 0 0 -1 67 136)" fill="#761614"/>
<path d="M246.389 104.751C249.123 109.385 250.823 112.285 251.489 113.451L251.439 116.701H232.639V85.2012C232.173 85.2345 231.706 85.2012 231.239 85.1012C230.739 85.0345 230.156 84.8845 229.489 84.6512C228.823 84.4512 228.289 84.0345 227.889 83.4012C227.489 82.8012 227.289 82.0512 227.289 81.1512C227.289 80.5512 227.373 80.0178 227.539 79.5512C227.706 79.0512 227.889 78.6512 228.089 78.3512C228.256 78.0178 228.556 77.7345 228.989 77.5012C229.423 77.2678 229.756 77.1012 229.989 77.0012C230.223 76.9012 230.656 76.8178 231.289 76.7512C231.889 76.6845 232.289 76.6512 232.489 76.6512C232.656 76.6512 233.089 76.6512 233.789 76.6512C234.489 76.6512 234.856 76.6512 234.889 76.6512C236.189 76.6512 236.839 76.3845 236.839 75.8512C236.839 75.0845 235.439 74.7012 232.639 74.7012V71.2012C235.439 71.2012 237.423 71.6012 238.589 72.4012C239.756 73.1678 240.339 74.3012 240.339 75.8012C240.339 76.6012 240.189 77.2845 239.889 77.8512C239.556 78.4178 239.173 78.8512 238.739 79.1512C238.306 79.4512 237.739 79.6845 237.039 79.8512C236.306 79.9845 235.689 80.0678 235.189 80.1012C234.689 80.1345 234.073 80.1512 233.339 80.1512C231.639 80.1512 230.789 80.4845 230.789 81.1512C230.789 81.5178 231.539 81.7012 233.039 81.7012H248.739C250.439 81.7012 252.273 82.7178 254.239 84.7512C254.706 85.2178 255.289 85.8678 255.989 86.7012C256.689 87.5345 257.239 88.1345 257.639 88.5012C258.006 88.9012 258.306 89.1012 258.539 89.1012C258.873 89.1012 259.039 88.9178 259.039 88.5512C259.039 87.2178 256.089 83.3512 250.189 76.9512L252.989 74.4012C256.156 77.7678 258.589 80.6012 260.289 82.9012C261.989 85.2012 262.839 87.1512 262.839 88.7512C262.839 90.0845 262.473 91.1012 261.739 91.8012C260.973 92.5345 259.906 92.9012 258.539 92.9012C257.673 92.9012 256.856 92.5845 256.089 91.9512C255.289 91.3178 254.339 90.3678 253.239 89.1012C252.573 88.3345 252.123 87.8012 251.889 87.5012C251.623 87.2345 251.239 86.8345 250.739 86.3012C250.206 85.8012 249.789 85.4512 249.489 85.2512C249.189 85.0512 248.939 84.9512 248.739 84.9512C247.806 84.9512 248.656 86.7845 251.289 90.4512C251.389 90.5845 251.523 90.7678 251.689 91.0012C251.956 91.3345 252.139 91.5845 252.239 91.7512C255.239 95.9178 256.739 98.8345 256.739 100.501C256.739 101.668 256.339 102.635 255.539 103.401C254.706 104.201 253.706 104.601 252.539 104.601C252.039 104.601 251.556 104.485 251.089 104.251C250.589 104.018 250.089 103.651 249.589 103.151C249.056 102.651 248.623 102.185 248.289 101.751C247.923 101.351 247.456 100.768 246.889 100.001C246.289 99.2345 245.823 98.6512 245.489 98.2512C245.256 97.9845 245.006 97.6678 244.739 97.3012C244.473 96.9678 244.273 96.7178 244.139 96.5512C244.006 96.3845 243.856 96.1845 243.689 95.9512C243.489 95.7512 243.339 95.6012 243.239 95.5012C243.139 95.4345 243.039 95.3512 242.939 95.2512C242.806 95.1512 242.689 95.0845 242.589 95.0512C242.489 95.0178 242.389 95.0012 242.289 95.0012C241.956 95.0012 241.789 95.2178 241.789 95.6512C241.789 96.0512 241.856 96.4678 241.989 96.9012C242.123 97.3678 242.356 97.9012 242.689 98.5012C243.023 99.1345 243.339 99.7012 243.639 100.201C243.939 100.701 244.389 101.418 244.989 102.351C245.556 103.318 246.023 104.118 246.389 104.751ZM252.939 100.401C252.939 99.4012 251.689 97.0678 249.189 93.4012C246.789 89.9012 244.906 87.0845 243.539 84.9512H236.139L236.089 113.451H247.139C246.573 112.551 245.823 111.301 244.889 109.701C243.956 108.101 243.373 107.101 243.139 106.701C242.906 106.301 242.523 105.651 241.989 104.751C241.456 103.885 241.089 103.268 240.889 102.901C240.656 102.568 240.356 102.051 239.989 101.351C239.589 100.651 239.306 100.101 239.139 99.7012C238.973 99.3345 238.789 98.8678 238.589 98.3012C238.356 97.7345 238.206 97.2178 238.139 96.7512C238.073 96.2845 238.039 95.8178 238.039 95.3512C238.039 94.0845 238.373 93.0845 239.039 92.3512C239.706 91.6178 240.623 91.2512 241.789 91.2512C242.989 91.2512 243.989 91.5678 244.789 92.2012C245.589 92.8345 246.623 94.0012 247.889 95.7012C248.056 95.9345 248.273 96.2345 248.539 96.6012C248.806 96.9678 249.023 97.2512 249.189 97.4512C249.323 97.6512 249.506 97.9012 249.739 98.2012C249.973 98.5345 250.173 98.7845 250.339 98.9512C250.473 99.1512 250.639 99.3678 250.839 99.6012C251.039 99.8345 251.206 100.001 251.339 100.101C251.473 100.235 251.623 100.368 251.789 100.501C251.923 100.635 252.056 100.718 252.189 100.751C252.323 100.818 252.439 100.851 252.539 100.851C252.806 100.851 252.939 100.701 252.939 100.401ZM223.918 81.7012V116.751C223.251 116.751 222.235 116.735 220.868 116.701C219.468 116.701 218.418 116.701 217.718 116.701C215.851 116.701 214.368 116.101 213.268 114.901C212.135 113.701 211.568 112.368 211.568 110.901C211.568 109.401 212.118 107.351 213.218 104.751C214.318 102.185 214.868 100.301 214.868 99.1012C214.868 98.5345 214.585 98.2512 214.018 98.2512C213.618 98.2512 213.268 98.7678 212.968 99.8012C212.635 100.868 212.335 102.018 212.068 103.251C211.768 104.518 211.235 105.668 210.468 106.701C209.668 107.768 208.668 108.301 207.468 108.301C206.601 108.301 205.868 108.101 205.268 107.701C204.668 107.335 204.235 106.918 203.968 106.451C203.668 105.985 203.451 105.351 203.318 104.551C203.151 103.785 203.068 103.201 203.068 102.801C203.035 102.435 203.018 101.935 203.018 101.301C203.018 97.4678 204.135 94.0678 206.368 91.1012C208.601 88.1678 211.318 86.7012 214.518 86.7012C216.518 86.7012 218.485 87.4512 220.418 88.9512V81.7012H223.918ZM217.718 113.451H220.418V93.4012C218.518 91.1012 216.551 89.9512 214.518 89.9512C212.418 89.9512 210.518 91.0512 208.818 93.2512C207.118 95.4845 206.268 98.1678 206.268 101.301C206.268 102.435 206.335 103.301 206.468 103.901C206.601 104.501 206.735 104.835 206.868 104.901C207.001 105.001 207.185 105.051 207.418 105.051C207.851 105.051 208.235 104.518 208.568 103.451C208.901 102.418 209.218 101.268 209.518 100.001C209.785 98.7678 210.301 97.6178 211.068 96.5512C211.835 95.5178 212.818 95.0012 214.018 95.0012C215.051 95.0012 216.001 95.3678 216.868 96.1012C217.701 96.8345 218.118 97.8345 218.118 99.1012C218.118 100.701 217.568 102.801 216.468 105.401C215.368 108.001 214.818 109.835 214.818 110.901C214.818 111.535 215.085 112.118 215.618 112.651C216.118 113.185 216.818 113.451 217.718 113.451ZM181.874 117.201H178.524C178.524 108.368 178.524 103.835 178.524 103.601C178.791 93.4345 180.357 86.7178 183.224 83.4512C184.857 81.6178 186.924 80.7012 189.424 80.7012C191.924 80.7012 193.991 81.7678 195.624 83.9012C197.224 86.0345 198.024 88.5678 198.024 91.5012H194.624C194.624 89.5678 194.124 87.9012 193.124 86.5012C192.091 85.1012 190.857 84.4012 189.424 84.4012C186.524 84.4012 184.457 86.7012 183.224 91.3012C184.791 90.1345 186.191 89.5512 187.424 89.5512C188.491 89.5512 189.374 89.9678 190.074 90.8012C190.774 91.6345 191.124 92.6678 191.124 93.9012C191.124 94.2678 191.041 94.6845 190.874 95.1512C190.674 95.6178 190.491 96.0012 190.324 96.3012C190.124 96.6012 189.824 97.0345 189.424 97.6012C188.991 98.2012 188.707 98.6012 188.574 98.8012C187.441 100.535 186.874 101.568 186.874 101.901C186.874 102.235 187.007 102.401 187.274 102.401C187.441 102.401 187.641 102.285 187.874 102.051C188.074 101.818 188.357 101.468 188.724 101.001C189.091 100.535 189.391 100.168 189.624 99.9012C191.257 98.2012 192.557 97.3512 193.524 97.3512C194.791 97.3512 195.824 97.7512 196.624 98.5512C197.391 99.3845 197.774 100.468 197.774 101.801C197.774 102.668 197.491 103.551 196.924 104.451C196.357 105.351 195.557 106.418 194.524 107.651C194.357 107.851 194.224 108.001 194.124 108.101C194.024 108.201 193.807 108.435 193.474 108.801C193.141 109.201 192.941 109.451 192.874 109.551C192.774 109.685 192.624 109.901 192.424 110.201C192.191 110.535 192.041 110.785 191.974 110.951C191.874 111.118 191.791 111.318 191.724 111.551C191.657 111.818 191.624 112.085 191.624 112.351C191.624 112.818 191.824 113.218 192.224 113.551C192.591 113.885 193.041 114.051 193.574 114.051C194.707 114.051 195.624 113.418 196.324 112.151C197.024 110.918 197.374 109.568 197.374 108.101L200.724 108.151C200.657 110.818 199.974 113.085 198.674 114.951C197.341 116.818 195.641 117.751 193.574 117.751C191.974 117.751 190.657 117.218 189.624 116.151C188.591 115.118 188.074 113.851 188.074 112.351C188.074 110.985 189.091 109.018 191.124 106.451C191.357 106.151 191.674 105.751 192.074 105.251C192.474 104.785 192.791 104.418 193.024 104.151C193.224 103.885 193.457 103.585 193.724 103.251C193.957 102.918 194.141 102.635 194.274 102.401C194.374 102.168 194.424 101.968 194.424 101.801C194.424 101.301 194.207 101.051 193.774 101.051C193.241 101.051 192.241 101.885 190.774 103.551C189.374 105.151 188.074 105.951 186.874 105.951C185.874 105.951 185.074 105.635 184.474 105.001C183.841 104.401 183.524 103.618 183.524 102.651C183.524 101.618 184.174 100.035 185.474 97.9012C185.607 97.7012 185.807 97.4012 186.074 97.0012C186.307 96.6345 186.524 96.3012 186.724 96.0012C186.891 95.7345 187.074 95.4345 187.274 95.1012C187.474 94.8012 187.624 94.5345 187.724 94.3012C187.824 94.0678 187.874 93.8678 187.874 93.7012C187.874 93.2678 187.691 93.0512 187.324 93.0512C186.591 93.0512 185.624 93.5678 184.424 94.6012C183.191 95.6345 182.474 96.5345 182.274 97.3012C182.007 100.035 181.874 106.668 181.874 117.201ZM172.237 99.1012C172.537 99.1012 172.687 98.9512 172.687 98.6512C172.687 98.3512 172.604 97.9678 172.437 97.5012C172.27 97.0678 172.02 96.5512 171.687 95.9512C171.354 95.3845 171.037 94.8512 170.737 94.3512C170.404 93.8512 170.004 93.2012 169.537 92.4012C169.037 91.6345 168.637 91.0178 168.337 90.5512C165.57 85.9845 163.904 83.3012 163.337 82.5012L166.287 80.6012C167.454 82.3012 169.154 85.0512 171.387 88.8512C171.587 89.1512 171.92 89.6678 172.387 90.4012C172.82 91.1678 173.137 91.7178 173.337 92.0512C173.537 92.4178 173.82 92.9178 174.187 93.5512C174.554 94.1845 174.837 94.7012 175.037 95.1012C175.204 95.5012 175.387 95.9512 175.587 96.4512C175.787 96.9512 175.92 97.4012 175.987 97.8012C176.087 98.2012 176.137 98.5845 176.137 98.9512C176.104 100.018 175.787 100.885 175.187 101.551C174.554 102.251 173.687 102.601 172.587 102.601C171.92 102.601 171.32 102.451 170.787 102.151C170.22 101.885 169.67 101.418 169.137 100.751C168.604 100.085 168.204 99.5512 167.937 99.1512C167.67 98.7512 167.27 98.1012 166.737 97.2012C166.537 96.8678 166.287 96.4178 165.987 95.8512C165.687 95.3178 165.454 94.9012 165.287 94.6012C165.087 94.3345 164.887 94.0345 164.687 93.7012C164.454 93.3678 164.254 93.1178 164.087 92.9512C163.92 92.8178 163.754 92.7512 163.587 92.7512C163.12 92.7512 162.887 93.0345 162.887 93.6012C162.887 94.5678 164.654 97.5512 168.187 102.551C168.52 103.051 168.77 103.418 168.937 103.651C172.87 109.318 174.837 112.701 174.837 113.801C174.837 114.601 174.62 115.285 174.187 115.851C173.72 116.418 173.054 116.701 172.187 116.701H157.587V113.201H170.937C170.07 111.601 168.17 108.701 165.237 104.501C163.937 102.601 162.97 101.168 162.337 100.201C161.67 99.2345 161.02 98.0845 160.387 96.7512C159.72 95.4178 159.387 94.3678 159.387 93.6012C159.387 92.3012 159.77 91.2512 160.537 90.4512C161.27 89.6512 162.287 89.2512 163.587 89.2512C164.52 89.2512 165.32 89.6178 165.987 90.3512C166.62 91.0845 167.32 92.1345 168.087 93.5012C168.187 93.7345 168.27 93.9012 168.337 94.0012C168.837 94.8678 169.187 95.4678 169.387 95.8012C169.587 96.1678 169.904 96.6678 170.337 97.3012C170.77 97.9678 171.137 98.4345 171.437 98.7012C171.737 98.9678 172.004 99.1012 172.237 99.1012ZM145.078 83.9512C142.544 83.9512 140.544 85.4345 139.078 88.4012C137.578 91.3678 136.828 94.9678 136.828 99.2012C136.828 101.868 137.161 103.201 137.828 103.201C138.594 103.201 139.511 101.351 140.578 97.6512C142.144 92.3845 144.011 89.7512 146.178 89.7512C147.344 89.7512 148.261 90.1178 148.928 90.8512C149.594 91.5845 149.928 92.5345 149.928 93.7012C149.928 94.5678 149.694 95.7178 149.228 97.1512C148.728 98.6178 148.261 99.8012 147.828 100.701C147.528 101.468 147.094 102.535 146.528 103.901C145.961 105.301 145.511 106.418 145.178 107.251C144.844 108.085 144.544 108.985 144.278 109.951C143.978 110.918 143.828 111.668 143.828 112.201C143.828 113.701 144.244 114.451 145.078 114.451C146.778 114.451 148.294 113.601 149.628 111.901C150.928 110.201 151.878 108.218 152.478 105.951C153.078 103.685 153.378 101.435 153.378 99.2012C153.378 96.7012 153.094 94.3178 152.528 92.0512C151.961 89.8178 151.028 87.9012 149.728 86.3012C148.428 84.7345 146.878 83.9512 145.078 83.9512ZM145.078 117.701C143.844 117.701 142.861 117.385 142.128 116.751C141.361 116.118 140.878 115.418 140.678 114.651C140.444 113.918 140.328 113.101 140.328 112.201C140.328 110.201 141.661 106.368 144.328 100.701C144.461 100.535 144.911 99.4345 145.678 97.4012C146.411 95.3678 146.778 94.1345 146.778 93.7012C146.778 93.0678 146.544 92.7512 146.078 92.7512C145.944 92.7512 145.794 92.9012 145.628 93.2012C145.428 93.5012 145.211 93.9345 144.978 94.5012C144.711 95.1012 144.478 95.6678 144.278 96.2012C144.078 96.7345 143.844 97.3845 143.578 98.1512C143.278 98.9512 143.061 99.5345 142.928 99.9012C142.861 100.101 142.711 100.501 142.478 101.101C142.244 101.735 142.078 102.201 141.978 102.501C141.844 102.801 141.661 103.218 141.428 103.751C141.161 104.318 140.928 104.751 140.728 105.051C140.494 105.351 140.228 105.668 139.928 106.001C139.628 106.335 139.311 106.568 138.978 106.701C138.611 106.868 138.228 106.951 137.828 106.951C136.494 106.951 135.411 106.201 134.578 104.701C133.744 103.201 133.328 101.368 133.328 99.2012C133.328 96.1678 133.761 93.2678 134.628 90.5012C135.461 87.7678 136.794 85.4512 138.628 83.5512C140.461 81.6512 142.611 80.7012 145.078 80.7012C147.544 80.7012 149.694 81.6345 151.528 83.5012C153.361 85.3678 154.711 87.6678 155.578 90.4012C156.411 93.1678 156.828 96.1012 156.828 99.2012C156.828 102.168 156.411 105.018 155.578 107.751C154.711 110.518 153.361 112.868 151.528 114.801C149.661 116.735 147.511 117.701 145.078 117.701ZM129.778 81.7012V116.651H126.278V85.2012H122.228C121.694 85.2012 121.244 85.4345 120.878 85.9012C120.511 86.3678 120.328 86.9178 120.328 87.5512C120.328 87.8845 120.378 88.2345 120.478 88.6012C120.578 88.9678 120.744 89.3678 120.978 89.8012C121.178 90.2678 121.378 90.6512 121.578 90.9512C121.744 91.2512 122.011 91.6845 122.378 92.2512C122.711 92.8512 122.961 93.2845 123.128 93.5512C124.294 95.5178 124.878 97.1845 124.878 98.5512C124.878 99.6845 124.561 100.618 123.928 101.351C123.261 102.118 122.394 102.501 121.328 102.501C120.161 102.501 119.061 101.718 118.028 100.151C117.928 100.018 117.794 99.7845 117.628 99.4512C117.428 99.1512 117.261 98.9012 117.128 98.7012C116.994 98.5012 116.844 98.3012 116.678 98.1012C116.478 97.9345 116.311 97.8512 116.178 97.8512C115.811 97.8512 115.628 98.0678 115.628 98.5012C115.628 99.0012 116.561 101.318 118.428 105.451C119.694 108.251 120.328 110.435 120.328 112.001C120.328 113.401 119.894 114.518 119.028 115.351C118.128 116.218 116.911 116.651 115.378 116.651H110.928C110.928 120.185 111.161 122.485 111.628 123.551C111.994 124.385 112.528 124.801 113.228 124.801C113.661 124.801 114.028 124.668 114.328 124.401C114.594 124.168 114.944 123.701 115.378 123.001C115.778 122.301 116.028 121.868 116.128 121.701C117.461 119.768 119.028 118.801 120.828 118.801C122.928 118.801 124.561 119.685 125.728 121.451C126.861 123.218 127.428 125.435 127.428 128.101H123.928C123.928 124.235 122.894 122.301 120.828 122.301C120.628 122.301 120.428 122.351 120.228 122.451C120.028 122.551 119.861 122.651 119.728 122.751C119.561 122.851 119.378 123.018 119.178 123.251C118.944 123.518 118.778 123.735 118.678 123.901C118.544 124.068 118.361 124.318 118.128 124.651C117.861 125.018 117.678 125.285 117.578 125.451C117.144 126.051 116.778 126.518 116.478 126.851C116.178 127.185 115.744 127.501 115.178 127.801C114.578 128.135 113.928 128.301 113.228 128.301C111.994 128.301 110.978 127.985 110.178 127.351C109.378 126.718 108.794 125.801 108.428 124.601C108.028 123.401 107.761 122.185 107.628 120.951C107.494 119.751 107.428 118.318 107.428 116.651V81.7012H110.878V113.151H115.228C116.294 113.151 116.828 112.768 116.828 112.001C116.828 110.701 116.061 108.485 114.528 105.351C113.028 102.351 112.278 100.135 112.278 98.7012C112.278 97.4012 112.561 96.3178 113.128 95.4512C113.694 94.6178 114.478 94.2012 115.478 94.2012C116.911 94.2012 118.144 94.9845 119.178 96.5512C119.278 96.7178 119.411 96.9345 119.578 97.2012C119.711 97.4678 119.844 97.6845 119.978 97.8512C120.078 98.0512 120.194 98.2345 120.328 98.4012C120.461 98.6012 120.594 98.7512 120.728 98.8512C120.861 98.9512 120.994 99.0012 121.128 99.0012C121.528 99.0012 121.728 98.7512 121.728 98.2512C121.728 97.2512 121.194 95.9845 120.128 94.4512C120.028 94.3178 119.844 94.0512 119.578 93.6512C119.311 93.2512 119.128 92.9512 119.028 92.7512C118.894 92.5845 118.711 92.3178 118.478 91.9512C118.211 91.5845 118.028 91.2845 117.928 91.0512C117.794 90.8178 117.644 90.5178 117.478 90.1512C117.311 89.8178 117.194 89.5012 117.128 89.2012C117.061 88.9345 116.994 88.6345 116.928 88.3012C116.861 87.9678 116.828 87.6512 116.828 87.3512C116.828 85.8845 117.344 84.5678 118.378 83.4012C119.378 82.2678 120.661 81.7012 122.228 81.7012H129.778ZM192.839 66.7012V31.7012H196.289L196.239 63.3512C197.139 63.3512 197.923 62.3012 198.589 60.2012C199.256 58.1012 199.839 55.5512 200.339 52.5512C200.839 49.5512 201.406 46.5512 202.039 43.5512C202.639 40.5512 203.489 38.0012 204.589 35.9012C205.689 33.8012 207.006 32.7512 208.539 32.7512C209.806 32.7512 210.823 33.2178 211.589 34.1512C212.356 35.0845 212.739 36.1678 212.739 37.4012C212.739 38.5345 212.206 41.1012 211.139 45.1012C210.073 49.1012 209.539 51.6678 209.539 52.8012C209.539 53.4678 209.839 53.8012 210.439 53.8012C210.939 53.8012 211.389 53.0345 211.789 51.5012C212.189 49.9678 212.539 48.2845 212.839 46.4512C213.139 44.6178 213.773 42.9345 214.739 41.4012C215.706 39.8678 216.939 39.1012 218.439 39.1012C219.606 39.1012 220.489 39.5178 221.089 40.3512C221.689 41.2178 221.989 42.2845 221.989 43.5512C221.989 44.4178 221.806 45.7178 221.439 47.4512C221.039 49.2178 220.623 50.9678 220.189 52.7012C219.723 54.4345 219.323 56.1345 218.989 57.8012C218.656 59.4678 218.539 60.8178 218.639 61.8512C218.706 62.9178 219.073 63.4512 219.739 63.4512H224.839V31.7012L228.289 31.7012L228.189 66.7012H219.239C217.706 66.7012 216.656 66.1012 216.089 64.9012C215.489 63.7345 215.323 62.2512 215.589 60.4512C215.856 58.6512 216.223 56.7178 216.689 54.6512C217.156 52.5845 217.673 50.6512 218.239 48.8512C218.806 47.0512 219.106 45.5512 219.139 44.3512C219.139 43.1845 218.839 42.6012 218.239 42.6012C217.939 42.6012 217.689 42.7178 217.489 42.9512C217.256 43.1845 217.056 43.5512 216.889 44.0512C216.689 44.5845 216.523 45.1012 216.389 45.6012C216.256 46.1012 216.089 46.7678 215.889 47.6012C215.656 48.4678 215.456 49.2012 215.289 49.8012C215.223 50.0678 215.089 50.5678 214.889 51.3012C214.656 52.0678 214.489 52.6012 214.389 52.9012C214.289 53.2012 214.123 53.6345 213.889 54.2012C213.656 54.8012 213.439 55.2345 213.239 55.5012C213.006 55.7678 212.739 56.0678 212.439 56.4012C212.106 56.7345 211.756 56.9678 211.389 57.1012C210.989 57.2345 210.539 57.3012 210.039 57.3012C209.006 57.3012 208.156 56.9845 207.489 56.3512C206.823 55.7178 206.489 54.9178 206.489 53.9512C206.489 52.1845 207.023 49.3345 208.089 45.4012C209.123 41.5012 209.639 39.1512 209.639 38.3512C209.639 36.9512 209.273 36.2512 208.539 36.2512C207.806 36.2512 207.123 37.4178 206.489 39.7512C205.823 42.0845 205.073 45.4345 204.239 49.8012C204.106 50.5345 203.906 51.6845 203.639 53.2512C203.373 54.8178 203.173 55.9845 203.039 56.7512C202.873 57.5512 202.656 58.5678 202.389 59.8012C202.089 61.0678 201.789 62.0178 201.489 62.6512C201.156 63.3178 200.773 64.0012 200.339 64.7012C199.906 65.4345 199.389 65.9512 198.789 66.2512C198.156 66.5512 197.473 66.7012 196.739 66.7012H192.839ZM187.323 31.7012V66.6512H183.823V35.2012H179.773C179.239 35.2012 178.789 35.4345 178.423 35.9012C178.056 36.3678 177.873 36.9178 177.873 37.5512C177.873 37.8845 177.923 38.2345 178.023 38.6012C178.123 38.9678 178.289 39.3678 178.523 39.8012C178.723 40.2678 178.923 40.6512 179.123 40.9512C179.289 41.2512 179.556 41.6845 179.923 42.2512C180.256 42.8512 180.506 43.2845 180.673 43.5512C181.839 45.5178 182.423 47.1845 182.423 48.5512C182.423 49.6845 182.106 50.6178 181.473 51.3512C180.806 52.1178 179.939 52.5012 178.873 52.5012C177.706 52.5012 176.606 51.7178 175.573 50.1512C175.473 50.0178 175.339 49.7845 175.173 49.4512C174.973 49.1512 174.806 48.9012 174.673 48.7012C174.539 48.5012 174.389 48.3012 174.223 48.1012C174.023 47.9345 173.856 47.8512 173.723 47.8512C173.356 47.8512 173.173 48.0678 173.173 48.5012C173.173 49.0012 174.106 51.3178 175.973 55.4512C177.239 58.2512 177.873 60.4345 177.873 62.0012C177.873 63.4012 177.439 64.5178 176.573 65.3512C175.673 66.2178 174.456 66.6512 172.923 66.6512L164.973 66.6512V31.7012H168.423V63.1512H172.773C173.839 63.1512 174.373 62.7678 174.373 62.0012C174.373 60.7012 173.606 58.4845 172.073 55.3512C170.573 52.3512 169.823 50.1345 169.823 48.7012C169.823 47.4012 170.106 46.3178 170.673 45.4512C171.239 44.6178 172.023 44.2012 173.023 44.2012C174.456 44.2012 175.689 44.9845 176.723 46.5512C176.823 46.7178 176.956 46.9345 177.123 47.2012C177.256 47.4678 177.389 47.6845 177.523 47.8512C177.623 48.0512 177.739 48.2345 177.873 48.4012C178.006 48.6012 178.139 48.7512 178.273 48.8512C178.406 48.9512 178.539 49.0012 178.673 49.0012C179.073 49.0012 179.273 48.7512 179.273 48.2512C179.273 47.2512 178.739 45.9845 177.673 44.4512C177.573 44.3178 177.389 44.0512 177.123 43.6512C176.856 43.2512 176.673 42.9512 176.573 42.7512C176.439 42.5845 176.256 42.3178 176.023 41.9512C175.756 41.5845 175.573 41.2845 175.473 41.0512C175.339 40.8178 175.189 40.5178 175.023 40.1512C174.856 39.8178 174.739 39.5012 174.673 39.2012C174.606 38.9345 174.539 38.6345 174.473 38.3012C174.406 37.9678 174.373 37.6512 174.373 37.3512C174.373 35.8845 174.889 34.5678 175.923 33.4012C176.923 32.2678 178.206 31.7012 179.773 31.7012H187.323ZM159.392 31.7012V66.7512C158.725 66.7512 157.708 66.7345 156.342 66.7012C154.942 66.7012 153.892 66.7012 153.192 66.7012C151.325 66.7012 149.842 66.1012 148.742 64.9012C147.608 63.7012 147.042 62.3678 147.042 60.9012C147.042 59.4012 147.592 57.3512 148.692 54.7512C149.792 52.1845 150.342 50.3012 150.342 49.1012C150.342 48.5345 150.058 48.2512 149.492 48.2512C149.092 48.2512 148.742 48.7678 148.442 49.8012C148.108 50.8678 147.808 52.0178 147.542 53.2512C147.242 54.5178 146.708 55.6678 145.942 56.7012C145.142 57.7678 144.142 58.3012 142.942 58.3012C142.075 58.3012 141.342 58.1012 140.742 57.7012C140.142 57.3345 139.708 56.9178 139.442 56.4512C139.142 55.9845 138.925 55.3512 138.792 54.5512C138.625 53.7845 138.542 53.2012 138.542 52.8012C138.508 52.4345 138.492 51.9345 138.492 51.3012C138.492 47.4678 139.608 44.0678 141.842 41.1012C144.075 38.1678 146.792 36.7012 149.992 36.7012C151.992 36.7012 153.958 37.4512 155.892 38.9512V31.7012H159.392ZM153.192 63.4512H155.892V43.4012C153.992 41.1012 152.025 39.9512 149.992 39.9512C147.892 39.9512 145.992 41.0512 144.292 43.2512C142.592 45.4845 141.742 48.1678 141.742 51.3012C141.742 52.4345 141.808 53.3012 141.942 53.9012C142.075 54.5012 142.208 54.8345 142.342 54.9012C142.475 55.0012 142.658 55.0512 142.892 55.0512C143.325 55.0512 143.708 54.5178 144.042 53.4512C144.375 52.4178 144.692 51.2678 144.992 50.0012C145.258 48.7678 145.775 47.6178 146.542 46.5512C147.308 45.5178 148.292 45.0012 149.492 45.0012C150.525 45.0012 151.475 45.3678 152.342 46.1012C153.175 46.8345 153.592 47.8345 153.592 49.1012C153.592 50.7012 153.042 52.8012 151.942 55.4012C150.842 58.0012 150.292 59.8345 150.292 60.9012C150.292 61.5345 150.558 62.1178 151.092 62.6512C151.592 63.1845 152.292 63.4512 153.192 63.4512Z" fill="#FDFDFD"/>
<path d="M281.876 20.6137C280.88 20.6137 280.142 20.3497 279.662 19.8217C279.17 19.2937 278.924 18.5197 278.924 17.4997V15.8617C278.924 14.8417 279.17 14.0677 279.662 13.5397C280.142 13.0117 280.88 12.7477 281.876 12.7477L282.812 12.7477V8.01367H284.792V20.6137H281.876ZM282.812 18.8137V14.5477H281.876C281.564 14.5477 281.324 14.6317 281.156 14.7997C280.988 14.9677 280.904 15.2797 280.904 15.7357V17.6257C280.904 18.0817 280.988 18.3937 281.156 18.5617C281.324 18.7297 281.564 18.8137 281.876 18.8137H282.812ZM271.634 8.01367L273.632 8.01367L273.974 10.2997H276.404L276.746 8.01367H278.564L276.548 20.6137H273.65L271.634 8.01367ZM276.152 12.0097H274.244L275.198 18.3817L276.152 12.0097ZM266.985 17.5177C266.985 18.0817 267.081 18.4597 267.273 18.6517C267.453 18.8557 267.699 18.9577 268.011 18.9577C268.323 18.9577 268.575 18.8617 268.767 18.6697C268.947 18.4897 269.037 18.1717 269.037 17.7157V16.3657H270.909V17.5897C270.909 18.6097 270.663 19.3897 270.171 19.9297C269.667 20.4817 268.929 20.7577 267.957 20.7577C266.985 20.7577 266.253 20.4817 265.761 19.9297C265.257 19.3897 265.005 18.6097 265.005 17.5897V17.2657C265.005 15.9217 265.467 15.0577 266.391 14.6737C265.887 14.4577 265.533 14.1217 265.329 13.6657C265.113 13.2217 265.005 12.6757 265.005 12.0277V11.0377C265.005 10.0177 265.257 9.23167 265.761 8.67967C266.253 8.13967 266.985 7.86967 267.957 7.86967C268.929 7.86967 269.667 8.13967 270.171 8.67967C270.663 9.23167 270.909 10.0177 270.909 11.0377V12.6217H269.037V10.9117C269.037 10.4557 268.947 10.1317 268.767 9.93967C268.575 9.75967 268.323 9.66967 268.011 9.66967C267.699 9.66967 267.453 9.76567 267.273 9.95767C267.081 10.1497 266.985 10.5277 266.985 11.0917V12.0817C266.985 12.6697 267.087 13.0837 267.291 13.3237C267.495 13.5637 267.825 13.6837 268.281 13.6837H268.587V15.4837H268.173C267.801 15.4837 267.513 15.5797 267.309 15.7717C267.093 15.9637 266.985 16.3117 266.985 16.8157V17.5177ZM260.835 20.6137C259.839 20.6137 259.101 20.3497 258.621 19.8217C258.129 19.2937 257.883 18.5197 257.883 17.4997V15.8617C257.883 14.8417 258.129 14.0677 258.621 13.5397C259.101 13.0117 259.839 12.7477 260.835 12.7477H261.771V8.01367H263.751V20.6137H260.835ZM261.771 18.8137V14.5477H260.835C260.523 14.5477 260.283 14.6317 260.115 14.7997C259.947 14.9677 259.863 15.2797 259.863 15.7357V17.6257C259.863 18.0817 259.947 18.3937 260.115 18.5617C260.283 18.7297 260.523 18.8137 260.835 18.8137L261.771 18.8137ZM256.443 9.81367C256.335 9.80167 256.221 9.79567 256.101 9.79567C255.981 9.79567 255.867 9.79567 255.759 9.79567C255.603 9.79567 255.459 9.81367 255.327 9.84967C255.183 9.88567 255.063 9.95167 254.967 10.0477C254.859 10.1437 254.781 10.2817 254.733 10.4617C254.673 10.6417 254.643 10.8697 254.643 11.1457L257.523 20.6137H255.543L253.365 13.2337L251.565 20.6137H249.585L252.177 11.3257C252.405 10.4617 252.639 9.79567 252.879 9.32767C253.107 8.87167 253.353 8.54167 253.617 8.33767C253.881 8.14567 254.169 8.03767 254.481 8.01367C254.781 7.98967 255.117 7.97767 255.489 7.97767C255.669 7.97767 255.831 7.97767 255.975 7.97767C256.119 7.97767 256.275 7.98967 256.443 8.01367V9.81367ZM243.124 9.81367H241.522V20.6137L239.524 20.6137V8.01367L248.686 8.01367V20.6137H246.724V9.81367L245.104 9.81367V20.6137H243.124V9.81367ZM236.107 15.3037H233.389V13.5037H236.107V9.81367H232.687V8.01367L238.087 8.01367V20.6137H232.687V18.8137H236.107V15.3037ZM229.532 8.01367H231.512V20.6137H229.532V15.2137H227.282V20.6137H225.266V8.01367H227.282V13.4137L229.532 13.4137V8.01367ZM221.851 8.01367H223.831V20.6137L221.851 20.6137V15.2137L219.601 15.2137V20.6137H217.585V8.01367L219.601 8.01367V13.4137H221.851V8.01367ZM213.233 9.81367C212.921 9.81367 212.681 9.89767 212.513 10.0657C212.345 10.2337 212.261 10.5457 212.261 11.0017V12.8917C212.261 13.3477 212.345 13.6597 212.513 13.8277C212.681 13.9957 212.921 14.0797 213.233 14.0797H214.169V9.81367H213.233ZM216.149 8.01367V20.6137H214.169V15.8797H213.233C212.237 15.8797 211.499 15.6157 211.019 15.0877C210.527 14.5597 210.281 13.7857 210.281 12.7657V11.1277C210.281 10.1077 210.527 9.33367 211.019 8.80567C211.499 8.27767 212.237 8.01367 213.233 8.01367H216.149ZM209.309 20.6137H207.329V8.01367H209.309V20.6137ZM203.85 8.01367H205.884V20.6137L204.12 20.6137V13.0717L202.086 20.6137H199.602V8.01367L201.384 8.01367V17.1397L203.85 8.01367ZM200.538 22.7917V21.3157L204.894 21.3157V22.7917L200.538 22.7917ZM191.16 11.6677L189.81 20.6137L187.056 20.6137V8.01367H188.928V17.0497L190.296 8.01367L192.168 8.01367L193.644 16.9237V8.01367H195.372V20.6137H192.618L191.16 11.6677ZM183.816 10.9117C183.816 10.4557 183.726 10.1317 183.546 9.93967C183.354 9.75967 183.102 9.66967 182.79 9.66967C182.478 9.66967 182.232 9.75967 182.052 9.93967C181.86 10.1317 181.764 10.4557 181.764 10.9117V17.7157C181.764 18.1717 181.86 18.4897 182.052 18.6697C182.232 18.8617 182.478 18.9577 182.79 18.9577C183.102 18.9577 183.354 18.8617 183.546 18.6697C183.726 18.4897 183.816 18.1717 183.816 17.7157V10.9117ZM185.796 17.5897C185.796 18.6097 185.538 19.3897 185.022 19.9297C184.506 20.4817 183.762 20.7577 182.79 20.7577C181.818 20.7577 181.074 20.4817 180.558 19.9297C180.042 19.3897 179.784 18.6097 179.784 17.5897V11.0377C179.784 10.0177 180.042 9.23167 180.558 8.67967C181.074 8.13967 181.818 7.86967 182.79 7.86967C183.762 7.86967 184.506 8.13967 185.022 8.67967C185.538 9.23167 185.796 10.0177 185.796 11.0377V17.5897ZM172.808 12.7117V11.0377C172.808 10.0177 173.06 9.23167 173.564 8.67967C174.056 8.13967 174.788 7.86967 175.76 7.86967C176.732 7.86967 177.47 8.13967 177.974 8.67967C178.466 9.23167 178.712 10.0177 178.712 11.0377V17.5897C178.712 18.6097 178.466 19.3897 177.974 19.9297C177.47 20.4817 176.732 20.7577 175.76 20.7577C174.788 20.7577 174.056 20.4817 173.564 19.9297C173.06 19.3897 172.808 18.6097 172.808 17.5897V16.3657H174.68V17.7157C174.68 18.1717 174.776 18.4897 174.968 18.6697C175.148 18.8617 175.394 18.9577 175.706 18.9577C176.018 18.9577 176.27 18.8617 176.462 18.6697C176.642 18.4897 176.732 18.1717 176.732 17.7157V10.9117C176.732 10.4557 176.642 10.1377 176.462 9.95767C176.27 9.77767 176.018 9.68767 175.706 9.68767C175.394 9.68767 175.148 9.77767 174.968 9.95767C174.776 10.1377 174.68 10.4557 174.68 10.9117V12.7117L172.808 12.7117ZM168.961 13.0357L169.573 11.8837V8.01367H171.553V20.6137H169.573V15.1237L166.945 20.6137H165.001L167.755 14.9977L165.001 8.01367H167.035L168.961 13.0357ZM162.3 10.9117C162.3 10.4557 162.21 10.1317 162.03 9.93967C161.838 9.75967 161.586 9.66967 161.274 9.66967C160.962 9.66967 160.716 9.75967 160.536 9.93967C160.344 10.1317 160.248 10.4557 160.248 10.9117V17.7157C160.248 18.1717 160.344 18.4897 160.536 18.6697C160.716 18.8617 160.962 18.9577 161.274 18.9577C161.586 18.9577 161.838 18.8617 162.03 18.6697C162.21 18.4897 162.3 18.1717 162.3 17.7157V10.9117ZM164.28 17.5897C164.28 18.6097 164.022 19.3897 163.506 19.9297C162.99 20.4817 162.246 20.7577 161.274 20.7577C160.302 20.7577 159.558 20.4817 159.042 19.9297C158.526 19.3897 158.268 18.6097 158.268 17.5897V11.0377C158.268 10.0177 158.526 9.23167 159.042 8.67967C159.558 8.13967 160.302 7.86967 161.274 7.86967C162.246 7.86967 162.99 8.13967 163.506 8.67967C164.022 9.23167 164.28 10.0177 164.28 11.0377V17.5897ZM154.028 20.6137C152.996 20.6137 152.252 20.3737 151.796 19.8937C151.328 19.4137 151.094 18.6877 151.094 17.7157V17.2657C151.094 16.6177 151.196 16.0837 151.4 15.6637C151.604 15.2437 151.928 14.9317 152.372 14.7277C151.832 14.5237 151.454 14.1877 151.238 13.7197C151.01 13.2637 150.896 12.6997 150.896 12.0277V11.0017C150.896 10.0297 151.148 9.28567 151.652 8.76967C152.156 8.26567 152.906 8.01367 153.902 8.01367L157.016 8.01367V20.6137H154.028ZM155.036 13.6837V9.81367L153.902 9.81367C153.566 9.81367 153.314 9.90367 153.146 10.0837C152.966 10.2637 152.876 10.5877 152.876 11.0557V12.1537C152.876 12.7417 152.978 13.1437 153.182 13.3597C153.374 13.5757 153.698 13.6837 154.154 13.6837L155.036 13.6837ZM155.036 18.8137V15.4837H154.262C153.89 15.4837 153.602 15.5797 153.398 15.7717C153.182 15.9637 153.074 16.3117 153.074 16.8157V17.5177C153.074 17.9737 153.158 18.3037 153.326 18.5077C153.482 18.7117 153.734 18.8137 154.082 18.8137H155.036ZM143.997 12.7117V11.0377C143.997 10.0177 144.249 9.23167 144.753 8.67967C145.245 8.13967 145.977 7.86967 146.949 7.86967C147.921 7.86967 148.659 8.13967 149.163 8.67967C149.655 9.23167 149.901 10.0177 149.901 11.0377V17.5897C149.901 18.6097 149.655 19.3897 149.163 19.9297C148.659 20.4817 147.921 20.7577 146.949 20.7577C145.977 20.7577 145.245 20.4817 144.753 19.9297C144.249 19.3897 143.997 18.6097 143.997 17.5897V16.3657H145.869V17.7157C145.869 18.1717 145.965 18.4897 146.157 18.6697C146.337 18.8617 146.583 18.9577 146.895 18.9577C147.207 18.9577 147.459 18.8617 147.651 18.6697C147.831 18.4897 147.921 18.1717 147.921 17.7157V10.9117C147.921 10.4557 147.831 10.1377 147.651 9.95767C147.459 9.77767 147.207 9.68767 146.895 9.68767C146.583 9.68767 146.337 9.77767 146.157 9.95767C145.965 10.1377 145.869 10.4557 145.869 10.9117V12.7117L143.997 12.7117ZM140.151 13.0357L140.763 11.8837V8.01367H142.743V20.6137H140.763V15.1237L138.135 20.6137H136.191L138.945 14.9977L136.191 8.01367L138.225 8.01367L140.151 13.0357ZM133.256 8.01367H135.29V20.6137H133.526V13.0717L131.492 20.6137L129.008 20.6137V8.01367H130.79V17.1397L133.256 8.01367ZM125.539 8.01367L127.573 8.01367V20.6137H125.809V13.0717L123.775 20.6137H121.291V8.01367H123.073V17.1397L125.539 8.01367ZM122.227 22.7917V21.3157H126.583V22.7917H122.227ZM117.601 20.6137L111.481 20.6137V18.8137H113.551V8.01367H115.531V18.8137H117.601V20.6137ZM108.595 15.3037H105.877V13.5037H108.595V9.81367H105.175V8.01367L110.575 8.01367V20.6137H105.175V18.8137H108.595V15.3037ZM97.6107 8.01367H99.6087L99.9507 10.2997H102.381L102.723 8.01367H104.541L102.525 20.6137H99.6267L97.6107 8.01367ZM102.129 12.0097H100.221L101.175 18.3817L102.129 12.0097ZM97.2458 20.6137L91.1258 20.6137V18.8137H93.1958V8.01367H95.1758V18.8137H97.2458V20.6137ZM87.3035 20.6137C86.3075 20.6137 85.5695 20.3497 85.0895 19.8217C84.5975 19.2937 84.3515 18.5197 84.3515 17.4997V15.8617C84.3515 14.8417 84.5975 14.0677 85.0895 13.5397C85.5695 13.0117 86.3075 12.7477 87.3035 12.7477H88.2395V8.01367H90.2195V20.6137H87.3035ZM88.2395 18.8137V14.5477H87.3035C86.9915 14.5477 86.7515 14.6317 86.5835 14.7997C86.4155 14.9677 86.3315 15.2797 86.3315 15.7357V17.6257C86.3315 18.0817 86.4155 18.3937 86.5835 18.5617C86.7515 18.7297 86.9915 18.8137 87.3035 18.8137H88.2395Z" fill="#FDFDFD"/>
</svg>
