<svg width="303" height="136" viewBox="0 0 303 136" fill="none" xmlns="http://www.w3.org/2000/svg">
<rect width="59" height="136" rx="14" fill="#761614"/>
<path d="M12.1719 113.286V109.586C12.3052 109.52 13.8385 109.12 16.7719 108.386C19.6719 107.653 23.0052 106.903 26.7719 106.136C30.5385 105.37 33.1885 104.986 34.7219 104.986C36.2219 104.986 37.4219 105.386 38.3219 106.186C39.2219 106.953 39.6719 107.953 39.6719 109.186C39.6719 110.42 39.1719 111.403 38.1719 112.136C37.1719 112.836 35.7885 113.47 34.0219 114.036C33.5885 114.17 33.0552 114.336 32.4219 114.536C31.7885 114.703 31.2885 114.853 30.9219 114.986C30.5219 115.086 30.1385 115.22 29.7719 115.386C29.3719 115.52 29.0885 115.653 28.9219 115.786C28.7219 115.92 28.6219 116.053 28.6219 116.186C28.6219 116.586 29.2719 116.786 30.5719 116.786C32.3385 116.786 34.8052 116.32 37.9719 115.386C41.1052 114.42 43.8719 113.32 46.2719 112.086L47.1719 111.636V115.736C44.5719 117.003 41.6552 118.103 38.4219 119.036C35.1885 119.936 32.5719 120.386 30.5719 120.386C28.9052 120.386 27.5719 120.036 26.5719 119.336C25.5385 118.603 25.0219 117.636 25.0219 116.436C25.0219 115.236 25.5052 114.286 26.4719 113.586C27.4052 112.886 28.7219 112.236 30.4219 111.636C30.8885 111.47 31.4385 111.286 32.0719 111.086C32.6719 110.886 33.1885 110.736 33.6219 110.636C34.0219 110.503 34.4219 110.37 34.8219 110.236C35.1885 110.07 35.4719 109.92 35.6719 109.786C35.8719 109.62 35.9719 109.453 35.9719 109.286C35.9719 108.853 35.5552 108.636 34.7219 108.636C32.0885 108.636 25.7885 109.836 15.8219 112.236L23.1719 119.386L20.7719 121.686L12.1719 113.286ZM12.1719 93.9992V90.2992C12.3052 90.2326 13.8385 89.8326 16.7719 89.0992C19.6719 88.3659 23.0052 87.6159 26.7719 86.8492C30.5385 86.0826 33.1885 85.6992 34.7219 85.6992C36.2219 85.6992 37.4219 86.0992 38.3219 86.8992C39.2219 87.6659 39.6719 88.6659 39.6719 89.8992C39.6719 91.1326 39.1719 92.1159 38.1719 92.8492C37.1719 93.5492 35.7885 94.1826 34.0219 94.7492C33.5885 94.8826 33.0552 95.0492 32.4219 95.2492C31.7885 95.4159 31.2885 95.5659 30.9219 95.6992C30.5219 95.7992 30.1385 95.9326 29.7719 96.0992C29.3719 96.2326 29.0885 96.3659 28.9219 96.4992C28.7219 96.6326 28.6219 96.7659 28.6219 96.8992C28.6219 97.2992 29.2719 97.4992 30.5719 97.4992C32.3385 97.4992 34.8052 97.0326 37.9719 96.0992C41.1052 95.1326 43.8719 94.0326 46.2719 92.7992L47.1719 92.3492V96.4492C44.5719 97.7159 41.6552 98.8159 38.4219 99.7492C35.1885 100.649 32.5719 101.099 30.5719 101.099C28.9052 101.099 27.5719 100.749 26.5719 100.049C25.5385 99.3159 25.0219 98.3492 25.0219 97.1492C25.0219 95.9492 25.5052 94.9992 26.4719 94.2992C27.4052 93.5992 28.7219 92.9492 30.4219 92.3492C30.8885 92.1826 31.4385 91.9992 32.0719 91.7992C32.6719 91.5992 33.1885 91.4492 33.6219 91.3492C34.0219 91.2159 34.4219 91.0826 34.8219 90.9492C35.1885 90.7826 35.4719 90.6326 35.6719 90.4992C35.8719 90.3326 35.9719 90.1659 35.9719 89.9992C35.9719 89.5659 35.5552 89.3492 34.7219 89.3492C32.0885 89.3492 25.7885 90.5492 15.8219 92.9492L23.1719 100.099L20.7719 102.399L12.1719 93.9992Z" fill="#FDFDFD"/>
<path d="M39.1719 71.6771V74.5371H20.9719V71.6771H28.7719V68.4271H20.9719V65.5151H39.1719V68.4271H31.3719V71.6771H39.1719ZM34.9859 60.8414C35.6445 60.8414 36.1125 60.7114 36.3899 60.4514C36.6499 60.1741 36.7799 59.8101 36.7799 59.3594C36.7799 58.9088 36.6499 58.5534 36.3899 58.2934C36.1125 58.0161 35.6445 57.8774 34.9859 57.8774H25.1579C24.4992 57.8774 24.0399 58.0161 23.7799 58.2934C23.5025 58.5534 23.3639 58.9088 23.3639 59.3594C23.3639 59.8101 23.5025 60.1741 23.7799 60.4514C24.0399 60.7114 24.4992 60.8414 25.1579 60.8414H34.9859ZM25.3399 63.7014C23.8665 63.7014 22.7399 63.3288 21.9599 62.5834C21.1625 61.8381 20.7639 60.7634 20.7639 59.3594C20.7639 57.9554 21.1625 56.8808 21.9599 56.1354C22.7399 55.3901 23.8665 55.0174 25.3399 55.0174H34.8039C36.2772 55.0174 37.4125 55.3901 38.2099 56.1354C38.9899 56.8808 39.3799 57.9554 39.3799 59.3594C39.3799 60.7634 38.9899 61.8381 38.2099 62.5834C37.4125 63.3288 36.2772 63.7014 34.8039 63.7014H25.3399ZM23.5719 49.075C23.5719 49.5777 23.7192 49.9504 24.0139 50.193C24.3085 50.4184 24.7852 50.531 25.4439 50.531H27.2379C27.9659 50.531 28.4685 50.3837 28.7459 50.089C29.0232 49.777 29.1619 49.3524 29.1619 48.815V47.697H23.5719V49.075ZM39.1719 53.729C38.8252 53.5904 38.4872 53.5037 38.1579 53.469C37.8112 53.4344 37.4125 53.417 36.9619 53.417H34.1539C33.2005 53.417 32.3945 53.287 31.7359 53.027C31.0599 52.7497 30.5745 52.247 30.2799 51.519C29.6905 52.767 28.4599 53.391 26.5879 53.391H25.1579C23.7539 53.391 22.7052 53.0617 22.0119 52.403C21.3185 51.727 20.9719 50.6437 20.9719 49.153L20.9719 44.837H39.1719V47.697H31.7619V48.685C31.7619 49.3437 31.9352 49.8204 32.2819 50.115C32.6285 50.4097 33.2265 50.557 34.0759 50.557H36.9359C37.2999 50.557 37.6032 50.5657 37.8459 50.583C38.0885 50.583 38.2879 50.6004 38.4439 50.635C38.5999 50.6524 38.7299 50.6784 38.8339 50.713C38.9379 50.7477 39.0505 50.7824 39.1719 50.817V53.729ZM27.8099 39.8881V38.5361C27.8099 37.0974 28.1912 36.0314 28.9539 35.3381C29.7165 34.6274 30.8345 34.2721 32.3079 34.2721H34.6739C36.1472 34.2721 37.2652 34.6274 38.0279 35.3381C38.7905 36.0314 39.1719 37.0974 39.1719 38.5361V42.7481H20.9719V35.1821H23.5719L23.5719 39.8881H27.8099ZM36.5719 38.5361C36.5719 38.0854 36.4505 37.7388 36.2079 37.4961C35.9652 37.2534 35.5145 37.1321 34.8559 37.1321H32.1259C31.4672 37.1321 31.0165 37.2534 30.7739 37.4961C30.5312 37.7388 30.4099 38.0854 30.4099 38.5361V39.8881H36.5719V38.5361ZM20.9719 28.3798C20.9719 26.9412 21.3532 25.8752 22.1159 25.1818C22.8785 24.4712 23.9965 24.1158 25.4699 24.1158H27.8359C29.3092 24.1158 30.4272 24.4712 31.1899 25.1818C31.9525 25.8752 32.3339 26.9412 32.3339 28.3798V29.7318H39.1719V32.5918H20.9719V28.3798ZM23.5719 29.7318H29.7339V28.3798C29.7339 27.9292 29.6125 27.5825 29.3699 27.3398C29.1272 27.0972 28.6765 26.9758 28.0179 26.9758H25.2879C24.6292 26.9758 24.1785 27.0972 23.9359 27.3398C23.6932 27.5825 23.5719 27.9292 23.5719 28.3798V29.7318ZM23.5719 18.6824C23.5719 19.1851 23.7192 19.5578 24.0139 19.8004C24.3085 20.0258 24.7852 20.1384 25.4439 20.1384H27.2379C27.9659 20.1384 28.4685 19.9911 28.7459 19.6964C29.0232 19.3844 29.1619 18.9598 29.1619 18.4224V17.3044H23.5719V18.6824ZM39.1719 23.3364C38.8252 23.1978 38.4872 23.1111 38.1579 23.0764C37.8112 23.0418 37.4125 23.0244 36.9619 23.0244H34.1539C33.2005 23.0244 32.3945 22.8944 31.7359 22.6344C31.0599 22.3571 30.5745 21.8544 30.2799 21.1264C29.6905 22.3744 28.4599 22.9984 26.5879 22.9984H25.1579C23.7539 22.9984 22.7052 22.6691 22.0119 22.0104C21.3185 21.3344 20.9719 20.2511 20.9719 18.7604V14.4444H39.1719V17.3044H31.7619V18.2924C31.7619 18.9511 31.9352 19.4278 32.2819 19.7224C32.6285 20.0171 33.2265 20.1644 34.0759 20.1644H36.9359C37.2999 20.1644 37.6032 20.1731 37.8459 20.1904C38.0885 20.1904 38.2879 20.2078 38.4439 20.2424C38.5999 20.2598 38.7299 20.2858 38.8339 20.3204C38.9379 20.3551 39.0505 20.3898 39.1719 20.4244V23.3364Z" fill="#FDFDFD"/>
<rect x="67" width="236" height="136" rx="14" fill="#761614"/>
<path d="M95.6912 53.9523C92.2482 48.1161 90.1069 44.4632 89.2672 42.9936L89.3301 38.8999H113.011V78.5777C113.599 78.5357 114.186 78.5777 114.774 78.7036C115.404 78.7876 116.139 78.9766 116.979 79.2705C117.818 79.5224 118.49 80.0472 118.994 80.845C119.498 81.6008 119.75 82.5455 119.75 83.6791C119.75 84.4349 119.645 85.1067 119.435 85.6945C119.225 86.3243 118.994 86.8281 118.742 87.206C118.532 87.6259 118.154 87.9828 117.608 88.2767C117.063 88.5706 116.643 88.7805 116.349 88.9065C116.055 89.0325 115.509 89.1374 114.711 89.2214C113.956 89.3054 113.452 89.3474 113.2 89.3474C112.99 89.3474 112.444 89.3474 111.562 89.3474C110.681 89.3474 110.219 89.3474 110.177 89.3474C108.539 89.3474 107.72 89.6833 107.72 90.3551C107.72 91.3208 109.484 91.8036 113.011 91.8036V96.2123C109.484 96.2123 106.986 95.7084 105.516 94.7007C104.047 93.735 103.312 92.3075 103.312 90.418C103.312 89.4104 103.501 88.5496 103.879 87.8358C104.299 87.1221 104.781 86.5762 105.327 86.1983C105.873 85.8205 106.587 85.5265 107.469 85.3166C108.392 85.1487 109.169 85.0437 109.799 85.0017C110.429 84.9597 111.205 84.9387 112.129 84.9387C114.27 84.9387 115.341 84.5189 115.341 83.6791C115.341 83.2173 114.396 82.9863 112.507 82.9863H92.7311C90.5898 82.9863 88.2805 81.7057 85.8032 79.1445C85.2154 78.5567 84.4806 77.7379 83.5989 76.6883C82.7172 75.6386 82.0244 74.8828 81.5205 74.421C81.0587 73.9171 80.6808 73.6652 80.3869 73.6652C79.967 73.6652 79.7571 73.8961 79.7571 74.358C79.7571 76.0375 83.4729 80.908 90.9047 88.9695L87.3777 92.1815C83.389 87.9408 80.3239 84.3719 78.1826 81.4748C76.0412 78.5777 74.9706 76.1214 74.9706 74.1061C74.9706 72.4266 75.4324 71.146 76.3561 70.2642C77.3218 69.3405 78.6654 68.8787 80.3869 68.8787C81.4786 68.8787 82.5072 69.2775 83.4729 70.0753C84.4806 70.8731 85.6773 72.0697 87.0628 73.6652C87.9026 74.6309 88.4694 75.3027 88.7633 75.6806C89.0992 76.0165 89.5821 76.5203 90.2119 77.1921C90.8837 77.8219 91.4085 78.2628 91.7864 78.5147C92.1643 78.7666 92.4792 78.8926 92.7311 78.8926C93.9067 78.8926 92.8361 76.5833 89.5191 71.9647C89.3931 71.7968 89.2252 71.5658 89.0152 71.2719C88.6793 70.8521 88.4484 70.5372 88.3225 70.3272C84.5436 65.0788 82.6542 61.405 82.6542 59.3056C82.6542 57.8361 83.158 56.6184 84.1657 55.6527C85.2154 54.6451 86.475 54.1412 87.9446 54.1412C88.5744 54.1412 89.1832 54.2882 89.771 54.5821C90.4008 54.876 91.0306 55.3378 91.6604 55.9676C92.3322 56.5975 92.8781 57.1853 93.2979 57.7311C93.7598 58.2349 94.3476 58.9697 95.0614 59.9354C95.8171 60.9011 96.405 61.6359 96.8248 62.1397C97.1187 62.4756 97.4337 62.8745 97.7695 63.3364C98.1054 63.7562 98.3574 64.0712 98.5253 64.2811C98.6933 64.491 98.8822 64.7429 99.0921 65.0369C99.3441 65.2888 99.533 65.4777 99.659 65.6037C99.7849 65.6877 99.9109 65.7926 100.037 65.9186C100.205 66.0445 100.352 66.1285 100.478 66.1705C100.604 66.2125 100.73 66.2335 100.856 66.2335C101.275 66.2335 101.485 65.9606 101.485 65.4147C101.485 64.9109 101.401 64.3861 101.233 63.8402C101.066 63.2524 100.772 62.5806 100.352 61.8248C99.9319 61.0271 99.533 60.3133 99.1551 59.6835C98.7772 59.0537 98.2104 58.151 97.4546 56.9753C96.7409 55.7577 96.153 54.75 95.6912 53.9523ZM87.4407 59.4316C87.4407 60.6912 89.0152 63.6303 92.1643 68.2489C95.1873 72.6575 97.5596 76.2054 99.2811 78.8926H108.602L108.665 42.9936H94.7465C95.4603 44.1273 96.405 45.7018 97.5806 47.7172C98.7562 49.7326 99.491 50.9922 99.7849 51.496C100.079 51.9999 100.562 52.8186 101.233 53.9523C101.905 55.0439 102.367 55.8207 102.619 56.2825C102.913 56.7024 103.291 57.3532 103.753 58.2349C104.257 59.1167 104.613 59.8095 104.823 60.3133C105.033 60.7752 105.264 61.363 105.516 62.0768C105.81 62.7905 105.999 63.4413 106.083 64.0292C106.167 64.617 106.209 65.2048 106.209 65.7926C106.209 67.3881 105.789 68.6477 104.949 69.5715C104.11 70.4952 102.955 70.957 101.485 70.957C99.9739 70.957 98.7143 70.5582 97.7066 69.7604C96.6989 68.9626 95.3973 67.4931 93.8018 65.3518C93.5918 65.0578 93.3189 64.68 92.983 64.2181C92.6471 63.7562 92.3742 63.3994 92.1643 63.1474C91.9963 62.8955 91.7654 62.5806 91.4715 62.2027C91.1776 61.7829 90.9257 61.468 90.7157 61.258C90.5478 61.0061 90.3378 60.7332 90.0859 60.4393C89.834 60.1454 89.6241 59.9354 89.4561 59.8095C89.2882 59.6415 89.0992 59.4736 88.8893 59.3056C88.7213 59.1377 88.5534 59.0327 88.3854 58.9907C88.2175 58.9067 88.0705 58.8648 87.9446 58.8648C87.6087 58.8648 87.4407 59.0537 87.4407 59.4316ZM123.933 82.9863V38.8999H145.976V42.9936H128.342V51.9999C130.147 50.1944 131.995 49.2917 133.884 49.2917C135.144 49.2917 136.214 49.7536 137.096 50.6773C138.02 51.559 138.482 52.5877 138.482 53.7633C138.482 54.729 138.188 56.0306 137.6 57.6681C137.054 59.3056 136.781 60.5022 136.781 61.258C136.781 61.7619 136.949 62.2027 137.285 62.5806C137.663 62.9585 138.083 63.1474 138.545 63.1474C139.72 63.1474 140.665 62.6436 141.379 61.6359C142.134 60.5862 142.512 59.4316 142.512 58.172H146.228C146.228 60.5232 145.472 62.6016 143.961 64.407C142.449 66.1705 140.602 67.0522 138.419 67.0522C136.865 67.0522 135.584 66.5694 134.577 65.6037C133.569 64.638 133.065 63.3784 133.065 61.8248C133.065 60.9851 133.317 59.7465 133.821 58.109C134.367 56.4295 134.64 55.2119 134.64 54.4561C134.64 54.0782 134.514 53.7633 134.262 53.5114C134.01 53.2595 133.737 53.1335 133.443 53.1335C132.142 53.1335 130.441 54.4771 128.342 57.1643V78.8926H145.976V82.9863H123.933ZM147.477 42.9936V38.8999H173.929V42.9936H162.403C162.445 43.1196 162.739 43.8544 163.285 45.198C163.873 46.5415 164.272 47.4653 164.482 47.9691C164.692 48.431 165.07 49.3337 165.615 50.6773C166.161 52.0209 166.56 53.0495 166.812 53.7633C167.064 54.4351 167.421 55.3798 167.883 56.5975C168.345 57.8151 168.68 58.8018 168.89 59.5575C169.142 60.2713 169.394 61.0691 169.646 61.9508C169.94 62.8325 170.129 63.5883 170.213 64.2181C170.339 64.8479 170.402 65.3937 170.402 65.8556C170.402 67.745 170.003 69.2356 169.205 70.3272C168.408 71.3769 167.274 71.9017 165.804 71.9017C164.629 71.9017 163.6 71.4819 162.718 70.6421C161.837 69.7604 161.228 68.9626 160.892 68.2489C160.556 67.5351 160.073 66.2965 159.443 64.533C159.317 64.2391 159.233 64.0292 159.191 63.9032C159.107 63.6513 158.96 63.2734 158.751 62.7696C158.583 62.2657 158.457 61.8878 158.373 61.6359C158.289 61.384 158.163 61.0481 157.995 60.6282C157.827 60.2083 157.68 59.8934 157.554 59.6835C157.47 59.4316 157.344 59.1587 157.176 58.8648C157.05 58.5289 156.924 58.2769 156.798 58.109C156.672 57.941 156.546 57.7731 156.42 57.6051C156.294 57.3952 156.147 57.2692 155.979 57.2273C155.853 57.1433 155.706 57.1013 155.539 57.1013C154.993 57.1013 154.72 57.6051 154.72 58.6128C154.72 60.1664 156.021 63.7982 158.625 69.5085C159.464 71.3979 160.661 73.9381 162.214 77.1291C163.768 80.3201 164.713 82.2725 165.049 82.9863H160.262C157.575 77.612 155.706 73.7702 154.657 71.4609C151.928 65.5407 150.563 61.342 150.563 58.8648C150.563 56.9753 150.983 55.4848 151.823 54.3931C152.662 53.2595 153.901 52.6927 155.539 52.6927C156.882 52.6927 157.953 53.2595 158.751 54.3931C159.548 55.4848 160.388 57.1223 161.27 59.3056C161.522 59.9354 161.816 60.7122 162.151 61.6359C162.529 62.5596 162.823 63.3364 163.033 63.9662C163.285 64.554 163.537 65.1418 163.789 65.7296C164.041 66.3175 164.293 66.7583 164.545 67.0522C164.797 67.3461 165.028 67.4931 165.238 67.4931C165.741 67.4931 165.993 66.9893 165.993 65.9816C165.909 64.1761 163.117 56.5135 157.617 42.9936H147.477ZM200.991 68.9417H205.399C205.399 72.8884 204.119 76.4363 201.558 79.5854C199.038 82.6924 195.407 84.2459 190.662 84.2459C187.597 84.2459 184.889 83.0703 182.538 80.719C180.228 78.3258 178.528 75.4077 177.436 71.9647C176.344 68.4798 175.799 64.7849 175.799 60.8801C175.799 57.1853 176.323 53.6164 177.373 50.1734C178.465 46.7305 180.165 43.8124 182.475 41.4191C184.826 38.9839 187.534 37.7662 190.599 37.7662C193.118 37.7662 195.26 38.417 197.023 39.7186C198.828 40.9783 199.731 42.6997 199.731 44.8831C199.731 46.6885 198.199 49.1657 195.134 52.3148C192.362 55.0859 190.977 56.7654 190.977 57.3532C190.977 58.067 191.292 58.4239 191.922 58.4239C192.132 58.4239 192.404 58.2979 192.74 58.046C193.118 57.7521 193.622 57.3112 194.252 56.7234C194.882 56.1356 195.386 55.6947 195.763 55.4008C195.847 55.3168 195.994 55.1909 196.204 55.0229C198.262 53.4274 199.71 52.5667 200.55 52.4407C201.6 52.4407 202.46 52.7136 203.132 53.2595C203.846 53.8053 204.35 54.5821 204.644 55.5898C204.938 56.5975 205.106 57.6051 205.148 58.6128C205.232 59.6205 205.253 60.8172 205.211 62.2027H200.991C200.991 61.9928 200.991 61.6359 200.991 61.1321C200.991 60.5862 200.991 60.1244 200.991 59.7465C200.991 59.3266 200.97 58.9067 200.928 58.4869C200.886 58.067 200.781 57.7521 200.613 57.5422C200.445 57.2902 200.235 57.1643 199.983 57.1643C199.773 57.1643 199.542 57.2692 199.29 57.4792C199.038 57.6471 198.64 58.004 198.094 58.5499C197.548 59.0957 197.149 59.4736 196.897 59.6835C194.756 61.6569 193.013 62.6436 191.67 62.6436C190.074 62.6436 188.836 62.2237 187.954 61.384C187.114 60.5022 186.694 59.2846 186.694 57.7311C186.694 55.9257 188.353 53.4064 191.67 50.1734C194.105 47.7382 195.323 46.1007 195.323 45.2609C195.323 43.1196 193.748 42.0489 190.599 42.0489C188.836 42.0489 187.24 42.6577 185.813 43.8754C184.427 45.051 183.335 46.6045 182.538 48.5359C181.782 50.4673 181.194 52.5037 180.774 54.6451C180.396 56.7444 180.207 58.8438 180.207 60.9431C180.207 63.9662 180.585 66.9053 181.341 69.7604C182.097 72.6155 183.293 75.0718 184.931 77.1291C186.568 79.1445 188.479 80.1522 190.662 80.1522C193.517 80.1522 195.952 78.9976 197.968 76.6883C199.983 74.379 200.991 71.7968 200.991 68.9417ZM207.259 42.9936V38.8999H233.711V42.9936H222.186C222.228 43.1196 222.522 43.8544 223.067 45.198C223.655 46.5415 224.054 47.4653 224.264 47.9691C224.474 48.431 224.852 49.3337 225.398 50.6773C225.944 52.0209 226.342 53.0495 226.594 53.7633C226.846 54.4351 227.203 55.3798 227.665 56.5975C228.127 57.8151 228.463 58.8018 228.673 59.5575C228.925 60.2713 229.177 61.0691 229.429 61.9508C229.722 62.8325 229.911 63.5883 229.995 64.2181C230.121 64.8479 230.184 65.3937 230.184 65.8556C230.184 67.745 229.785 69.2356 228.988 70.3272C228.19 71.3769 227.056 71.9017 225.587 71.9017C224.411 71.9017 223.382 71.4819 222.501 70.6421C221.619 69.7604 221.01 68.9626 220.674 68.2489C220.338 67.5351 219.855 66.2965 219.226 64.533C219.1 64.2391 219.016 64.0292 218.974 63.9032C218.89 63.6513 218.743 63.2734 218.533 62.7696C218.365 62.2657 218.239 61.8878 218.155 61.6359C218.071 61.384 217.945 61.0481 217.777 60.6282C217.609 60.2083 217.462 59.8934 217.336 59.6835C217.252 59.4316 217.126 59.1587 216.958 58.8648C216.832 58.5289 216.706 58.2769 216.58 58.109C216.455 57.941 216.329 57.7731 216.203 57.6051C216.077 57.3952 215.93 57.2692 215.762 57.2273C215.636 57.1433 215.489 57.1013 215.321 57.1013C214.775 57.1013 214.502 57.6051 214.502 58.6128C214.502 60.1664 215.804 63.7982 218.407 69.5085C219.247 71.3979 220.443 73.9381 221.997 77.1291C223.55 80.3201 224.495 82.2725 224.831 82.9863H220.044C217.357 77.612 215.489 73.7702 214.439 71.4609C211.71 65.5407 210.345 61.342 210.345 58.8648C210.345 56.9753 210.765 55.4848 211.605 54.3931C212.445 53.2595 213.683 52.6927 215.321 52.6927C216.664 52.6927 217.735 53.2595 218.533 54.3931C219.331 55.4848 220.17 57.1223 221.052 59.3056C221.304 59.9354 221.598 60.7122 221.934 61.6359C222.312 62.5596 222.606 63.3364 222.816 63.9662C223.067 64.554 223.319 65.1418 223.571 65.7296C223.823 66.3175 224.075 66.7583 224.327 67.0522C224.579 67.3461 224.81 67.4931 225.02 67.4931C225.524 67.4931 225.776 66.9893 225.776 65.9816C225.692 64.1761 222.9 56.5135 217.399 42.9936H207.259ZM237.47 82.9233V38.8999H241.816C243.496 38.8999 244.713 38.9209 245.469 38.9629C246.267 38.9629 247.295 39.0049 248.555 39.0888C249.857 39.1308 250.801 39.2358 251.389 39.4037C251.977 39.5717 252.649 39.8236 253.404 40.1595C254.202 40.4534 254.769 40.8523 255.105 41.3561C255.441 41.818 255.735 42.4058 255.987 43.1196C256.281 43.8334 256.428 44.6521 256.428 45.5758C256.428 47.6752 254.853 49.9425 251.704 52.3777C251.41 52.5877 251.011 52.9026 250.507 53.3225C250.004 53.7003 249.605 53.9943 249.311 54.2042C249.059 54.4141 248.765 54.666 248.429 54.96C248.135 55.2119 247.925 55.4428 247.799 55.6527C247.673 55.8627 247.61 56.0726 247.61 56.2825C247.61 56.8284 247.841 57.1013 248.303 57.1013C248.513 57.1013 248.765 57.0383 249.059 56.9124C249.353 56.7444 249.605 56.5975 249.815 56.4715C250.025 56.3035 250.339 56.0516 250.759 55.7157C251.221 55.3798 251.557 55.1279 251.767 54.96C253.446 53.6164 255.021 52.9446 256.491 52.9446C257.876 52.9446 259.01 53.4274 259.891 54.3931C260.773 55.3168 261.193 56.4505 261.151 57.7941C261.151 58.4239 261.025 59.0117 260.773 59.5575C260.521 60.1034 260.059 60.6702 259.388 61.258C258.758 61.8038 258.254 62.2237 257.876 62.5176C257.498 62.8115 256.784 63.2944 255.735 63.9662C254.727 64.596 254.097 64.9949 253.845 65.1628C251.368 66.8003 249.92 67.955 249.5 68.6267C249.248 69.0046 249.122 69.3405 249.122 69.6344C249.122 70.2642 249.458 70.5791 250.129 70.5791C250.969 70.5791 252.292 69.6764 254.097 67.871C254.181 67.787 254.412 67.5561 254.79 67.1782C255.168 66.8003 255.441 66.5484 255.609 66.4224C255.777 66.2965 256.029 66.0865 256.365 65.7926C256.742 65.4567 257.057 65.2258 257.309 65.0998C257.561 64.9739 257.855 64.8689 258.191 64.7849C258.527 64.659 258.863 64.596 259.199 64.596C260.668 64.596 261.865 65.1628 262.789 66.2965C263.754 67.4301 264.237 68.7947 264.237 70.3902C264.237 73.6652 262.747 76.6043 259.766 79.2075C256.826 81.7687 253.425 83.0493 249.563 83.0493L237.911 82.9863V82.9233H237.47ZM252.334 45.3239C252.334 43.7284 250.717 42.9307 247.484 42.9307H241.816V78.8926C242.656 78.8926 243.978 78.9136 245.784 78.9556C247.631 78.9556 248.891 78.9556 249.563 78.9556C252.376 78.9556 254.832 78.0528 256.931 76.2474C259.073 74.442 260.143 72.4896 260.143 70.3902C260.143 69.2566 259.807 68.6897 259.136 68.6897C258.842 68.6897 258.548 68.7737 258.254 68.9417C257.96 69.1096 257.708 69.2985 257.498 69.5085C257.33 69.7184 257.057 70.0543 256.679 70.5162C256.302 70.936 255.987 71.2719 255.735 71.5239C253.845 73.6232 251.998 74.6729 250.192 74.6729C248.723 74.6729 247.484 74.232 246.477 73.3503C245.511 72.4686 245.028 71.2299 245.028 69.6344C245.028 68.6267 245.385 67.6401 246.099 66.6743C246.812 65.7086 247.484 64.9739 248.114 64.47C248.786 63.9662 249.815 63.2734 251.2 62.3917C251.284 62.3497 251.347 62.3077 251.389 62.2657C251.431 62.2237 251.494 62.1817 251.578 62.1397C251.662 62.0978 251.725 62.0558 251.767 62.0138C252.103 61.8038 252.586 61.5099 253.216 61.1321C253.887 60.7122 254.391 60.3973 254.727 60.1873C255.063 59.9354 255.441 59.6625 255.861 59.3686C256.281 59.0747 256.574 58.8018 256.742 58.5499C256.952 58.2979 257.057 58.067 257.057 57.8571C257.057 57.2273 256.763 56.9124 256.176 56.9124C256.008 56.9124 255.819 56.9543 255.609 57.0383C255.399 57.0803 255.147 57.1853 254.853 57.3532C254.601 57.5212 254.391 57.6681 254.223 57.7941C254.055 57.92 253.782 58.13 253.404 58.4239C253.027 58.7178 252.754 58.9277 252.586 59.0537C250.654 60.5232 249.122 61.258 247.988 61.258C246.687 61.258 245.616 60.7542 244.776 59.7465C243.936 58.7388 243.517 57.6051 243.517 56.3455C243.517 55.9676 243.558 55.5898 243.642 55.2119C243.726 54.834 243.873 54.4771 244.083 54.1412C244.335 53.7633 244.545 53.4694 244.713 53.2595C244.881 53.0076 245.175 52.6927 245.595 52.3148C246.015 51.9369 246.309 51.685 246.477 51.559C246.645 51.3911 246.98 51.1181 247.484 50.7403C247.988 50.3204 248.303 50.0685 248.429 49.9845C251.032 47.8851 252.334 46.3316 252.334 45.3239ZM280.258 80.1522C283.449 80.1522 285.968 78.2838 287.816 74.5469C289.705 70.8101 290.65 66.2755 290.65 60.9431C290.65 57.5841 290.23 55.9047 289.39 55.9047C288.424 55.9047 287.27 58.2349 285.926 62.8955C283.953 69.5295 281.601 72.8464 278.872 72.8464C277.403 72.8464 276.248 72.3846 275.408 71.4609C274.569 70.5372 274.149 69.3405 274.149 67.871C274.149 66.7793 274.443 65.3308 275.03 63.5253C275.66 61.6779 276.248 60.1873 276.794 59.0537C277.172 58.088 277.718 56.7444 278.431 55.0229C279.145 53.2595 279.712 51.8529 280.132 50.8032C280.552 49.7536 280.93 48.6199 281.266 47.4023C281.643 46.1847 281.832 45.2399 281.832 44.5682C281.832 42.6787 281.308 41.734 280.258 41.734C278.116 41.734 276.206 42.8047 274.527 44.946C272.889 47.0874 271.692 49.5856 270.937 52.4407C270.181 55.2959 269.803 58.13 269.803 60.9431C269.803 64.0921 270.16 67.0942 270.874 69.9493C271.588 72.7625 272.763 75.1767 274.401 77.1921C276.038 79.1655 277.991 80.1522 280.258 80.1522ZM280.258 37.6403C281.811 37.6403 283.05 38.0392 283.974 38.8369C284.939 39.6347 285.548 40.5164 285.8 41.4821C286.094 42.4058 286.241 43.4345 286.241 44.5682C286.241 47.0874 284.562 51.9159 281.203 59.0537C281.035 59.2636 280.468 60.6492 279.502 63.2104C278.578 65.7716 278.116 67.3251 278.116 67.871C278.116 68.6687 278.41 69.0676 278.998 69.0676C279.166 69.0676 279.355 68.8787 279.565 68.5008C279.817 68.1229 280.09 67.5771 280.384 66.8633C280.72 66.1075 281.014 65.3937 281.266 64.7219C281.517 64.0502 281.811 63.2314 282.147 62.2657C282.525 61.258 282.798 60.5232 282.966 60.0614C283.05 59.8095 283.239 59.3056 283.533 58.5499C283.827 57.7521 284.037 57.1643 284.163 56.7864C284.331 56.4085 284.562 55.8837 284.855 55.2119C285.191 54.4981 285.485 53.9523 285.737 53.5744C286.031 53.1965 286.367 52.7976 286.745 52.3777C287.123 51.9579 287.522 51.664 287.941 51.496C288.403 51.2861 288.886 51.1811 289.39 51.1811C291.07 51.1811 292.434 52.1258 293.484 54.0152C294.533 55.9047 295.058 58.214 295.058 60.9431C295.058 64.7639 294.512 68.4168 293.421 71.9017C292.371 75.3447 290.692 78.2628 288.382 80.656C286.073 83.0493 283.365 84.2459 280.258 84.2459C277.151 84.2459 274.443 83.0703 272.133 80.719C269.824 78.3677 268.124 75.4706 267.032 72.0277C265.982 68.5428 265.457 64.8479 265.457 60.9431C265.457 57.2063 265.982 53.6164 267.032 50.1734C268.124 46.6885 269.824 43.7284 272.133 41.2932C274.485 38.8579 277.193 37.6403 280.258 37.6403Z" fill="#FDFDFD"/>
<path d="M88.468 115.386C89.464 115.386 90.202 115.65 90.682 116.178C91.174 116.706 91.42 117.48 91.42 118.5V120.138C91.42 121.158 91.174 121.932 90.682 122.46C90.202 122.988 89.464 123.252 88.468 123.252H87.532V127.986H85.552V115.386H88.468ZM87.532 117.186V121.452H88.468C88.78 121.452 89.02 121.368 89.188 121.2C89.356 121.032 89.44 120.72 89.44 120.264V118.374C89.44 117.918 89.356 117.606 89.188 117.438C89.02 117.27 88.78 117.186 88.468 117.186H87.532ZM98.7096 127.986H96.7116L96.3696 125.7H93.9396L93.5976 127.986H91.7796L93.7956 115.386H96.6936L98.7096 127.986ZM94.1916 123.99H96.0996L95.1456 117.618L94.1916 123.99ZM103.359 118.482C103.359 117.918 103.263 117.54 103.071 117.348C102.891 117.144 102.645 117.042 102.333 117.042C102.021 117.042 101.769 117.138 101.577 117.33C101.397 117.51 101.307 117.828 101.307 118.284V119.634H99.4345V118.41C99.4345 117.39 99.6805 116.61 100.173 116.07C100.677 115.518 101.415 115.242 102.387 115.242C103.359 115.242 104.091 115.518 104.583 116.07C105.087 116.61 105.339 117.39 105.339 118.41V118.734C105.339 120.078 104.877 120.942 103.953 121.326C104.457 121.542 104.811 121.878 105.015 122.334C105.231 122.778 105.339 123.324 105.339 123.972V124.962C105.339 125.982 105.087 126.768 104.583 127.32C104.091 127.86 103.359 128.13 102.387 128.13C101.415 128.13 100.677 127.86 100.173 127.32C99.6805 126.768 99.4345 125.982 99.4345 124.962V123.378H101.307V125.088C101.307 125.544 101.397 125.868 101.577 126.06C101.769 126.24 102.021 126.33 102.333 126.33C102.645 126.33 102.891 126.234 103.071 126.042C103.263 125.85 103.359 125.472 103.359 124.908V123.918C103.359 123.33 103.257 122.916 103.053 122.676C102.849 122.436 102.519 122.316 102.063 122.316H101.757V120.516H102.171C102.543 120.516 102.831 120.42 103.035 120.228C103.251 120.036 103.359 119.688 103.359 119.184V118.482ZM109.509 115.386C110.505 115.386 111.243 115.65 111.723 116.178C112.215 116.706 112.461 117.48 112.461 118.5V120.138C112.461 121.158 112.215 121.932 111.723 122.46C111.243 122.988 110.505 123.252 109.509 123.252H108.573V127.986H106.593V115.386H109.509ZM108.573 117.186V121.452H109.509C109.821 121.452 110.061 121.368 110.229 121.2C110.397 121.032 110.481 120.72 110.481 120.264V118.374C110.481 117.918 110.397 117.606 110.229 117.438C110.061 117.27 109.821 117.186 109.509 117.186H108.573ZM113.901 126.186C114.009 126.198 114.123 126.204 114.243 126.204C114.363 126.204 114.477 126.204 114.585 126.204C114.741 126.204 114.885 126.186 115.017 126.15C115.161 126.114 115.281 126.048 115.377 125.952C115.485 125.856 115.563 125.718 115.611 125.538C115.671 125.358 115.701 125.13 115.701 124.854L112.821 115.386H114.801L116.979 122.766L118.779 115.386H120.759L118.167 124.674C117.939 125.538 117.705 126.204 117.465 126.672C117.237 127.128 116.991 127.458 116.727 127.662C116.463 127.854 116.175 127.962 115.863 127.986C115.563 128.01 115.227 128.022 114.855 128.022C114.675 128.022 114.513 128.022 114.369 128.022C114.225 128.022 114.069 128.01 113.901 127.986V126.186ZM127.22 126.186H128.822V115.386H130.82V127.986H121.658V115.386H123.62V126.186H125.24V115.386H127.22V126.186ZM134.237 120.696H136.955V122.496H134.237V126.186H137.657V127.986H132.257V115.386H137.657V117.186H134.237V120.696ZM140.811 127.986H138.831V115.386H140.811V120.786H143.061V115.386H145.077V127.986H143.061V122.586H140.811V127.986ZM148.493 127.986H146.513V115.386H148.493V120.786H150.743V115.386H152.759V127.986H150.743V122.586H148.493V127.986ZM157.111 126.186C157.423 126.186 157.663 126.102 157.831 125.934C157.999 125.766 158.083 125.454 158.083 124.998V123.108C158.083 122.652 157.999 122.34 157.831 122.172C157.663 122.004 157.423 121.92 157.111 121.92H156.175V126.186H157.111ZM154.195 127.986V115.386H156.175V120.12H157.111C158.107 120.12 158.845 120.384 159.325 120.912C159.817 121.44 160.063 122.214 160.063 123.234V124.872C160.063 125.892 159.817 126.666 159.325 127.194C158.845 127.722 158.107 127.986 157.111 127.986H154.195ZM161.035 115.386H163.015V127.986H161.035V115.386ZM166.494 127.986H164.46V115.386H166.224V122.928L168.258 115.386H170.742V127.986H168.96V118.86L166.494 127.986ZM169.806 113.208V114.684H165.45V113.208H169.806ZM179.184 124.332L180.534 115.386H183.288V127.986H181.416V118.95L180.048 127.986H178.176L176.7 119.076V127.986H174.972V115.386H177.726L179.184 124.332ZM186.528 125.088C186.528 125.544 186.618 125.868 186.798 126.06C186.99 126.24 187.242 126.33 187.554 126.33C187.866 126.33 188.112 126.24 188.292 126.06C188.484 125.868 188.58 125.544 188.58 125.088V118.284C188.58 117.828 188.484 117.51 188.292 117.33C188.112 117.138 187.866 117.042 187.554 117.042C187.242 117.042 186.99 117.138 186.798 117.33C186.618 117.51 186.528 117.828 186.528 118.284V125.088ZM184.548 118.41C184.548 117.39 184.806 116.61 185.322 116.07C185.838 115.518 186.582 115.242 187.554 115.242C188.526 115.242 189.27 115.518 189.786 116.07C190.302 116.61 190.56 117.39 190.56 118.41V124.962C190.56 125.982 190.302 126.768 189.786 127.32C189.27 127.86 188.526 128.13 187.554 128.13C186.582 128.13 185.838 127.86 185.322 127.32C184.806 126.768 184.548 125.982 184.548 124.962V118.41ZM197.536 123.288V124.962C197.536 125.982 197.284 126.768 196.78 127.32C196.288 127.86 195.556 128.13 194.584 128.13C193.612 128.13 192.874 127.86 192.37 127.32C191.878 126.768 191.632 125.982 191.632 124.962V118.41C191.632 117.39 191.878 116.61 192.37 116.07C192.874 115.518 193.612 115.242 194.584 115.242C195.556 115.242 196.288 115.518 196.78 116.07C197.284 116.61 197.536 117.39 197.536 118.41V119.634H195.664V118.284C195.664 117.828 195.568 117.51 195.376 117.33C195.196 117.138 194.95 117.042 194.638 117.042C194.326 117.042 194.074 117.138 193.882 117.33C193.702 117.51 193.612 117.828 193.612 118.284V125.088C193.612 125.544 193.702 125.862 193.882 126.042C194.074 126.222 194.326 126.312 194.638 126.312C194.95 126.312 195.196 126.222 195.376 126.042C195.568 125.862 195.664 125.544 195.664 125.088V123.288H197.536ZM201.382 122.964L200.77 124.116V127.986H198.79V115.386H200.77V120.876L203.398 115.386H205.342L202.588 121.002L205.342 127.986H203.308L201.382 122.964ZM208.043 125.088C208.043 125.544 208.133 125.868 208.313 126.06C208.505 126.24 208.757 126.33 209.069 126.33C209.381 126.33 209.627 126.24 209.807 126.06C209.999 125.868 210.095 125.544 210.095 125.088V118.284C210.095 117.828 209.999 117.51 209.807 117.33C209.627 117.138 209.381 117.042 209.069 117.042C208.757 117.042 208.505 117.138 208.313 117.33C208.133 117.51 208.043 117.828 208.043 118.284V125.088ZM206.063 118.41C206.063 117.39 206.321 116.61 206.837 116.07C207.353 115.518 208.097 115.242 209.069 115.242C210.041 115.242 210.785 115.518 211.301 116.07C211.817 116.61 212.075 117.39 212.075 118.41V124.962C212.075 125.982 211.817 126.768 211.301 127.32C210.785 127.86 210.041 128.13 209.069 128.13C208.097 128.13 207.353 127.86 206.837 127.32C206.321 126.768 206.063 125.982 206.063 124.962V118.41ZM216.315 115.386C217.347 115.386 218.091 115.626 218.547 116.106C219.015 116.586 219.249 117.312 219.249 118.284V118.734C219.249 119.382 219.147 119.916 218.943 120.336C218.739 120.756 218.415 121.068 217.971 121.272C218.511 121.476 218.889 121.812 219.105 122.28C219.333 122.736 219.447 123.3 219.447 123.972V124.998C219.447 125.97 219.195 126.714 218.691 127.23C218.187 127.734 217.437 127.986 216.441 127.986H213.327V115.386H216.315ZM215.307 122.316V126.186H216.441C216.777 126.186 217.029 126.096 217.197 125.916C217.377 125.736 217.467 125.412 217.467 124.944V123.846C217.467 123.258 217.365 122.856 217.161 122.64C216.969 122.424 216.645 122.316 216.189 122.316H215.307ZM215.307 117.186V120.516H216.081C216.453 120.516 216.741 120.42 216.945 120.228C217.161 120.036 217.269 119.688 217.269 119.184V118.482C217.269 118.026 217.185 117.696 217.017 117.492C216.861 117.288 216.609 117.186 216.261 117.186H215.307ZM226.346 123.288V124.962C226.346 125.982 226.094 126.768 225.59 127.32C225.098 127.86 224.366 128.13 223.394 128.13C222.422 128.13 221.684 127.86 221.18 127.32C220.688 126.768 220.442 125.982 220.442 124.962V118.41C220.442 117.39 220.688 116.61 221.18 116.07C221.684 115.518 222.422 115.242 223.394 115.242C224.366 115.242 225.098 115.518 225.59 116.07C226.094 116.61 226.346 117.39 226.346 118.41V119.634H224.474V118.284C224.474 117.828 224.378 117.51 224.186 117.33C224.006 117.138 223.76 117.042 223.448 117.042C223.136 117.042 222.884 117.138 222.692 117.33C222.512 117.51 222.422 117.828 222.422 118.284V125.088C222.422 125.544 222.512 125.862 222.692 126.042C222.884 126.222 223.136 126.312 223.448 126.312C223.76 126.312 224.006 126.222 224.186 126.042C224.378 125.862 224.474 125.544 224.474 125.088V123.288H226.346ZM230.193 122.964L229.581 124.116V127.986H227.601V115.386H229.581V120.876L232.209 115.386H234.153L231.399 121.002L234.153 127.986H232.119L230.193 122.964ZM237.088 127.986H235.054V115.386H236.818V122.928L238.852 115.386H241.336V127.986H239.554V118.86L237.088 127.986ZM244.805 127.986H242.771V115.386H244.535V122.928L246.569 115.386H249.053V127.986H247.271V118.86L244.805 127.986ZM248.117 113.208V114.684H243.761V113.208H248.117ZM252.743 115.386H258.863V117.186H256.793V127.986H254.812V117.186H252.743V115.386ZM261.749 120.696H264.467V122.496H261.749V126.186H265.169V127.986H259.769V115.386H265.169V117.186H261.749V120.696ZM272.733 127.986H270.735L270.393 125.7H267.963L267.621 127.986H265.803L267.819 115.386H270.717L272.733 127.986ZM268.215 123.99H270.123L269.169 117.618L268.215 123.99ZM273.098 115.386H279.218V117.186H277.148V127.986H275.168V117.186H273.098V115.386ZM283.04 115.386C284.036 115.386 284.774 115.65 285.254 116.178C285.746 116.706 285.992 117.48 285.992 118.5V120.138C285.992 121.158 285.746 121.932 285.254 122.46C284.774 122.988 284.036 123.252 283.04 123.252H282.104V127.986H280.124V115.386H283.04ZM282.104 117.186V121.452H283.04C283.352 121.452 283.592 121.368 283.76 121.2C283.928 121.032 284.012 120.72 284.012 120.264V118.374C284.012 117.918 283.928 117.606 283.76 117.438C283.592 117.27 283.352 117.186 283.04 117.186H282.104Z" fill="#FDFDFD"/>
</svg>
